<svg width="534" height="436" viewBox="0 0 534 436" fill="none" xmlns="http://www.w3.org/2000/svg">
<path d="M486.924 298.402L487.062 302.556L479.717 305.231L475.487 302.026V297.185L479.572 296.958L479.696 295.892L481.037 295.032L486.924 298.402Z" fill="#E1CFB5"/>
<path d="M336.81 331.255L338.384 367.827L333.763 430.018L326.845 430.506L318.441 374.024L306.818 326.228L336.81 331.255Z" fill="#505B60"/>
<path d="M327.215 435.154H337.6L338.026 431.722L334.306 429.15L326.83 429.68L327.215 435.154Z" fill="#292949"/>
<path d="M287.844 320.374L286.324 348.021L290.829 430.223L297.754 430.567L308.132 376.657L317.292 317.527L287.844 320.374Z" fill="#505B60"/>
<path d="M297.471 435.415L287.362 435.841L286.33 432.926L290.264 429.37L297.753 429.741L297.471 435.415Z" fill="#292949"/>
<path d="M328.117 236.865L306.502 234.548C306.502 234.548 294.481 235.834 286.318 264.388C281.779 280.274 280.397 305.3 280.066 324.384C280.575 327.135 283.505 339.026 296.083 337.004C317.616 333.531 329.094 330.058 338.453 331.798C346.445 333.531 345.764 322.534 344.89 314.144L341.706 288.176L328.117 236.865Z" fill="#1B1E25"/>
<path d="M323.942 209.963C318.496 208.759 312.884 207.686 307.437 208.766C306.248 209 304.961 209.419 304.315 210.451C304.083 210.862 303.912 211.304 303.806 211.764C302.431 216.881 300.684 224.46 304.054 229.177C304.712 230.06 305.54 230.804 306.488 231.364C307.722 232.136 309.089 232.672 310.518 232.946C310.224 234.221 309.814 235.466 309.294 236.666C310.539 238.544 316.357 238.771 317.437 236.969C317.499 235.408 317.554 233.847 317.615 232.286C318.339 232.006 319.03 231.651 319.679 231.227C322.091 229.566 323.878 227.145 324.754 224.35C325.792 221.324 327.25 218.442 328.192 215.361C328.536 214.233 328.811 212.954 328.192 211.923C327.574 210.891 326.205 210.471 324.981 210.196L323.942 209.963Z" fill="#BFA296"/>
<path d="M326.328 224.163C328.941 221.474 332.009 217.719 332.242 214.308C332.435 211.481 332.05 207.637 330.468 205.196C328.99 202.912 325.2 201.661 322.951 200.34L316.59 196.606C316.173 196.319 315.707 196.112 315.215 195.994C314.609 195.934 313.997 196.002 313.42 196.193L298.359 200.093C297.396 200.34 296.296 200.705 295.945 201.633C295.787 202.221 295.801 202.842 295.986 203.421C296.557 206.028 297.65 208.682 297.919 211.323C298.338 213.386 298.256 215.264 299.775 216.79C301.295 218.317 303.111 219.005 304.259 220.759C305.085 222.024 305.401 223.551 306.054 224.885C308.991 231.074 320.875 229.424 324.987 225.476C325.407 225.091 325.86 224.644 326.328 224.163Z" fill="#1B1E25"/>
<path d="M323.53 238.715L338.384 222.664L334.884 179.166L341.41 176.298L355.151 220.071L350.296 233.536L330.373 260.309L323.53 238.715Z" fill="#1B1E25"/>
<path d="M340.014 176.91V172.928C340.014 171.477 336.355 168.114 335.427 166.869C334.898 166.182 332.463 169.957 332.436 170.59C332.381 171.656 333.921 173.946 334.347 175.053L333.048 176.91L334.884 179.166L340.014 176.91Z" fill="#C17E72"/>
<path d="M296.949 242.05L280.135 228.069L277.962 184.482L271.112 182.487L263.183 227.67L269.743 240.393L292.968 264.353L296.949 242.05Z" fill="#1B1E25"/>
<path d="M272.577 182.9C272.577 182.9 272.068 179.014 272.061 178.952C271.875 177.515 275.059 173.678 275.823 172.343C276.263 171.587 279.165 175.026 279.261 175.645C279.454 176.697 278.223 179.173 277.948 180.328L279.475 181.999L277.948 184.468L272.577 182.9Z" fill="#C17E72"/>
<path d="M32.9497 214.927C30.242 213.597 27.7025 211.948 25.3849 210.017C24.6284 209.384 23.8169 208.504 24.0851 207.555C24.3877 206.468 25.8181 206.234 26.946 206.338C29.0714 206.525 31.1371 207.14 33.0185 208.146C33.4793 207.995 32.881 207.252 33.0873 206.812C33.1486 206.72 33.2327 206.644 33.3314 206.594C33.4302 206.543 33.5403 206.519 33.6512 206.523C36.6909 206.351 37.8738 210.491 38.9191 212.479C36.7872 213.6 34.5865 213.641 32.7297 215.333L32.9497 214.927Z" fill="#BFA296"/>
<path d="M163.333 264.16L167.301 264.738C168.738 264.951 175.024 261.781 176.358 261.038C177.129 260.612 171.331 257.696 170.719 257.599C169.667 257.393 167.177 258.583 166.022 258.844L164.371 257.29L161.875 258.782L163.333 264.16Z" fill="#EFBFA5"/>
<path d="M66.8255 426.385L66.2822 430.642L74.2528 436L79.06 432.286L75.3463 427.479L67.3757 422.122L66.8255 426.385Z" fill="#292949"/>
<path d="M66.5573 424.955L72.7054 370.619L65.3125 309.783L66.9768 296.847L100.021 295.589L101.211 316.654L95.6614 370.701L74.7961 427.726L66.5573 424.955Z" fill="#363C40"/>
<path d="M105.283 236.652L120.13 245.379L131.918 261.891L163.305 257.346L164.289 265.99L128.638 277.874L110.365 271.031L105.283 236.652Z" fill="#1B1E25"/>
<path d="M124.265 301.683L124.354 356.515L113.316 427.102L105.373 427.026L101.006 361.748L90.7866 296.408L124.265 301.683Z" fill="#363C40"/>
<path d="M105.386 430.374L113.935 434.755L118.267 430.498L114.017 426.166L105.427 426.076L105.386 430.374Z" fill="#292949"/>
<path d="M61.8881 320.326C61.9638 317.953 62.1013 315.972 62.1151 315.264C62.287 308.889 62.8578 302.528 63.6555 296.201C64.3433 290.527 65.2717 276.449 66.2414 270.81C67.046 266.154 69.8381 254.539 71.8531 250.22C76.8734 239.485 75.2917 238.494 97.3605 235.31C106.988 233.935 109.306 239.932 117.201 246.857C117.978 247.545 117.937 251.602 118.123 252.682C118.439 254.573 118.776 256.471 119.168 258.356C119.477 259.834 119.814 261.306 120.193 262.778C120.193 262.778 126.822 292.948 131.196 299.357C135.57 305.767 144.641 314.721 129.484 320.188C126.818 321.113 124.084 321.828 121.307 322.327C121.307 322.327 108.928 320.951 102.539 320.993C96.661 321.063 90.7984 321.61 85.0091 322.63C81.151 323.276 77.2104 324.211 73.7581 326.013C70.4639 327.732 68.0913 330.263 64.749 332.044C64.4472 332.249 64.0885 332.352 63.7243 332.34C61.8193 332.072 61.7299 325.332 61.8881 320.326Z" fill="#1B1E25"/>
<path d="M95.3865 238.09C94.4787 238.942 92.0304 239.898 89.1008 239.678C88.8109 239.66 88.5336 239.553 88.3062 239.372C88.0788 239.191 87.9121 238.945 87.8285 238.667C87.3623 237.07 87.0016 235.443 86.7488 233.798C84.5756 233.709 81.9898 233.372 81.0132 231.426C80.7452 230.794 80.5826 230.123 80.5318 229.438C80.1742 226.623 79.8143 223.81 79.4521 221C79.2594 220.035 79.2594 219.042 79.4521 218.077C79.906 216.42 81.4327 215.285 82.9663 214.508C86.8794 212.52 91.6591 212.032 95.696 213.758C96.7955 214.172 97.766 214.87 98.5087 215.78C99.5884 217.224 99.7053 219.143 99.781 220.945L99.9873 225.931C100.063 227.836 99.9873 230.057 98.5087 231.24C97.711 231.873 96.6175 232.1 95.9573 232.87C94.8088 234.232 95.6616 236.322 95.3865 238.09Z" fill="#BFA296"/>
<path d="M111.067 204.131C111.262 203.34 111.51 202.563 111.81 201.806C112.498 200.169 113.433 198.65 113.839 196.937C114.245 195.225 113.942 193.168 112.505 192.123C111.522 191.535 110.379 191.273 109.238 191.374C105.472 191.426 101.79 192.485 98.5715 194.441C95.5249 196.298 93.001 198.567 89.2942 198.374C85.8075 198.168 83.6962 199.337 80.7872 201.51C77.6443 203.856 72.9885 205.637 70.3408 208.388C69.2612 209.578 68.4871 211.013 68.0851 212.569C67.3689 215.253 67.4183 218.083 68.2278 220.74C69.0373 223.397 70.5744 225.774 72.6653 227.602C73.6264 228.394 74.6551 229.101 75.7393 229.714C77.9607 231.007 80.6427 232.63 83.1392 232.595C82.5615 230.532 78.7103 224.631 79.7694 222.465C81.4474 219.027 87.3892 218.222 90.6903 217.926C94.2939 217.603 98.0488 219.068 101.556 218.552C104.087 218.181 106.803 216.049 108.475 214.171C110.531 211.874 110.331 207.019 111.067 204.131Z" fill="#1B1E25"/>
<path d="M78.0841 240.035L60.7468 244.485L39.8609 212.024L31.0513 214.404L45.7409 261.134L79.5489 265.205L78.0841 240.035Z" fill="#1B1E25"/>
<path d="M500.08 420.106C500.386 419.703 500.792 419.386 501.257 419.186C501.722 418.986 502.232 418.909 502.735 418.965C503.215 419.045 503.668 419.24 504.056 419.533C504.444 419.827 504.755 420.21 504.963 420.65C505.202 421.26 505.332 421.907 505.348 422.562C505.623 425.931 505.603 433.923 501.112 435.078C499.228 435.559 497.673 434.218 497.165 432.527C496.408 429.975 497.529 422.912 500.08 420.106Z" fill="#292949"/>
<path d="M498.484 369.271L498.718 389.813C498.443 398.939 499.867 408.113 499.598 417.239C499.53 419.336 498.986 421.551 499.516 423.627C500.045 425.704 501.682 426.028 503.381 425.003C505.657 423.627 505.286 420.395 505.664 418.043C506.709 411.586 507.927 405.155 509.013 398.698C509.543 395.534 508.449 391.099 508.69 387.901L512.005 370.708L498.484 369.271Z" fill="#BFA296"/>
<path d="M521.957 336.102L513.016 375.818L511.111 413.326L496.938 413.01L493.08 308.092L520.568 308.594L521.957 336.102Z" fill="#363C40"/>
<path d="M479.8 419.357C480.124 418.973 480.544 418.68 481.017 418.509C481.49 418.337 482 418.293 482.496 418.381C482.973 418.487 483.418 418.707 483.793 419.022C484.168 419.337 484.461 419.737 484.648 420.189C484.857 420.814 484.957 421.47 484.944 422.129C485.081 425.512 484.71 433.517 480.192 434.404C478.294 434.776 476.794 433.345 476.368 431.619C475.722 429.02 477.138 422.019 479.8 419.357Z" fill="#292949"/>
<path d="M487.274 372.18L486.07 392.687C485.967 398.389 485.211 404.048 484.619 409.708C484.069 414.969 484.922 420.444 482.178 425.223C481.311 426.729 479.571 427.726 478.354 425.911C477.419 424.535 477.976 422.163 477.797 420.567C477.061 414.068 476.146 407.583 475.363 401.084C474.977 397.9 476.284 393.519 476.201 390.315L473.698 372.964L487.274 372.18Z" fill="#BFA296"/>
<path d="M469.332 333.675L468.176 372.228L474.228 411.215L488.65 411.648L488.01 369.45L495.644 334.459L498.202 311.558L475.322 308.855L469.332 333.675Z" fill="#363C40"/>
<path d="M487.432 229.953L512.087 229.361L526.377 255.948L521.295 280.851L520.394 310.642L485.225 311.124L473.657 309.246L476.731 277.405L474.964 234.877L487.432 229.953Z" fill="#1B1E25"/>
<path d="M490.665 206.97C495.52 196.654 509.233 202.156 511.158 212.059C512.389 218.503 506.702 226.082 500.045 227.189C499.99 227.436 499.275 229.534 499.254 229.726C499.126 230.725 498.926 231.714 498.656 232.684C498.56 233.055 493.017 231.356 492.398 231.164C492.175 231.124 491.977 230.998 491.847 230.813C491.655 230.435 492.803 227.553 492.886 227.168C492.968 226.783 493.085 226.247 493.188 225.793C490.163 223.888 488.512 220.36 488.313 216.921C488.113 213.483 489.207 210.058 490.665 206.97Z" fill="#BFA296"/>
<path d="M500.961 198.237C501.565 199.133 501.902 200.182 501.93 201.263C502.036 201.888 502.005 202.528 501.841 203.14C501.05 205.52 498.65 205.135 496.69 205.719C494.277 206.476 492.149 207.942 490.583 209.928C488.217 212.926 488.678 217.163 489.118 220.801C489.27 222.087 489.655 224.005 488.561 225.016C487.468 226.027 485.191 225.628 484.077 224.913C482.963 224.198 482.276 223.187 481.113 222.85C479.951 222.513 478.129 222.85 477.675 221.66C477.605 221.306 477.513 220.957 477.4 220.615C476.815 219.549 474.965 220.526 474.064 219.721C473.507 219.226 473.61 218.311 473.892 217.61C474.267 216.95 474.486 216.214 474.532 215.457C474.383 214.829 474.152 214.223 473.844 213.655C473.637 213.046 473.607 212.39 473.758 211.764C473.909 211.138 474.234 210.568 474.697 210.12C476.43 208.504 479.38 209.165 481.217 207.658C482.172 206.881 482.647 205.65 483.094 204.488C483.541 203.326 484.064 202.115 485.075 201.4C486.319 200.527 487.949 200.871 489.201 199.805C489.937 199.179 490.48 198.319 491.264 197.79C492.323 197.102 494.297 196.689 495.555 196.414C496.537 196.177 497.565 196.223 498.521 196.545C499.478 196.868 500.323 197.454 500.961 198.237Z" fill="#1B1E25"/>
<path d="M508.086 216.351C507.769 219.892 505.603 223.523 506.896 226.811C508.189 230.098 512.24 231.136 515.713 231.68C516.283 231.769 523.587 233.2 523.635 233.055C524.453 230.655 525.292 228.2 526.812 226.178C528.332 224.156 530.677 222.595 533.16 222.705C532.472 222.506 532.197 221.598 532.355 220.876C532.595 220.162 532.899 219.471 533.263 218.813C533.617 217.973 533.734 217.052 533.602 216.15C533.47 215.248 533.094 214.399 532.513 213.696C530.161 210.986 525.327 211.488 523.394 208.456C522.198 206.578 522.631 204.082 522.136 201.888C521.166 197.652 516.785 196.317 513.643 194.11C510.328 191.785 507.116 190.355 502.969 190.596C497.832 190.891 493.52 195.63 494.95 200.678C496.78 207.156 506.82 207.692 508.017 214.198C508.14 214.909 508.163 215.633 508.086 216.351Z" fill="#1B1E25"/>
<path d="M504.792 229.808L497.144 240.619L493.548 240.324L487.558 229.361L504.792 229.808Z" fill="#282D30"/>
<path d="M487.557 229.363L473.658 230.119C473.658 230.119 458.054 237.794 457.022 237.23C455.991 236.666 439.142 202.899 439.142 202.899L430.889 205.582L441.205 244.197L451.184 254.512L479.38 249.815L487.557 229.363Z" fill="#1B1E25"/>
<path d="M432.161 205.092L429.947 201.784C429.135 200.581 430.284 195.726 430.38 194.219C430.435 193.346 434.568 195.141 434.939 195.643C435.579 196.503 435.572 199.26 435.84 200.423L437.952 201.241L437.677 204.136L432.161 205.092Z" fill="#BFA296"/>
<path d="M140.184 105.119L96.748 85.4918V33.2461L140.184 52.8735V105.119Z" fill="#44486C"/>
<path d="M140.185 105.119L183.628 85.4918V33.2461L140.185 52.8735V105.119Z" fill="#434370"/>
<path d="M96.748 33.2465L140.184 52.8739L183.627 33.2465L140.184 15.4209L96.748 33.2465Z" fill="#5353A8"/>
<path d="M487.083 75.9606L450.579 59.4623V15.5654L487.083 32.0568V75.9606Z" fill="#414467"/>
<path d="M487.082 75.9606L523.579 59.4623V15.5654L487.082 32.0568V75.9606Z" fill="#4D4D8C"/>
<path d="M450.579 15.5653L487.083 32.0567L523.58 15.5653L487.083 0.59375L450.579 15.5653Z" fill="#5959A0"/>
<path d="M266.243 117.636L261.127 115.319L262.027 113.324L267.144 115.642L266.243 117.636ZM257.138 113.51L251.155 110.8L252.063 108.806L258.039 111.516L257.138 113.51ZM247.173 108.999L241.19 106.289L242.091 104.295L248.074 107.004L247.173 108.999ZM237.201 104.501L231.259 101.75L232.16 99.7557L238.143 102.458L237.201 104.501ZM227.236 99.9896L221.26 97.28L222.161 95.2856L228.137 97.9952L227.236 99.9896ZM217.271 95.4781L211.288 92.7686L212.196 90.7742L218.193 93.4975L217.271 95.4781ZM207.306 90.9599L201.323 88.2503L202.224 86.2628L208.207 88.9655L207.306 90.9599ZM197.334 86.4484L191.372 83.7182L192.273 81.7239L198.256 84.4334L197.334 86.4484ZM187.369 81.937L181.393 79.2274L182.294 77.2331L188.27 79.9427L187.369 81.937ZM177.404 77.4187L171.421 74.7091L172.329 72.7217L178.305 75.4244L177.404 77.4187ZM167.439 72.8661L161.456 70.1565L162.357 68.1621L168.34 70.8717L167.439 72.8661Z" fill="#70DF00"/>
<path d="M52.1846 117.808L50.8779 116.047L53.5806 114.046L54.8873 115.806L52.1846 117.808ZM58.374 113.2L57.0742 111.439L62.349 107.533L63.6488 109.287L58.374 113.2ZM67.163 106.687L65.8632 104.927L71.138 101.02L72.4378 102.774L67.163 106.687ZM75.9589 100.168L74.6522 98.414L79.927 94.5009L81.2268 96.2614L75.9589 100.168ZM84.7754 93.655L83.4687 91.8944L88.7435 87.9882L90.0502 89.7488L84.7754 93.655ZM93.5644 87.1423L92.2577 85.3818L97.5325 81.4756L98.8392 83.2292L93.5644 87.1423ZM102.353 80.6228L101.054 78.8691L106.328 74.956L107.628 76.7166L102.353 80.6228ZM111.142 74.1101L109.843 72.3564L115.117 68.4434L116.417 70.2039L111.142 74.1101Z" fill="#70DF00"/>
<path d="M36.8418 182.172L0.344727 165.673V121.776L36.8418 138.268V182.172Z" fill="#414467"/>
<path d="M36.8418 182.172L73.3457 165.673V121.776L36.8418 138.268V182.172Z" fill="#4D4D8C"/>
<path d="M0.344727 121.776L36.8418 138.268L73.3457 121.776L36.8418 106.805L0.344727 121.776Z" fill="#5959A0"/>
<path d="M264.517 127.883L263.706 125.82L263.891 125.744L264.696 127.807L264.517 127.883ZM268.767 126.191L267.956 124.128L274.063 121.707L274.867 123.77L268.767 126.191ZM278.932 122.154L278.127 120.091L284.227 117.663L285.038 119.726L278.932 122.154ZM289.103 118.11L288.291 116.047L294.398 113.626L295.203 115.69L289.103 118.11ZM299.267 114.073L298.463 112.01L304.563 109.59L305.374 111.618L299.267 114.073ZM309.439 110.002L308.627 107.973L314.734 105.546L315.539 107.609L309.439 110.002ZM319.61 105.965L318.798 103.902L324.898 101.481L325.71 103.51L319.61 105.965ZM329.774 101.922L328.97 99.8928L335.07 97.4651L335.874 99.5283L329.774 101.922ZM339.918 97.9122L339.107 95.849L345.207 93.4282L346.018 95.457L339.918 97.9122ZM350.083 93.8684L349.278 91.8396L355.378 89.412L356.183 91.4751L350.083 93.8684ZM360.254 89.8315L359.442 87.7684L365.542 85.3476L366.354 87.4107L360.254 89.8315ZM370.418 85.7946L369.614 83.7315L375.714 81.3038L376.518 83.367L370.418 85.7946ZM380.59 81.7508L379.806 79.7427L385.906 77.322L386.717 79.3851L380.59 81.7508ZM390.809 77.714L390.004 75.6508L396.104 73.2301L396.909 75.2932L390.809 77.714ZM400.98 73.6702L400.169 71.6414L406.269 69.2138L407.08 71.277L400.98 73.6702ZM411.145 69.6333L410.34 67.5702L416.44 65.1494L417.245 67.2126L411.145 69.6333ZM421.316 65.5895L420.505 63.5608L426.605 61.1332L427.416 63.1963L421.316 65.5895ZM431.481 61.5527L430.676 59.4895L436.776 57.0688L437.581 59.1319L431.481 61.5527ZM441.652 57.5158L440.84 55.4526L446.947 53.025L447.752 55.0881L441.652 57.5158ZM451.816 53.472L451.012 51.4089L457.112 48.9881L457.923 51.0512L451.816 53.472ZM461.988 49.4351L461.176 47.372L467.283 44.9443L468.088 47.0075L461.988 49.4351Z" fill="#70DF00"/>
<path d="M301.111 188.085L227.106 154.649V65.6445L301.111 99.0812V188.085Z" fill="#414467"/>
<path d="M301.109 188.085L375.114 154.649V65.6445L301.109 99.0812V188.085Z" fill="#4D4D8C"/>
<path d="M227.106 65.6448L301.111 99.0815L375.116 65.6448L301.111 35.2822L227.106 65.6448Z" fill="#5959A0"/>
<path d="M423.545 166.313L417.555 163.631L418.449 161.636L424.439 164.318L423.545 166.313ZM413.559 161.843L407.569 159.16L408.463 157.166L414.453 159.848L413.559 161.843ZM403.573 157.372L397.583 154.69L398.478 152.696L404.467 155.378L403.573 157.372ZM393.56 152.902L387.57 150.22L388.464 148.219L394.454 150.908L393.56 152.902ZM383.575 148.432L377.585 145.75L378.479 143.749L384.469 146.431L383.575 148.432ZM373.617 143.962L367.627 141.28L368.521 139.279L374.511 141.961L373.617 143.962ZM363.631 139.485L357.641 136.803L358.535 134.808L364.525 137.491L363.631 139.485ZM353.673 135.015L347.683 132.333L348.577 130.338L354.567 133.02L353.673 135.015ZM343.687 130.545L337.697 127.863L338.591 125.868L344.581 128.55L343.687 130.545Z" fill="#70DF00"/>
<path d="M204.114 167.083L202.924 165.246L208.426 161.677L209.616 163.513L204.114 167.083ZM213.295 161.134L212.105 159.298L217.607 155.722L218.797 157.558L213.295 161.134ZM222.476 155.178L221.286 153.328L226.788 149.759L227.978 151.595L222.476 155.178ZM231.657 149.202L230.467 147.366L235.969 143.79L237.159 145.626L231.657 149.202ZM240.838 143.246L239.648 141.41L245.15 137.841L246.34 139.677L240.838 143.246ZM250.019 137.291L248.822 135.448L254.324 131.878L255.514 133.715L250.019 137.291ZM259.193 131.342L258.003 129.506L263.505 125.93L264.695 127.766L259.193 131.342Z" fill="#70DF00"/>
<path d="M178.814 261.004L128.198 238.13V177.268L178.814 200.134V261.004Z" fill="#414467"/>
<path d="M178.813 261.004L229.422 238.13V177.268L178.813 200.134V261.004Z" fill="#4D4D8C"/>
<path d="M128.198 177.268L178.814 200.135L229.423 177.268L178.814 156.499L128.198 177.268Z" fill="#5959A0"/>
<path d="M451.83 208.318L401.221 185.452V124.582L451.83 147.449V208.318Z" fill="#44486C"/>
<path d="M451.829 208.318L502.444 185.452V124.582L451.829 147.449V208.318Z" fill="#434370"/>
<path d="M401.221 124.581L451.83 147.448L502.445 124.581L451.83 103.819L401.221 124.581Z" fill="#5353A8"/>
<path d="M496.875 301.029C495.383 302.549 493.32 303.863 491.201 303.587C490.356 303.484 489.517 303.333 488.684 303.147C488.02 303.037 487.389 302.776 486.841 302.384C486.569 302.174 486.363 301.889 486.251 301.564C486.139 301.239 486.124 300.888 486.209 300.555C486.518 299.633 487.639 299.386 488.464 298.89C489.482 298.265 490.108 297.15 490.913 296.25C492.749 294.186 495.218 294.001 497.556 292.9C498.095 293.371 498.595 293.887 499.048 294.441C499.894 295.39 499.97 295.596 499.488 296.8C498.9 298.366 498.012 299.802 496.875 301.029Z" fill="#BFA296"/>
<path d="M512.906 231.198L532.919 261.678L529.907 278.657L498.911 300.135L493.08 295.032L513.8 268.837L512.996 252.284L512.906 231.198Z" fill="#1B1E25"/>
</svg>
