<svg width="249" height="86" viewBox="0 0 249 86" fill="none" xmlns="http://www.w3.org/2000/svg">
<path d="M66.0458 2.52091C65.993 2.05162 66.5716 1.78898 66.8902 2.13764L70.4172 5.99833C70.5596 6.15426 70.7863 6.20073 70.9786 6.11343L75.7402 3.95205C76.1703 3.75685 76.5988 4.22597 76.3657 4.63665L73.7839 9.18407C73.6796 9.36773 73.7054 9.59765 73.8479 9.75357L77.3749 13.6143C77.6934 13.9629 77.3797 14.5155 76.9171 14.4206L71.7944 13.3704C71.5875 13.328 71.3768 13.4236 71.2725 13.6073L68.6907 18.1547C68.4576 18.5654 67.8351 18.4378 67.7823 17.9685L67.1982 12.772C67.1746 12.5621 67.0185 12.3913 66.8116 12.3489L61.689 11.2986C61.2263 11.2038 61.1553 10.5724 61.5854 10.3772L66.347 8.21578C66.5393 8.12849 66.6536 7.92729 66.63 7.71741L66.0458 2.52091Z" fill="#8F8FFE"/>
<path d="M6.82624 36.5134C6.77349 36.0441 7.35208 35.7815 7.67061 36.1302L10.0032 38.6834C10.1456 38.8393 10.3723 38.8858 10.5646 38.7985L13.7136 37.3691C14.1437 37.1739 14.5722 37.643 14.3391 38.0537L12.6316 41.0611C12.5273 41.2447 12.5532 41.4746 12.6956 41.6306L15.0282 44.1838C15.3467 44.5324 15.033 45.085 14.5704 44.9901L11.1825 44.2956C10.9756 44.2532 10.765 44.3488 10.6607 44.5325L8.95324 47.5398C8.72007 47.9505 8.09761 47.8229 8.04485 47.3536L7.65852 43.917C7.63493 43.7071 7.47887 43.5363 7.27198 43.4939L3.88416 42.7993C3.42153 42.7045 3.35055 42.073 3.78057 41.8778L6.92962 40.4484C7.12194 40.3611 7.23617 40.1599 7.21258 39.9501L6.82624 36.5134Z" fill="#8F8FFE"/>
<path d="M195.826 8.51343C195.773 8.04413 196.352 7.7815 196.671 8.13016L199.003 10.6834C199.146 10.8393 199.372 10.8858 199.565 10.7985L202.714 9.36907C203.144 9.17388 203.572 9.643 203.339 10.0537L201.632 13.0611C201.527 13.2447 201.553 13.4746 201.696 13.6306L204.028 16.1838C204.347 16.5324 204.033 17.085 203.57 16.9901L200.183 16.2956C199.976 16.2532 199.765 16.3488 199.661 16.5325L197.953 19.5398C197.72 19.9505 197.098 19.8229 197.045 19.3536L196.659 15.917C196.635 15.7071 196.479 15.5363 196.272 15.4939L192.884 14.7993C192.422 14.7045 192.351 14.073 192.781 13.8778L195.93 12.4484C196.122 12.3611 196.236 12.1599 196.213 11.9501L195.826 8.51343Z" fill="#81FC05"/>
<path d="M189.716 38.0097C189.664 37.5404 190.242 37.2778 190.561 37.6264L192.296 39.5259C192.439 39.6818 192.665 39.7283 192.858 39.641L195.2 38.5776C195.63 38.3824 196.059 38.8515 195.826 39.2622L194.555 41.4995C194.451 41.6832 194.477 41.9131 194.62 42.0691L196.355 43.9685C196.673 44.3172 196.36 44.8698 195.897 44.7749L193.377 44.2582C193.17 44.2158 192.959 44.3114 192.855 44.4951L191.584 46.7324C191.351 47.1431 190.729 47.0155 190.676 46.5462L190.389 43.9895C190.365 43.7796 190.209 43.6088 190.002 43.5664L187.482 43.0497C187.019 42.9548 186.948 42.3234 187.378 42.1282L189.721 41.0648C189.913 40.9775 190.027 40.7763 190.004 40.5664L189.716 38.0097Z" fill="#8F8FFE"/>
<path d="M132.936 69.0172C132.883 68.5479 133.462 68.2852 133.78 68.6339L136.71 71.8409C136.853 71.9968 137.079 72.0433 137.272 71.956L141.227 70.1606C141.657 69.9654 142.086 70.4345 141.852 70.8452L139.708 74.6226C139.603 74.8062 139.629 75.0361 139.772 75.1921L142.702 78.399C143.02 78.7477 142.706 79.3002 142.244 79.2054L137.988 78.333C137.782 78.2906 137.571 78.3862 137.467 78.5699L135.322 82.3473C135.089 82.758 134.466 82.6303 134.414 82.161L133.928 77.8445C133.905 77.6346 133.749 77.4638 133.542 77.4214L129.287 76.549C128.824 76.4541 128.753 75.8227 129.183 75.6275L133.138 73.8321C133.331 73.7448 133.445 73.5436 133.421 73.3337L132.936 69.0172Z" fill="#81FC05"/>
<path d="M129 13.9207C129.785 9.70147 130.087 5.39166 134.957 4.52216C135.871 4.35892 140.783 4.53175 141.181 3.47101C142.393 0.238537 138.746 -2.59379 142.356 -5" stroke="#70DF00" stroke-width="4.875" stroke-linecap="round"/>
<path d="M48.7267 77C44.1959 80.417 39.621 83.7307 35 87.0168" stroke="#7272CB" stroke-width="4.875" stroke-linecap="round"/>
<path d="M18.9359 14.1619C16.7832 11.5786 14.952 8.73279 13 6" stroke="#70DF00" stroke-width="4.875" stroke-linecap="round"/>
<path d="M223 45.1298C226.473 40.81 231.433 37.5567 235.614 34" stroke="#7272CB" stroke-width="4.875" stroke-linecap="round"/>
<path d="M202 73C204.143 74.0024 210.127 75.6096 209.09 79.142C208.465 81.2703 208.072 81.8427 210.1 83.4084C211.352 84.3748 213.31 85.1892 214.119 86.6237C214.864 87.9439 214.799 90.0603 214.985 91.5497" stroke="#7272CB" stroke-width="4.875" stroke-linecap="round"/>
</svg>
