<svg width="41" height="44" viewBox="0 0 41 44" fill="none" xmlns="http://www.w3.org/2000/svg">
<path d="M38.9385 21.394C38.9385 23.6051 38.954 25.8163 38.9343 28.027C38.9123 30.4994 37.852 32.4248 35.7724 33.7402C31.9632 36.1494 28.1324 38.5247 24.3151 40.9213C21.7787 42.5138 19.2678 42.512 16.7274 40.9037C12.8733 38.4639 8.99925 36.056 5.13044 33.6397C2.94439 32.2744 1.83617 30.3069 1.83375 27.7207C1.82973 23.4094 1.83073 19.0979 1.83335 14.7862C1.83496 12.1776 2.93936 10.1819 5.16968 8.84054C9.09383 6.48059 13.021 4.1255 16.9578 1.78698C19.2205 0.442944 21.5285 0.437489 23.786 1.77101C27.7601 4.11842 31.715 6.49858 35.6617 8.89209C37.845 10.2161 38.93 12.1964 38.9371 14.7609C38.9433 16.9719 38.9385 19.1828 38.9385 21.394Z" fill="#505B60"/>
<path d="M35.6384 11.8506C35.6524 12.6582 35.3655 13.0862 34.9085 13.3642C33.106 14.4608 31.2874 15.5307 29.4768 16.6137C29.2116 16.7722 28.9679 16.7609 28.7041 16.602C26.9443 15.542 25.1697 14.5063 23.4222 13.4259C22.2852 12.7229 22.2405 11.441 23.3636 10.7291C25.114 9.61921 26.9157 8.59096 28.6964 7.52977C28.9975 7.35024 29.2985 7.39775 29.5821 7.56777C31.2809 8.58672 32.9834 9.5998 34.6708 10.6375C35.1976 10.9614 35.6207 11.3965 35.6384 11.8506Z" fill="#70DF00"/>
<path d="M19.9892 10.9765C19.3569 10.9949 18.4978 10.7652 17.7068 10.3011C16.0803 9.34701 14.4594 8.38306 12.8408 7.41567C12.3305 7.11059 12.3277 7.02932 12.8219 6.73718C14.5558 5.71218 16.2693 4.64855 18.0406 3.69329C19.6068 2.84882 21.2562 2.97983 22.7824 3.79883C24.4905 4.71527 26.128 5.76494 27.79 6.76751C28.2633 7.05318 28.2553 7.11221 27.7687 7.40111C26.1153 8.38286 24.4605 9.36197 22.8037 10.3377C22.0249 10.796 21.1721 10.9702 19.9892 10.9765Z" fill="#8F8FFE"/>
<path d="M17.9151 12.1844C17.9376 12.7145 17.6363 13.1204 17.2033 13.3839C15.3867 14.4883 13.5516 15.5625 11.7225 16.6465C11.4752 16.7929 11.2406 16.751 10.9993 16.6075C9.26703 15.5762 7.51827 14.5722 5.80171 13.5153C4.64539 12.8036 4.46287 11.4422 5.81559 10.6594C7.54483 9.65885 9.2457 8.60918 10.9548 7.57366C11.2553 7.3915 11.5281 7.3917 11.8278 7.57184C13.5397 8.60069 15.2567 9.62125 16.97 10.6477C17.5365 10.9871 17.9289 11.4422 17.9151 12.1844Z" fill="#70DF00"/>
<path d="M20.2763 20.8643C19.3899 20.8938 18.4716 20.6259 17.6164 20.1162C16.0266 19.1688 14.4384 18.2188 12.841 17.2844C12.4568 17.0598 12.3918 16.9165 12.8261 16.6643C14.537 15.6705 16.2085 14.6044 17.9462 13.6613C19.5758 12.777 21.2823 12.8514 22.8908 13.7375C24.5746 14.6651 26.1996 15.7006 27.8596 16.673C28.2429 16.8974 28.244 17.0562 27.8711 17.2751C26.1334 18.2955 24.4019 19.3269 22.6622 20.3439C21.9623 20.7531 21.1873 20.8748 20.2763 20.8643Z" fill="#8F8FFE"/>
<path d="M11.3928 35.2007C10.7609 34.9554 10.2838 34.6152 9.78813 34.3123C8.38349 33.4547 6.91404 32.6974 5.60781 31.6869C4.43539 30.7798 3.83067 29.5571 3.81779 28.0652C3.8035 26.4085 3.81316 24.7515 3.81437 23.0945C3.81457 22.8551 3.78237 22.5302 4.177 22.7686C5.97768 23.856 7.85805 24.8208 9.54 26.0935C10.7342 26.997 11.3318 28.2846 11.3793 29.7683C11.4365 31.5517 11.3928 33.3383 11.3928 35.2007Z" fill="#8F8FFE"/>
<path d="M11.9621 21.7281C11.9621 20.8812 11.9732 20.0339 11.9575 19.1874C11.9498 18.7843 12.0336 18.6116 12.4445 18.8635C14.1315 19.8968 15.874 20.8418 17.4972 21.9766C18.8356 22.9122 19.5078 24.2425 19.5355 25.8738C19.5627 27.475 19.5448 29.0772 19.54 30.6788C19.5383 31.235 19.454 31.2841 18.9809 30.9972C17.4457 30.0667 15.905 29.1441 14.3848 28.1887C12.7496 27.161 11.9158 25.6763 11.9597 23.7165C11.9746 23.0541 11.9621 22.3908 11.9621 21.7281Z" fill="#8F8FFE"/>
<path d="M28.716 21.7972C28.716 22.4969 28.7136 23.1964 28.7166 23.8961C28.7244 25.6744 27.9742 27.0508 26.5181 28.0398C24.9403 29.1113 23.2769 30.0434 21.6485 31.0322C21.2965 31.2459 21.1549 31.1846 21.1508 30.7722C21.1325 28.9318 21.0464 27.0878 21.2164 25.2533C21.3563 23.7443 22.1733 22.6026 23.4301 21.8073C25.009 20.8082 26.6225 19.8646 28.2129 18.8839C28.6405 18.6203 28.7311 18.761 28.7214 19.2013C28.7029 20.0662 28.716 20.9319 28.716 21.7972Z" fill="#70DF00"/>
<path d="M29.3868 35.2175C29.2536 34.7485 29.2638 34.3781 29.2837 34.0132C29.3659 32.5066 29.2155 30.9972 29.3415 29.4916C29.4691 27.9662 30.1732 26.7532 31.4076 25.8893C33.0141 24.7655 34.7429 23.8345 36.4136 22.8119C36.7157 22.6271 36.8674 22.6516 36.8704 23.0618C36.8841 24.9013 36.9612 26.7429 36.8312 28.5792C36.7453 29.7925 36.1782 30.8159 35.2322 31.5554C33.4242 32.969 31.3698 33.9924 29.3868 35.2175Z" fill="#70DF00"/>
<path d="M28.6946 32.6266C28.6946 33.4547 28.6876 34.2828 28.6977 35.1107C28.7023 35.4744 28.584 35.7435 28.2624 35.9355C26.6583 36.8944 25.0603 37.8633 23.4576 38.8246C23.2858 38.9277 23.1048 39.0221 22.9175 39.0914C21.986 39.4353 21.1571 38.935 21.1331 37.9449C21.0898 36.1426 21.1136 34.3386 21.1035 32.5354C21.1017 32.1907 21.3092 31.9918 21.5648 31.8369C23.2413 30.8216 24.9077 29.7883 26.6066 28.812C27.6909 28.1892 28.6373 28.7714 28.694 30.0321C28.6956 30.0689 28.6946 30.1057 28.6946 30.1425C28.6948 30.9706 28.6946 31.7985 28.6946 32.6266Z" fill="#8F8FFE"/>
<path d="M19.5517 35.2678C19.5517 36.0783 19.5225 36.89 19.558 37.6991C19.624 39.2089 18.3606 39.4689 17.4401 38.9508C16.8028 38.5917 16.1824 38.2021 15.5555 37.8243C14.5367 37.2105 13.523 36.5876 12.4979 35.9843C12.1433 35.7757 11.9866 35.5029 11.9898 35.0871C12.0025 33.4479 11.9821 31.808 11.9991 30.1688C12.0139 28.7241 12.9489 28.1657 14.1994 28.8873C15.8646 29.8482 17.4949 30.8706 19.1476 31.8541C19.4736 32.0482 19.5825 32.3003 19.5737 32.6707C19.5535 33.536 19.5672 34.4021 19.5672 35.2678H19.5517Z" fill="#70DF00"/>
<path d="M3.80685 18.6774C3.80685 17.8301 3.79658 16.9824 3.80946 16.1351C3.82697 14.9781 4.58604 14.4577 5.652 14.8748C5.97398 15.0008 6.2853 15.1645 6.58212 15.343C7.99421 16.1928 9.39604 17.0595 10.8099 17.9064C11.1673 18.1205 11.4016 18.3687 11.3974 18.8184C11.3827 20.3656 11.3847 21.9128 11.38 23.46C11.3796 23.552 11.3809 23.6444 11.3736 23.7362C11.2551 25.2668 10.5387 25.7021 9.18253 25.0196C7.43014 24.1377 5.81561 23.0156 4.12158 22.0311C3.84246 21.8689 3.79075 21.6249 3.79356 21.3305C3.80161 20.4462 3.79638 19.5619 3.79638 18.6774H3.80685Z" fill="#70DF00"/>
<path d="M36.9002 18.7113C36.9002 19.5768 36.897 20.4425 36.9021 21.3078C36.9039 21.6232 36.8228 21.8819 36.5324 22.0514C34.9044 23.0022 33.3367 24.0555 31.6691 24.939C31.5884 24.9818 31.5065 25.0229 31.4235 25.0615C30.1467 25.6532 29.3776 25.2143 29.3397 23.8099C29.2942 22.1175 29.3158 20.4235 29.3047 18.7303C29.3025 18.3771 29.4814 18.1478 29.7678 17.975C31.3203 17.0383 32.8707 16.098 34.4244 15.1632C34.5963 15.0599 34.779 14.9707 34.9657 14.8977C36.1168 14.4481 36.8518 14.9333 36.8759 16.171C36.8924 17.0175 36.8791 17.8646 36.8791 18.7113H36.9002Z" fill="#8F8FFE"/>
</svg>
