<svg width="213" height="54" viewBox="0 0 213 54" fill="none" xmlns="http://www.w3.org/2000/svg">
<path d="M45.9732 26.6597C45.9732 29.1206 45.9901 31.5814 45.9685 34.0418C45.9446 36.7933 44.7864 38.9362 42.5148 40.4C38.354 43.0814 34.1696 45.7249 29.9999 48.392C27.2294 50.1644 24.4868 50.1623 21.7118 48.3725C17.5019 45.6572 13.2703 42.9774 9.04437 40.2882C6.65653 38.7688 5.44601 36.5791 5.44338 33.7009C5.43898 28.9028 5.44008 24.1044 5.44294 19.3058C5.44469 16.4027 6.65104 14.1817 9.08724 12.6888C13.3736 10.0624 17.6633 7.44136 21.9635 4.83878C24.4351 3.34298 26.9562 3.33691 29.422 4.82101C33.7629 7.43349 38.0829 10.0824 42.3939 12.7462C44.7787 14.2197 45.9639 16.4236 45.9716 19.2777C45.9784 21.7383 45.9732 24.1989 45.9732 26.6597Z" fill="#505B60"/>
<path d="M42.3686 16.0388C42.384 16.9376 42.0705 17.414 41.5713 17.7233C39.6025 18.9437 37.616 20.1344 35.6383 21.3398C35.3486 21.5162 35.0824 21.5036 34.7942 21.3267C32.872 20.147 30.9336 18.9944 29.0248 17.792C27.7828 17.0096 27.734 15.5829 28.9608 14.7907C30.8727 13.5554 32.8407 12.4111 34.7859 11.2301C35.1147 11.0303 35.4436 11.0831 35.7533 11.2724C37.609 12.4064 39.4686 13.5338 41.3117 14.6888C41.8872 15.0492 42.3492 15.5334 42.3686 16.0388Z" fill="#70DF00"/>
<path d="M25.2748 15.066C24.5841 15.0865 23.6457 14.8309 22.7817 14.3143C21.0051 13.2525 19.2345 12.1797 17.4665 11.1031C16.9091 10.7635 16.906 10.6731 17.4459 10.348C19.3398 9.20722 21.2115 8.0235 23.1463 6.96037C24.8571 6.02055 26.6587 6.16635 28.3258 7.07783C30.1916 8.09775 31.9802 9.26595 33.7957 10.3817C34.3127 10.6996 34.3039 10.7653 33.7724 11.0869C31.9664 12.1795 30.1588 13.2691 28.3491 14.355C27.4984 14.8651 26.5669 15.059 25.2748 15.066Z" fill="#8F8FFE"/>
<path d="M23.0093 16.4102C23.0339 17.0002 22.7048 17.452 22.2318 17.7452C20.2475 18.9743 18.2431 20.1698 16.2452 21.3762C15.975 21.5391 15.7187 21.4925 15.4551 21.3328C13.563 20.1851 11.6528 19.0677 9.77779 17.8914C8.51473 17.0994 8.31536 15.5843 9.79295 14.7131C11.6818 13.5995 13.5397 12.4313 15.4066 11.2789C15.7348 11.0762 16.0328 11.0764 16.3601 11.2769C18.2301 12.4219 20.1055 13.5577 21.977 14.7C22.5958 15.0778 23.0245 15.5843 23.0093 16.4102Z" fill="#70DF00"/>
<path d="M25.5883 26.0703C24.62 26.1031 23.617 25.805 22.6828 25.2378C20.9463 24.1834 19.2115 23.1261 17.4666 22.0862C17.047 21.8362 16.976 21.6767 17.4503 21.3961C19.3192 20.29 21.145 19.1036 23.0431 18.054C24.8231 17.0698 26.6872 17.1526 28.4441 18.1388C30.2833 19.1711 32.0583 20.3235 33.8716 21.4058C34.2903 21.6555 34.2914 21.8322 33.8841 22.0758C31.986 23.2114 30.0947 24.3594 28.1944 25.4911C27.4299 25.9465 26.5834 26.082 25.5883 26.0703Z" fill="#8F8FFE"/>
<path d="M15.885 42.0255C15.1948 41.7525 14.6736 41.3739 14.1322 41.0368C12.5979 40.0824 10.9928 39.2395 9.56599 38.115C8.28535 37.1054 7.62481 35.7446 7.61074 34.0843C7.59513 32.2404 7.60568 30.3963 7.607 28.5522C7.60722 28.2858 7.57205 27.9243 8.00311 28.1895C9.97001 29.3998 12.024 30.4735 13.8612 31.8899C15.1655 32.8954 15.8184 34.3284 15.8703 35.9797C15.9327 37.9644 15.885 39.9528 15.885 42.0255Z" fill="#8F8FFE"/>
<path d="M16.5069 27.0317C16.5069 26.0892 16.519 25.1462 16.5018 24.2041C16.4935 23.7555 16.5849 23.5633 17.0338 23.8437C18.8765 24.9936 20.7799 26.0453 22.5529 27.3082C24.0149 28.3495 24.7491 29.83 24.7794 31.6455C24.8091 33.4275 24.7895 35.2107 24.7842 36.9931C24.7825 37.6121 24.6904 37.6668 24.1736 37.3475C22.4966 36.3118 20.8137 35.2851 19.1532 34.2218C17.367 33.0781 16.4563 31.4257 16.5043 29.2446C16.5205 28.5075 16.5069 27.7692 16.5069 27.0317Z" fill="#8F8FFE"/>
<path d="M34.8069 27.1084C34.8069 27.8872 34.8042 28.6657 34.8075 29.4444C34.8161 31.4235 33.9966 32.9553 32.406 34.056C30.6827 35.2485 28.8657 36.2857 27.087 37.3862C26.7025 37.624 26.5478 37.5559 26.5434 37.0969C26.5234 35.0487 26.4293 32.9965 26.615 30.9548C26.7678 29.2754 27.6603 28.0048 29.033 27.1197C30.7577 26.0077 32.5201 24.9577 34.2573 23.8662C34.7244 23.5728 34.8233 23.7294 34.8128 24.2194C34.7926 25.182 34.8069 26.1454 34.8069 27.1084Z" fill="#70DF00"/>
<path d="M35.5396 42.0442C35.3941 41.5222 35.4053 41.11 35.427 40.7038C35.5167 39.0271 35.3525 37.3473 35.4901 35.6717C35.6295 33.9741 36.3986 32.6241 37.747 31.6627C39.5017 30.4119 41.3902 29.3758 43.2151 28.2377C43.545 28.0321 43.7107 28.0593 43.714 28.5158C43.729 30.5631 43.8132 32.6126 43.6712 34.6563C43.5773 36.0065 42.9579 37.1455 41.9245 37.9685C39.9497 39.5417 37.7056 40.6807 35.5396 42.0442Z" fill="#70DF00"/>
<path d="M34.7837 39.1608C34.7837 40.0824 34.776 41.004 34.787 41.9253C34.792 42.3301 34.6628 42.6296 34.3115 42.8433C32.5594 43.9105 30.8138 44.9887 29.0632 46.0586C28.8755 46.1733 28.6779 46.2784 28.4732 46.3556C27.4557 46.7383 26.5503 46.1814 26.5241 45.0796C26.4769 43.0737 26.5028 41.0661 26.4918 39.0593C26.4899 38.6757 26.7165 38.4543 26.9956 38.2819C28.8269 37.152 30.6472 36.002 32.5029 34.9155C33.6872 34.2222 34.721 34.8702 34.783 36.2733C34.7848 36.3143 34.7837 36.3552 34.7837 36.3962C34.7839 37.3178 34.7837 38.2392 34.7837 39.1608Z" fill="#8F8FFE"/>
<path d="M24.797 42.1001C24.797 43.0021 24.7651 43.9055 24.8038 44.8059C24.8759 46.4862 23.4959 46.7756 22.4905 46.1989C21.7943 45.7993 21.1166 45.3657 20.4319 44.9452C19.319 44.2621 18.2118 43.5689 17.0921 42.8975C16.7048 42.6653 16.5335 42.3617 16.537 41.8989C16.5509 40.0746 16.5287 38.2496 16.5472 36.4253C16.5634 34.8175 17.5847 34.196 18.9506 34.9991C20.7696 36.0685 22.5503 37.2063 24.3556 38.3009C24.7117 38.5169 24.8306 38.7975 24.821 39.2097C24.799 40.1727 24.8139 41.1366 24.8139 42.1001H24.797Z" fill="#70DF00"/>
<path d="M7.59849 23.6366C7.59849 22.6936 7.58728 21.7502 7.60134 20.8072C7.62047 19.5195 8.44961 18.9404 9.61396 19.4046C9.96567 19.5447 10.3057 19.727 10.6299 19.9257C12.1724 20.8713 13.7036 21.8359 15.248 22.7784C15.6384 23.0167 15.8943 23.293 15.8897 23.7934C15.8736 25.5153 15.8758 27.2372 15.8708 28.9592C15.8703 29.0615 15.8716 29.1644 15.8637 29.2665C15.7343 30.97 14.9517 31.4544 13.4704 30.6948C11.5562 29.7134 9.79267 28.4646 7.94228 27.3689C7.63739 27.1884 7.5809 26.9168 7.58398 26.5892C7.59277 25.6051 7.58706 24.621 7.58706 23.6366H7.59849Z" fill="#70DF00"/>
<path d="M43.7468 23.6741C43.7468 24.6373 43.7432 25.6007 43.7487 26.5637C43.7507 26.9147 43.6621 27.2027 43.3449 27.3913C41.5666 28.4495 39.8543 29.6217 38.0327 30.605C37.9445 30.6527 37.8551 30.6983 37.7645 30.7413C36.3698 31.3999 35.5297 30.9114 35.4883 29.3483C35.4387 27.4649 35.4622 25.5796 35.4501 23.6952C35.4477 23.3021 35.6431 23.047 35.9559 22.8546C37.6518 21.8122 39.3452 20.7657 41.0424 19.7253C41.2301 19.6103 41.4297 19.5111 41.6337 19.4299C42.891 18.9295 43.6938 19.4695 43.7202 20.8469C43.7382 21.789 43.7237 22.7318 43.7237 23.6741H43.7468Z" fill="#8F8FFE"/>
<path d="M74.6107 18.7364L69.5719 29.6156C68.6239 31.444 67.8374 32.6891 67.2124 33.3511C66.3525 34.254 65.4557 34.7056 64.5221 34.7056H64.2689C63.3351 34.7056 62.4275 34.2578 61.5454 33.3625C60.8104 32.6101 60.0276 31.3499 59.1969 29.5819L54.1915 18.7364H59.5167L64.401 28.8934L69.2851 18.7364H74.6107Z" fill="#70DF00"/>
<path d="M88.1712 30.6651C88.4281 30.6651 88.6119 30.5902 88.7222 30.4394C88.8324 30.2891 88.8878 30.1197 88.8878 29.9316V29.2543C88.8878 29.0665 88.8324 28.8973 88.7222 28.7465C88.6119 28.5962 88.4281 28.5208 88.1712 28.5208H79.88C79.1005 28.5208 78.4356 28.2387 77.8843 27.6744C77.333 27.1101 77.0571 26.4295 77.0571 25.6316V21.6367C77.0571 20.8393 77.333 20.1547 77.8843 19.5827C78.4356 19.0184 79.1005 18.7363 79.88 18.7363H92.6475V22.7764H81.8864C81.629 22.7764 81.4453 22.8517 81.3352 23.0023C81.2248 23.1528 81.1699 23.3184 81.1699 23.4988V24.2098C81.1699 24.3829 81.2248 24.5446 81.3352 24.6949C81.4453 24.8457 81.629 24.9208 81.8864 24.9208H90.0455C90.854 24.9208 91.5449 25.2181 92.1181 25.8125C92.6914 26.3993 92.9783 27.1065 92.9783 27.934V31.7035C92.9783 32.531 92.6914 33.2384 92.1181 33.825C91.5449 34.412 90.854 34.7054 90.0455 34.7054H77.3882V30.6651H88.1712Z" fill="#70DF00"/>
<path d="M96.7479 23.7131C96.7479 22.3363 97.2221 21.1627 98.1703 20.1921C99.1259 19.2214 100.272 18.7363 101.61 18.7363H114.444V22.7764H103.815C103.029 22.7764 102.481 23.0887 102.173 23.7131C101.93 24.3377 101.809 25.0901 101.809 25.9703V27.4825C101.809 28.3553 101.93 29.1039 102.173 29.7285C102.481 30.3528 103.029 30.6649 103.815 30.6649H114.444V34.7052H101.61C100.272 34.7052 99.1259 34.2201 98.1703 33.2495C97.2221 32.2791 96.7479 31.1091 96.7479 29.7397V23.7131Z" fill="#8F8FFE"/>
<path d="M130.849 18.725H135.91V29.7399C135.91 31.1092 135.436 32.2792 134.487 33.2497C133.532 34.2203 132.385 34.7054 131.047 34.7054H123.076C121.738 34.7054 120.596 34.2203 119.647 33.2497C118.691 32.2792 118.214 31.1092 118.214 29.7399V18.725H123.274V27.4827C123.274 28.3555 123.396 29.104 123.638 29.7286C123.947 30.353 124.495 30.6651 125.281 30.6651H128.843C129.629 30.6651 130.176 30.353 130.485 29.7286C130.728 29.104 130.849 28.3555 130.849 27.4827V18.725Z" fill="#8F8FFE"/>
<path d="M151.025 28.4757C150.716 28.2651 150.194 28.1598 149.459 28.1598H144.74V30.6649H149.459C150.194 30.6649 150.716 30.5562 151.025 30.3378C151.4 30.0597 151.587 29.751 151.587 29.4123C151.587 29.0663 151.4 28.7542 151.025 28.4757ZM144.74 25.1691H149.459C150.304 25.1691 150.856 25.0374 151.113 24.774C151.385 24.5559 151.521 24.2774 151.521 23.9388C151.521 23.5853 151.385 23.3031 151.113 23.0925C150.856 22.8819 150.304 22.7764 149.459 22.7764H145.821C145.527 22.7764 145.273 22.8405 145.06 22.9681C144.847 23.0964 144.74 23.2995 144.74 23.5776V25.1691ZM154.917 26.5006C156.071 27.4112 156.648 28.6073 156.648 30.0894V30.1798C156.648 31.4288 156.214 32.4973 155.347 33.3849C154.479 34.2651 153.436 34.7052 152.216 34.7052H139.68V21.6366C139.68 20.8315 139.959 20.1468 140.518 19.5828C141.069 19.0185 141.734 18.7363 142.513 18.7363H152.216C153.568 18.7363 154.656 19.1877 155.479 20.0904C156.214 20.9031 156.582 21.8888 156.582 23.0475C156.582 24.522 156.026 25.6731 154.917 26.5006Z" fill="#8F8FFE"/>
<path d="M159.866 18.7364H164.927V34.7056H159.866V18.7364Z" fill="#8F8FFE"/>
<path d="M181.53 18.7364C182.868 18.7364 184.015 19.2215 184.97 20.1922C185.919 21.1628 186.393 22.3364 186.393 23.7132V34.6941H181.332V25.9704C181.332 25.0902 181.214 24.338 180.979 23.7132C180.663 23.0888 180.112 22.7765 179.326 22.7765H175.764C174.978 22.7765 174.43 23.0888 174.121 23.7132C173.879 24.338 173.757 25.0902 173.757 25.9704V34.7056H168.697V23.7132C168.697 22.3364 169.175 21.1628 170.13 20.1922C171.078 19.2215 172.221 18.7364 173.559 18.7364H181.53Z" fill="#8F8FFE"/>
<path d="M199.138 25.2142H207.859V29.9655C207.859 31.2597 207.385 32.3543 206.436 33.2496C205.488 34.2202 204.341 34.7056 202.996 34.7056H195.025C193.687 34.7056 192.544 34.2202 191.596 33.2496C190.64 32.2792 190.163 31.1092 190.163 29.7398V23.7132C190.163 22.3364 190.64 21.1628 191.596 20.1922C192.544 19.2215 193.687 18.7364 195.025 18.7364H205.797V22.7765H197.23C196.377 22.7765 195.83 23.0888 195.587 23.7132C195.345 24.3378 195.223 25.0902 195.223 25.9704V27.4828C195.223 28.3554 195.345 29.1042 195.587 29.7286C195.903 30.3529 196.451 30.6652 197.23 30.6652H200.791C201.578 30.6652 202.129 30.3905 202.445 29.8413C202.68 29.2923 202.798 28.8747 202.798 28.5887H199.138V25.2142Z" fill="#8F8FFE"/>
</svg>
