<svg width="195" height="50" viewBox="0 0 195 50" fill="none" xmlns="http://www.w3.org/2000/svg">
<path d="M42.0881 24.4068C42.0881 26.6597 42.1036 28.9125 42.0839 31.165C42.062 33.684 41.0017 35.6458 38.9221 36.9859C35.1128 39.4407 31.282 41.8608 27.4648 44.3026C24.9283 45.9251 22.4175 45.9232 19.8771 44.2846C16.0229 41.7988 12.1489 39.3455 8.2801 36.8836C6.09404 35.4925 4.98582 33.4879 4.98341 30.8529C4.97938 26.4603 4.98039 22.0674 4.98301 17.6743C4.98462 15.0165 6.08902 12.9832 8.31934 11.6165C12.2435 9.21203 16.1707 6.8125 20.1075 4.42986C22.3702 3.06047 24.6782 3.0549 26.9357 4.41359C30.9098 6.80529 34.8647 9.23037 38.8114 11.669C40.9946 13.018 42.0797 15.0357 42.0867 17.6486C42.093 19.9013 42.0881 22.1539 42.0881 24.4068Z" fill="#505B60"/>
<path d="M38.7881 14.6834C38.8022 15.5063 38.5153 15.9423 38.0582 16.2256C36.2558 17.3428 34.4372 18.4329 32.6266 19.5364C32.3614 19.6979 32.1177 19.6863 31.8539 19.5244C30.094 18.4444 28.3195 17.3892 26.572 16.2884C25.435 15.5722 25.3903 14.266 26.5134 13.5407C28.2638 12.4099 30.0655 11.3622 31.8462 10.281C32.1473 10.0981 32.4483 10.1465 32.7319 10.3197C34.4307 11.3579 36.1332 12.3901 37.8206 13.4474C38.3474 13.7774 38.7704 14.2207 38.7881 14.6834Z" fill="#70DF00"/>
<path d="M23.1389 13.7928C22.5066 13.8116 21.6475 13.5776 20.8564 13.1046C19.23 12.1326 17.609 11.1504 15.9905 10.1648C15.4801 9.85395 15.4773 9.77114 15.9716 9.47349C17.7054 8.42914 19.419 7.34545 21.1903 6.37217C22.7565 5.51177 24.4059 5.64524 25.932 6.47969C27.6402 7.41343 29.2776 8.48291 30.9397 9.50439C31.413 9.79545 31.4049 9.8556 30.9183 10.15C29.265 11.1502 27.6102 12.1478 25.9534 13.1419C25.1746 13.6089 24.3217 13.7864 23.1389 13.7928Z" fill="#8F8FFE"/>
<path d="M21.0648 15.0234C21.0874 15.5635 20.7861 15.9772 20.3531 16.2456C18.5365 17.3709 16.7014 18.4653 14.8723 19.5698C14.625 19.7189 14.3904 19.6763 14.1491 19.53C12.4168 18.4793 10.6681 17.4563 8.95149 16.3795C7.79517 15.6544 7.61265 14.2673 8.96537 13.4697C10.6946 12.4503 12.3955 11.3808 14.1046 10.3257C14.405 10.1401 14.6779 10.1403 14.9776 10.3239C16.6895 11.3721 18.4065 12.412 20.1198 13.4578C20.6863 13.8036 21.0787 14.2673 21.0648 15.0234Z" fill="#70DF00"/>
<path d="M23.4259 23.8671C22.5394 23.8972 21.6212 23.6243 20.7659 23.105C19.1761 22.1397 17.5879 21.1718 15.9905 20.2197C15.6063 19.9909 15.5413 19.8449 15.9756 19.588C17.6865 18.5754 19.358 17.4892 21.0957 16.5283C22.7253 15.6273 24.4318 15.7031 26.0403 16.6059C27.7241 17.551 29.3491 18.6061 31.0091 19.5968C31.3925 19.8255 31.3935 19.9872 31.0206 20.2103C29.2829 21.2499 27.5514 22.3008 25.8117 23.3369C25.1118 23.7538 24.3369 23.8779 23.4259 23.8671Z" fill="#8F8FFE"/>
<path d="M14.5426 38.474C13.9107 38.2241 13.4336 37.8774 12.9379 37.5689C11.5333 36.6951 10.0638 35.9235 8.75759 34.8939C7.58517 33.9697 6.98045 32.7239 6.96757 31.2039C6.95328 29.5159 6.96294 27.8276 6.96415 26.1393C6.96435 25.8955 6.93215 25.5644 7.32678 25.8073C9.12746 26.9153 11.0078 27.8983 12.6898 29.1949C13.8839 30.1155 14.4816 31.4274 14.5291 32.9391C14.5863 34.7561 14.5426 36.5764 14.5426 38.474Z" fill="#8F8FFE"/>
<path d="M15.1119 24.7473C15.1119 23.8844 15.123 23.0212 15.1073 22.1587C15.0996 21.748 15.1833 21.572 15.5943 21.8287C17.2813 22.8815 19.0238 23.8443 20.647 25.0005C21.9854 25.9538 22.6575 27.3092 22.6853 28.9713C22.7125 30.6027 22.6946 32.2351 22.6897 33.8669C22.6881 34.4336 22.6038 34.4836 22.1307 34.1914C20.5954 33.2432 19.0548 32.3033 17.5346 31.3298C15.8993 30.2828 15.0656 28.77 15.1095 26.7732C15.1244 26.0984 15.1119 25.4225 15.1119 24.7473Z" fill="#8F8FFE"/>
<path d="M31.8654 24.8176C31.8654 25.5305 31.863 26.2432 31.866 26.9561C31.8739 28.768 31.1236 30.1703 29.6675 31.178C28.0898 32.2697 26.4263 33.2193 24.7979 34.2268C24.4459 34.4445 24.3043 34.3821 24.3002 33.9619C24.2819 32.0868 24.1958 30.208 24.3658 28.3389C24.5057 26.8014 25.3227 25.6382 26.5795 24.8279C28.1584 23.8099 29.7719 22.8485 31.3623 21.8493C31.7899 21.5807 31.8805 21.7241 31.8708 22.1727C31.8523 23.0539 31.8654 23.9359 31.8654 24.8176Z" fill="#70DF00"/>
<path d="M32.5362 38.4911C32.403 38.0132 32.4132 37.6359 32.4332 37.2641C32.5153 35.7291 32.3649 34.1912 32.4909 32.6572C32.6185 31.103 33.3226 29.8671 34.557 28.9869C36.1635 27.8419 37.8924 26.8933 39.563 25.8514C39.8651 25.6632 40.0168 25.6881 40.0198 26.106C40.0335 27.9803 40.1106 29.8566 39.9806 31.7276C39.8947 32.9637 39.3276 34.0064 38.3816 34.7599C36.5736 36.2002 34.5192 37.2429 32.5362 38.4911Z" fill="#70DF00"/>
<path d="M31.8442 35.8514C31.8442 36.6951 31.8371 37.5388 31.8472 38.3823C31.8518 38.7529 31.7335 39.0271 31.4119 39.2228C29.8078 40.1998 28.2098 41.1868 26.6072 42.1663C26.4353 42.2714 26.2544 42.3675 26.067 42.4382C25.1355 42.7886 24.3066 42.2788 24.2826 41.2701C24.2394 39.4337 24.2631 37.5957 24.2531 35.7585C24.2513 35.4073 24.4587 35.2046 24.7143 35.0468C26.3908 34.0123 28.0573 32.9596 29.7561 31.9648C30.8404 31.3302 31.7868 31.9234 31.8436 33.208C31.8452 33.2455 31.8442 33.283 31.8442 33.3204C31.8444 34.1642 31.8442 35.0077 31.8442 35.8514Z" fill="#8F8FFE"/>
<path d="M22.7015 38.5423C22.7015 39.3681 22.6723 40.1951 22.7077 41.0195C22.7738 42.5578 21.5104 42.8227 20.5899 42.2947C19.9526 41.9289 19.3322 41.532 18.7053 41.147C17.6864 40.5216 16.6728 39.887 15.6477 39.2723C15.2931 39.0597 15.1364 38.7819 15.1396 38.3581C15.1523 36.688 15.1319 35.0173 15.1488 33.3471C15.1637 31.8751 16.0987 31.3062 17.3492 32.0414C19.0144 33.0204 20.6447 34.0621 22.2974 35.0642C22.6234 35.262 22.7323 35.5188 22.7234 35.8962C22.7033 36.7778 22.717 37.6603 22.717 38.5423H22.7015Z" fill="#70DF00"/>
<path d="M6.95638 21.6391C6.95638 20.7758 6.94612 19.9121 6.959 19.0488C6.97651 17.87 7.73558 17.3398 8.80154 17.7647C9.12352 17.893 9.43483 18.0599 9.73166 18.2418C11.1437 19.1075 12.5456 19.9906 13.9595 20.8535C14.3169 21.0716 14.5511 21.3246 14.5469 21.7827C14.5322 23.3591 14.5342 24.9355 14.5296 26.5119C14.5292 26.6056 14.5304 26.6998 14.5231 26.7933C14.4046 28.3528 13.6882 28.7963 12.3321 28.1009C10.5797 27.2024 8.96514 26.0592 7.27112 25.056C6.992 24.8908 6.94028 24.6422 6.9431 24.3423C6.95115 23.4413 6.94592 22.5403 6.94592 21.6391H6.95638Z" fill="#70DF00"/>
<path d="M40.0499 21.6734C40.0499 22.5553 40.0467 23.4373 40.0517 24.3189C40.0535 24.6403 39.9724 24.9039 39.682 25.0765C38.054 26.0453 36.4864 27.1185 34.8187 28.0186C34.738 28.0623 34.6561 28.1041 34.5732 28.1435C33.2963 28.7464 32.5272 28.2992 32.4894 26.8682C32.4439 25.1439 32.4654 23.4179 32.4544 21.6928C32.4522 21.333 32.6311 21.0994 32.9174 20.9232C34.47 19.9689 36.0203 19.0109 37.5741 18.0584C37.7459 17.9531 37.9287 17.8623 38.1154 17.7879C39.2665 17.3298 40.0014 17.8242 40.0256 19.0852C40.0421 19.9477 40.0288 20.8108 40.0288 21.6734H40.0499Z" fill="#8F8FFE"/>
<path d="M68.3056 17.153L63.6926 27.1129C62.8246 28.7867 62.1046 29.9266 61.5325 30.5327C60.7452 31.3593 59.9242 31.7727 59.0695 31.7727H58.8377C57.9829 31.7727 57.1519 31.3628 56.3444 30.5432C55.6714 29.8543 54.9548 28.7006 54.1943 27.082L49.6119 17.153H54.4871L58.9587 26.4517L63.43 17.153H68.3056Z" fill="#70DF00"/>
<path d="M80.7201 28.0736C80.9553 28.0736 81.1236 28.0051 81.2246 27.867C81.3254 27.7294 81.3761 27.5743 81.3761 27.4021V26.7821C81.3761 26.6101 81.3254 26.4552 81.2246 26.3172C81.1236 26.1796 80.9553 26.1106 80.7201 26.1106H73.1296C72.416 26.1106 71.8073 25.8523 71.3025 25.3357C70.7978 24.8191 70.5453 24.196 70.5453 23.4655V19.8083C70.5453 19.0782 70.7978 18.4514 71.3025 17.9278C71.8073 17.4112 72.416 17.1529 73.1296 17.1529H84.8181V20.8516H74.9665C74.7308 20.8516 74.5626 20.9206 74.4618 21.0584C74.3608 21.1962 74.3105 21.3478 74.3105 21.513V22.1639C74.3105 22.3223 74.3608 22.4704 74.4618 22.608C74.5626 22.746 74.7308 22.8148 74.9665 22.8148H82.4361C83.1762 22.8148 83.8087 23.0869 84.3335 23.6312C84.8584 24.1684 85.121 24.8158 85.121 25.5734V29.0243C85.121 29.7819 84.8584 30.4295 84.3335 30.9665C83.8087 31.5039 83.1762 31.7725 82.4361 31.7725H70.8484V28.0736H80.7201Z" fill="#8F8FFE"/>
<path d="M88.572 21.7091C88.572 20.4487 89.0061 19.3743 89.8742 18.4857C90.749 17.5971 91.7987 17.1529 93.0234 17.1529H104.773V20.8516H95.0422C94.3222 20.8516 93.8209 21.1375 93.5382 21.7091C93.316 22.281 93.2051 22.9698 93.2051 23.7756V25.16C93.2051 25.9591 93.316 26.6444 93.5382 27.2162C93.8209 27.7878 94.3222 28.0735 95.0422 28.0735H104.773V31.7724H93.0234C91.7987 31.7724 90.749 31.3283 89.8742 30.4397C89.0061 29.5512 88.572 28.4801 88.572 27.2265V21.7091Z" fill="#8F8FFE"/>
<path d="M119.791 17.1426H124.424V27.2266C124.424 28.4803 123.991 29.5514 123.122 30.4398C122.247 31.3284 121.198 31.7725 119.973 31.7725H112.675C111.45 31.7725 110.404 31.3284 109.536 30.4398C108.661 29.5514 108.224 28.4803 108.224 27.2266V17.1426H112.857V25.1602C112.857 25.9592 112.968 26.6445 113.19 27.2163C113.473 27.7879 113.974 28.0736 114.694 28.0736H117.954C118.674 28.0736 119.176 27.7879 119.458 27.2163C119.68 26.6445 119.791 25.9592 119.791 25.1602V17.1426Z" fill="#8F8FFE"/>
<path d="M138.262 26.0693C137.98 25.8764 137.502 25.78 136.829 25.78H132.509V28.0735H136.829C137.502 28.0735 137.98 27.974 138.262 27.774C138.605 27.5194 138.777 27.2368 138.777 26.9268C138.777 26.61 138.605 26.3243 138.262 26.0693ZM132.509 23.0421H136.829C137.602 23.0421 138.107 22.9216 138.343 22.6804C138.592 22.4808 138.716 22.2258 138.716 21.9158C138.716 21.5921 138.592 21.3338 138.343 21.141C138.107 20.9482 137.602 20.8516 136.829 20.8516H133.498C133.229 20.8516 132.997 20.9103 132.802 21.0271C132.606 21.1445 132.509 21.3305 132.509 21.5851V23.0421ZM141.825 24.2611C142.882 25.0947 143.41 26.1898 143.41 27.5466V27.6294C143.41 28.7728 143.013 29.751 142.219 30.5637C141.425 31.3695 140.469 31.7724 139.352 31.7724H127.876V19.8081C127.876 19.0711 128.131 18.4443 128.643 17.9279C129.147 17.4113 129.756 17.1529 130.47 17.1529H139.352C140.59 17.1529 141.586 17.5662 142.34 18.3926C143.013 19.1366 143.349 20.039 143.349 21.0998C143.349 22.4497 142.841 23.5035 141.825 24.2611Z" fill="#8F8FFE"/>
<path d="M146.356 17.153H150.99V31.7727H146.356V17.153Z" fill="#8F8FFE"/>
<path d="M166.19 17.153C167.415 17.153 168.464 17.5972 169.339 18.4858C170.207 19.3744 170.641 20.4488 170.641 21.7092V31.7622H166.008V23.7757C166.008 22.9699 165.9 22.2813 165.685 21.7092C165.396 21.1376 164.891 20.8517 164.171 20.8517H160.911C160.191 20.8517 159.689 21.1376 159.407 21.7092C159.185 22.2813 159.074 22.9699 159.074 23.7757V31.7727H154.441V21.7092C154.441 20.4488 154.878 19.3744 155.753 18.4858C156.621 17.5972 157.667 17.153 158.892 17.153H166.19Z" fill="#8F8FFE"/>
<path d="M182.309 23.0834H190.293V27.4332C190.293 28.618 189.859 29.6201 188.991 30.4398C188.123 31.3284 187.073 31.7727 185.842 31.7727H178.544C177.319 31.7727 176.273 31.3284 175.405 30.4398C174.53 29.5513 174.093 28.4802 174.093 27.2266V21.7092C174.093 20.4488 174.53 19.3744 175.405 18.4858C176.273 17.5972 177.319 17.153 178.544 17.153H188.406V20.8517H180.563C179.782 20.8517 179.281 21.1376 179.059 21.7092C178.837 22.2811 178.726 22.9699 178.726 23.7757V25.1603C178.726 25.9592 178.837 26.6447 179.059 27.2163C179.348 27.7879 179.849 28.0738 180.563 28.0738H183.823C184.543 28.0738 185.048 27.8223 185.337 27.3195C185.552 26.8169 185.66 26.4346 185.66 26.1728H182.309V23.0834Z" fill="#8F8FFE"/>
</svg>
