<svg width="83" height="49" viewBox="0 0 83 49" fill="none" xmlns="http://www.w3.org/2000/svg">
<path d="M32.9279 8.09891C33.0575 7.95492 33.2956 8.06095 33.2754 8.25364L33.0511 10.3872C33.0421 10.4734 33.0895 10.5556 33.1687 10.5908L35.1285 11.4634C35.3055 11.5422 35.2783 11.8015 35.0888 11.8417L32.9903 12.2878C32.9056 12.3058 32.8421 12.3763 32.833 12.4625L32.6088 14.5961C32.5885 14.7888 32.3335 14.843 32.2367 14.6752L31.164 12.8173C31.1207 12.7422 31.034 12.7036 30.9492 12.7216L28.8508 13.1677C28.6613 13.208 28.5309 12.9822 28.6606 12.8382L30.0961 11.2439C30.154 11.1795 30.164 11.0851 30.1206 11.0101L29.048 9.1522C28.9511 8.98441 29.1255 8.79069 29.3025 8.86949L31.2624 9.74208C31.3415 9.77732 31.4344 9.75758 31.4924 9.69319L32.9279 8.09891Z" fill="#8F8FFE"/>
<path d="M4.24411 25.8386C4.22386 25.6459 4.462 25.5399 4.59165 25.6839L6.30684 27.5888C6.36482 27.6532 6.45767 27.6729 6.53682 27.6377L8.87854 26.5951C9.05553 26.5163 9.22996 26.71 9.13309 26.8778L7.85143 29.0977C7.8081 29.1727 7.81802 29.2671 7.876 29.3315L9.5912 31.2365C9.72084 31.3804 9.5905 31.6062 9.40099 31.5659L6.89368 31.033C6.80893 31.0149 6.72221 31.0536 6.67889 31.1286L5.39723 33.3485C5.30036 33.5163 5.04537 33.4621 5.02512 33.2694L4.75718 30.7201C4.74812 30.6339 4.68461 30.5634 4.59986 30.5454L2.09255 30.0124C1.90303 29.9722 1.87579 29.7129 2.05278 29.6341L4.3945 28.5915C4.47365 28.5563 4.52111 28.4741 4.51205 28.3879L4.24411 25.8386Z" fill="#8F8FFE"/>
<path d="M62.54 11.7032C62.5468 11.5095 62.7974 11.4377 62.9057 11.5983L63.6991 12.7745C63.7475 12.8464 63.8367 12.8788 63.92 12.8549L65.2839 12.4639C65.4701 12.4105 65.6159 12.6266 65.4966 12.7793L64.6231 13.8973C64.5697 13.9656 64.5664 14.0604 64.6149 14.1322L65.4083 15.3085C65.5166 15.4691 65.3561 15.6745 65.174 15.6082L63.8408 15.123C63.7594 15.0934 63.6682 15.1195 63.6148 15.1878L62.7413 16.3058C62.6221 16.4585 62.3771 16.3693 62.3839 16.1757L62.4334 14.7578C62.4364 14.6712 62.3833 14.5925 62.3019 14.5629L60.9687 14.0776C60.7866 14.0114 60.7957 13.7508 60.982 13.6974L62.3458 13.3064C62.4291 13.2825 62.4875 13.2077 62.4905 13.1211L62.54 11.7032Z" fill="#81FC05"/>
<path d="M77.774 28.0514C77.7537 27.8587 77.9919 27.7527 78.1215 27.8966L78.8278 28.681C78.8858 28.7454 78.9786 28.7652 79.0578 28.7299L80.022 28.3006C80.199 28.2218 80.3735 28.4155 80.2766 28.5833L79.7488 29.4974C79.7055 29.5725 79.7154 29.6669 79.7734 29.7312L80.4797 30.5156C80.6093 30.6596 80.479 30.8854 80.2895 30.8451L79.257 30.6256C79.1723 30.6076 79.0856 30.6462 79.0422 30.7213L78.5145 31.6354C78.4176 31.8032 78.1626 31.749 78.1424 31.5563L78.032 30.5066C78.023 30.4204 77.9595 30.3498 77.8747 30.3318L76.8423 30.1124C76.6528 30.0721 76.6255 29.8128 76.8025 29.734L77.7668 29.3047C77.8459 29.2695 77.8934 29.1873 77.8843 29.1011L77.774 28.0514Z" fill="#8F8FFE"/>
<path d="M37.8559 35.2939C37.7679 35.1213 37.9523 34.937 38.1249 35.0249L39.7127 35.8339C39.7899 35.8733 39.8837 35.8584 39.9449 35.7972L41.205 34.5371C41.342 34.4001 41.5743 34.5184 41.544 34.7098L41.2652 36.4699C41.2517 36.5555 41.2947 36.64 41.372 36.6794L42.9598 37.4884C43.1324 37.5764 43.0916 37.8338 42.9003 37.8641L41.1401 38.1429C41.0546 38.1565 40.9875 38.2236 40.9739 38.3092L40.6951 40.0693C40.6648 40.2606 40.4073 40.3014 40.3194 40.1288L39.5103 38.541C39.471 38.4638 39.3864 38.4207 39.3009 38.4342L37.5407 38.713C37.3494 38.7433 37.231 38.5111 37.368 38.3741L38.6281 37.114C38.6894 37.0527 38.7043 36.9589 38.6649 36.8817L37.8559 35.2939Z" fill="#81FC05"/>
<path d="M47.418 11C47.7118 8.77006 47.825 6.49223 49.6479 6.03268C49.9901 5.9464 51.8292 6.03775 51.9782 5.47712C52.432 3.76869 51.0667 2.27174 52.418 1" stroke="#70DF00" stroke-width="2" stroke-linecap="round"/>
<path d="M21.4088 40.8586C19.55 42.2605 17.6732 43.62 15.7773 44.9681" stroke="#8F8FFE" stroke-width="2" stroke-linecap="round"/>
<path d="M6.47039 10.6157C5.58722 9.55585 4.83597 8.38836 4.03516 7.26721" stroke="#70DF00" stroke-width="2" stroke-linecap="round"/>
<path d="M74.918 19.334C76.3427 17.5618 78.3777 16.2271 80.0928 14.7679" stroke="#7272CB" stroke-width="2" stroke-linecap="round"/>
<path d="M54.498 34.5427C55.5133 35.558 56.9018 36.2161 57.7629 37.3916C58.1643 37.9396 57.8403 38.59 57.6999 39.169C57.2761 40.9172 59.2133 41.2792 60.4605 41.7532C61.1227 42.0048 60.8099 42.6465 60.8387 43.2028C60.8997 44.3814 61.4969 45.2343 62.3703 45.9761C62.8552 46.3879 63.592 46.8292 63.7506 47.5014" stroke="#7272CB" stroke-width="2" stroke-linecap="round"/>
</svg>
