<svg width="162" height="54" viewBox="0 0 162 54" fill="none" xmlns="http://www.w3.org/2000/svg">
<mask id="mask0_3296_55677" style="mask-type:luminance" maskUnits="userSpaceOnUse" x="1" y="3" width="45" height="48">
<path d="M43.4479 17.7991C43.4279 17.8674 43.411 17.932 43.3987 17.9926C43.3987 18.0409 43.4019 18.0892 43.4033 18.1375C43.4082 18.5307 43.4067 18.9225 43.4019 19.3124L43.4265 19.4009L43.3999 19.4075C43.3956 19.7139 43.3902 20.0197 43.3822 20.322C43.3719 20.8238 43.3536 21.3222 43.3447 21.8098C43.5945 21.8555 43.7803 21.9784 43.7163 22.1593C43.5849 22.2578 43.4598 22.3646 43.3419 22.4788C43.3387 23.1361 43.3825 23.7714 43.4396 24.3718C43.4992 24.9517 43.5895 25.5281 43.71 26.0985C43.934 27.1588 44.2332 28.0132 44.4881 28.5908C44.7396 29.1721 44.936 29.4664 44.9363 29.4667L44.7648 29.581C44.7648 29.581 44.5484 29.2704 44.279 28.6857C44.0046 28.1024 43.6788 27.2371 43.4273 26.1628C43.2918 25.5848 43.1868 25 43.113 24.411C43.0558 23.9169 43.0049 23.3984 42.9815 22.8638C42.5328 23.3967 42.0613 24.1992 42.1545 25.162C43.9857 44.0861 24.7484 40.4676 22.4356 42.3726C15.6577 47.9505 16.2616 49.6449 13.8924 50.7745C12.7256 51.3312 11.2347 50.8443 11.1046 49.3825C10.9746 47.9207 11.4287 47.2252 11.4287 47.2252C11.4287 47.2252 9.41997 48.548 8.64093 48.6883C7.86189 48.8287 6.63103 48.7581 6.11262 47.5052C5.71453 46.5438 6.57588 45.5833 6.99855 45.1881C6.73677 45.2818 6.24351 45.4207 5.33473 45.6262C2.8713 46.1829 0.423298 44.6654 1.1206 43.3991C2.57809 40.7545 7.1703 43.8166 19.38 36.5935C22.0012 37.2588 24.9242 37.4834 26.6897 35.7328C28.539 33.8906 27.493 30.781 24.7878 31.1174C24.6892 31.1297 24.5395 31.122 24.5509 31.2157C24.5624 31.3094 24.7075 31.2706 24.8013 31.2649C27.239 31.1177 28.008 33.8506 26.313 35.3361C24.4841 36.925 21.4688 36.2723 19.1474 35.4547C12.0206 31.3637 12.9822 22.5448 13.5229 17.4608C14.0945 12.0995 12.8371 10.1602 12.8371 10.1602C12.8371 10.1602 21.9086 11.2442 25.2154 17.0618C28.7342 23.2498 28.5804 26.5295 30.0705 28.105C31.0053 29.0935 32.8726 28.5336 33.9634 26.394C35.278 23.8148 35.0542 19.3572 38.0698 18.9508C41.0854 18.5445 42.5828 21.923 42.5828 21.923C42.6966 21.8537 42.8246 21.8112 42.9572 21.7986C42.9538 21.3114 42.9592 20.819 42.9544 20.3166C42.9544 19.9395 42.9505 19.5611 42.9429 19.1812C42.9286 19.109 42.9068 19.0385 42.8778 18.9708C42.8226 18.8006 42.7521 18.6357 42.6671 18.4782C42.5866 18.2927 42.4548 18.1198 42.3416 17.9352C42.2039 17.7697 42.0804 17.5882 41.9301 17.4516C41.8062 17.3187 41.6705 17.1974 41.5246 17.089C41.2857 17.2004 40.9816 17.1244 40.6981 16.9126C40.3415 16.6472 39.8159 15.7124 39.8934 15.5889C39.9708 15.4655 40.6815 15.7192 41.2014 16.0362C41.6843 16.3302 41.7881 16.6969 41.7181 16.9015C41.8664 17.0025 42.0059 17.1158 42.1353 17.2402C42.3048 17.3796 42.4468 17.5639 42.6043 17.7354C42.7077 17.8843 42.8215 18.0272 42.9144 18.1758C42.9144 18.1678 42.9144 18.1598 42.9144 18.1515C42.8766 17.4968 42.8338 16.8432 42.7403 16.2082C42.7157 16.1656 42.6906 16.1225 42.6683 16.0782C42.6191 15.9708 42.553 15.872 42.4725 15.7855C42.3928 15.6975 42.3254 15.5978 42.237 15.5186C42.1487 15.4394 42.0573 15.3646 41.9713 15.29C41.7852 15.1534 41.6092 15.0302 41.4463 14.931C41.3722 14.8859 41.3045 14.8436 41.2431 14.8042C40.9776 15.1079 40.5184 15.1228 40.0428 14.9093C39.513 14.6721 38.5776 13.6319 38.6408 13.4518C38.7039 13.2718 39.6819 13.3933 40.4343 13.6493C41.1034 13.8765 41.3488 14.2866 41.34 14.5675C41.4105 14.6083 41.4915 14.654 41.5832 14.7047C41.7492 14.795 41.9441 14.9173 42.147 15.0522C42.2448 15.1288 42.3471 15.2074 42.4485 15.2874C42.5093 15.3393 42.5662 15.3957 42.6186 15.456C42.5394 15.0482 42.4402 14.6516 42.3328 14.2646C42.2576 14.1789 42.1659 14.0717 42.0613 13.9502C41.9158 13.7833 41.7487 13.5844 41.5649 13.3787L40.9416 12.8034C40.8347 12.706 40.7327 12.6034 40.623 12.5113L40.2843 12.263C40.0617 12.109 39.8682 11.9343 39.6762 11.8372L39.5761 11.784C39.116 12.2653 38.351 12.2641 37.5674 11.8921C36.6852 11.474 35.1503 9.68897 35.2629 9.38947C35.3755 9.08997 37.0167 9.32945 38.2727 9.78785C39.5636 10.258 39.8914 11.1184 39.7219 11.5674L39.8076 11.6083C40.0154 11.7037 40.2177 11.8718 40.4563 12.0232L40.8164 12.2667C40.9342 12.3564 41.0451 12.4596 41.1594 12.5562L41.8321 13.1363C41.8998 13.2061 41.9618 13.2724 42.0247 13.339C41.879 12.9483 41.7212 12.5722 41.5529 12.2167C41.3 11.6566 41.0059 11.1533 40.7387 10.6855C40.4366 10.2391 40.2029 9.79956 39.9385 9.44777C39.6836 9.08911 39.4727 8.76646 39.2786 8.51526L39.1678 8.36437C38.4053 8.58899 37.3722 7.83711 36.5774 6.68569C35.4189 5.0073 35.5135 3.21031 35.6478 3.01827C35.7821 2.82622 37.4522 4.18197 38.5533 5.50913C39.6036 6.77314 39.6816 7.79024 39.4107 8.18833L39.5273 8.3135C39.7528 8.54213 39.9905 8.85277 40.2726 9.20114C40.5609 9.54407 40.849 9.96303 41.1648 10.4174C41.4143 10.8238 41.6843 11.2605 41.9341 11.7394C41.9273 11.5788 41.921 11.4151 41.929 11.2536C41.9438 10.9898 41.9576 10.7258 41.9727 10.4783C41.977 10.364 41.9881 10.254 42.0013 10.1491C41.6681 10.0593 41.2868 9.46634 41.5052 8.40581C41.7184 7.36442 42.2113 6.15929 42.4357 6.21358C42.66 6.26788 43.1347 8.07287 43.043 8.84648C42.9669 9.49063 42.7 9.98075 42.2828 10.1222C42.2745 10.2405 42.2671 10.3654 42.2685 10.4937C42.2656 10.7361 42.2628 10.9947 42.2602 11.2536C42.2576 11.5125 42.2953 11.7609 42.3088 11.9966C42.3179 12.1147 42.3271 12.229 42.3354 12.337C42.3582 12.447 42.3799 12.5511 42.3994 12.6474C42.4111 12.7045 42.422 12.7563 42.4322 12.8068C42.5656 13.1385 42.6894 13.4821 42.8038 13.8376C42.8218 13.8974 42.8375 13.9588 42.8549 14.0191C42.8589 13.9974 42.8629 13.9768 42.8672 13.9551C42.8923 13.8445 42.9023 13.7265 42.9409 13.619C43.0241 13.3444 43.105 13.0732 43.187 12.8297C42.9172 12.5545 42.7563 11.7152 43.1973 10.7964C43.6562 9.83757 44.4076 9.06396 44.6119 9.17113C44.8162 9.2783 44.8405 11.1444 44.563 11.8726C44.3232 12.5062 43.922 12.9231 43.457 12.9254C43.3907 13.1649 43.3273 13.4284 43.2619 13.6939C43.2299 13.8002 43.2284 13.9077 43.2101 14.0123C43.1918 14.1169 43.1816 14.2197 43.1678 14.3195C43.1345 14.5034 43.1213 14.6905 43.1284 14.8773C43.1284 14.984 43.1284 15.0776 43.1284 15.158C43.1773 15.4152 43.2213 15.6746 43.2533 15.9376C43.2936 16.2096 43.3196 16.4837 43.3407 16.7589C43.3577 16.8059 43.3682 16.8551 43.3719 16.9049C43.375 16.9272 43.3776 16.9472 43.3805 16.9687C43.4519 16.825 43.5305 16.685 43.6159 16.5491C43.6274 16.5297 43.6399 16.5114 43.6517 16.492C43.4996 16.161 43.5491 15.4294 44.0886 14.7393C44.6853 13.9751 45.5052 13.4336 45.6664 13.569C45.8276 13.7045 45.4835 15.3694 45.0949 15.965C44.7608 16.4768 44.3272 16.7692 43.916 16.6886C43.9117 16.6966 43.9072 16.704 43.9032 16.712C43.6922 17.0947 43.5242 17.5096 43.4479 17.7991ZM26.9884 18.4547C28.723 21.7101 29.0083 26.558 31.0902 26.8433C31.8549 26.9478 32.0312 26.4869 32.0312 26.4869C32.0312 26.4869 31.1739 26.7058 30.4912 25.4744C29.0654 22.9078 28.0672 13.2115 24.9587 9.81814C21.8503 6.42478 17.5439 6.48136 17.5439 6.48136L18.8845 10.2031C23.4907 12.5656 24.7453 14.2457 26.9884 18.4547Z" fill="white"/>
</mask>
<g mask="url(#mask0_3296_55677)">
<path d="M56.5528 -0.335938H-0.421875V30.4278H56.5528V-0.335938Z" fill="#3A95FC"/>
<path d="M56.5528 29.9922H-0.421875V60.7562H56.5528V29.9922Z" fill="#FED800"/>
</g>
<path d="M56.1326 29.7643C55.3427 29.7643 54.5953 29.7036 53.8905 29.582C53.1857 29.4484 52.5841 29.2661 52.0859 29.0352V26.2098C52.6327 26.465 53.2404 26.6715 53.9087 26.8295C54.5771 26.9875 55.203 27.0665 55.7863 27.0665C56.3939 27.0665 56.8496 27.0179 57.1534 26.9207C57.4694 26.8113 57.6273 26.5743 57.6273 26.2098C57.6273 25.9546 57.5362 25.754 57.3539 25.6082C57.1838 25.4624 56.9104 25.3287 56.5336 25.2072C56.1691 25.0857 55.6891 24.9338 55.0936 24.7515C54.3037 24.4963 53.6778 24.2168 53.2161 23.913C52.7543 23.6092 52.4201 23.2385 52.2135 22.801C52.019 22.3636 51.9218 21.8288 51.9218 21.1969C51.9218 20.0425 52.3289 19.1675 53.1431 18.572C53.9695 17.9644 55.1908 17.6606 56.8071 17.6606C57.4511 17.6606 58.1134 17.7153 58.794 17.8247C59.4867 17.934 60.0457 18.0556 60.471 18.1892V21.0329C59.8998 20.802 59.353 20.6379 58.8304 20.5407C58.3079 20.4435 57.8157 20.3949 57.3539 20.3949C56.8192 20.3949 56.3635 20.4374 55.9868 20.5225C55.6101 20.6075 55.4217 20.8263 55.4217 21.1787C55.4217 21.4825 55.5797 21.7073 55.8956 21.8532C56.2238 21.9868 56.801 22.163 57.6273 22.3818C58.5874 22.637 59.3165 22.9469 59.8148 23.3114C60.3252 23.676 60.6715 24.1013 60.8538 24.5874C61.0361 25.0614 61.1272 25.6021 61.1272 26.2098C61.1272 27.2792 60.714 28.142 59.8877 28.7982C59.0613 29.4423 57.8096 29.7643 56.1326 29.7643ZM65.15 29.582V20.3949H61.8507V17.8429H71.8763V20.3949H68.577V29.582H65.15ZM71.0489 29.582L75.5514 17.8429H79.1788L83.6813 29.582H80.1085L79.1241 27.0847H75.5878L74.6217 29.582H71.0489ZM76.0435 24.6239H78.6684L77.356 21.1787L76.0435 24.6239ZM85.1425 29.582V17.8429H88.0591L92.4886 24.0588V17.8429H95.9156V29.582H92.9808L88.5695 23.3843V29.582H85.1425ZM97.7323 29.582V17.8429H102.982C104.185 17.8429 105.212 18.0434 106.063 18.4444C106.913 18.8333 107.564 19.4652 108.013 20.3402C108.463 21.203 108.688 22.3514 108.688 23.7854C108.688 25.8027 108.195 27.2731 107.211 28.1967C106.227 29.1202 104.817 29.582 102.982 29.582H97.7323ZM101.159 26.9571H102.545C103.116 26.9571 103.596 26.8781 103.985 26.7202C104.374 26.55 104.671 26.2401 104.878 25.7905C105.084 25.3287 105.188 24.6603 105.188 23.7854C105.188 22.9104 105.091 22.236 104.896 21.762C104.714 21.2759 104.428 20.9417 104.039 20.7594C103.65 20.565 103.152 20.4678 102.545 20.4678H101.159V26.9571ZM116.434 29.582L113.7 17.8429H117.054L118.385 24.0588L119.679 19.6111V17.8429H122.486L124.273 24.077L125.676 17.8429H129.03L126.314 29.582H123.215L121.447 23.5119L119.533 29.582H116.434ZM130.482 29.582V17.8429H133.909V29.582H130.482ZM138.307 29.582V20.3949H135.008V17.8429H145.034V20.3949H141.734V29.582H138.307ZM146.12 29.582V17.8429H149.547V22.2177H153.593V17.8429H157.02V29.582H153.593V25.2072H149.547V29.582H146.12ZM72.1024 45.7643C71.0087 45.7643 70.0426 45.5881 69.2041 45.2357C68.3777 44.8711 67.7276 44.3425 67.2536 43.6498C66.7797 42.945 66.5427 42.0822 66.5427 41.0614V33.8429H69.9697V40.6968C69.9697 42.1308 70.6806 42.8478 72.1024 42.8478C72.7829 42.8478 73.3055 42.6715 73.67 42.3191C74.0346 41.9667 74.2169 41.4259 74.2169 40.6968V33.8429H77.6439V41.0614C77.6439 42.0822 77.4069 42.945 76.9329 43.6498C76.4712 44.3425 75.821 44.8711 74.9825 45.2357C74.1561 45.5881 73.1961 45.7643 72.1024 45.7643ZM79.3838 45.582V33.8429H82.8108V37.9808L86.3653 33.8429H90.2662L86.1284 38.6552L90.5579 45.582H86.9122L84.0139 40.8426L82.8108 42.1915V45.582H79.3838ZM92.0092 45.582V33.8429H98.1157C99.0758 33.8429 99.8596 34.0191 100.467 34.3715C101.087 34.7239 101.549 35.2161 101.853 35.848C102.156 36.4678 102.308 37.1909 102.308 38.0172C102.308 38.8071 102.108 39.5059 101.707 40.1135C101.318 40.7089 100.795 41.1647 100.139 41.4806C100.273 41.59 100.388 41.7237 100.485 41.8816C100.583 42.0275 100.692 42.2341 100.814 42.5014L102.162 45.582H98.5897L97.3501 42.7566C97.2529 42.5379 97.1314 42.386 96.9856 42.3009C96.8519 42.2037 96.6574 42.1551 96.4023 42.1551H95.4361V45.582H92.0092ZM95.4361 39.5302H97.2408C97.739 39.5302 98.1218 39.4026 98.3892 39.1474C98.6687 38.88 98.8084 38.5033 98.8084 38.0172C98.8084 36.9843 98.3223 36.4678 97.3501 36.4678H95.4361V39.5302ZM102.579 45.582L107.081 33.8429H110.709L115.211 45.582H111.638L110.654 43.0847H107.118L106.152 45.582H102.579ZM107.573 40.6239H110.198L108.886 37.1787L107.573 40.6239ZM116.672 45.582V33.8429H120.099V45.582H116.672ZM121.928 45.582V33.8429H124.845L129.274 40.0588V33.8429H132.701V45.582H129.766L125.355 39.3843V45.582H121.928ZM134.518 45.582V33.8429H143.413V36.4678H137.945V38.3818H142.739V41.0431H137.945V42.9571H143.413V45.582H134.518Z" fill="#F9F9F9"/>
</svg>
