<svg width="762" height="355" viewBox="0 0 762 355" fill="none" xmlns="http://www.w3.org/2000/svg">
<g filter="url(#filter0_d_1823_30841)">
<path d="M173.256 300.821C172.793 300.821 172.417 300.446 172.417 299.982V245.429C172.417 244.965 172.041 244.589 171.577 244.589H44.8396C44.3759 244.589 44 244.213 44 243.75V214.172C44 213.983 44.0633 213.801 44.1796 213.653L177.349 44.3087C177.508 44.1063 177.752 43.9881 178.009 43.9881H214.648C215.112 43.9881 215.488 44.364 215.488 44.8277V208.654C215.488 209.118 215.864 209.494 216.328 209.494H240.97C241.434 209.494 241.81 209.87 241.81 210.334V243.75C241.81 244.213 241.434 244.589 240.97 244.589H216.328C215.864 244.589 215.488 244.965 215.488 245.429V299.982C215.488 300.446 215.112 300.821 214.648 300.821H173.256ZM87.3525 209.329C86.9163 209.88 87.3083 210.69 88.0105 210.69H178.357C178.821 210.69 179.196 210.315 179.196 209.851V95.8516C179.196 95.0561 178.193 94.7066 177.699 95.3302L87.3525 209.329Z" fill="white" />
<path d="M381.38 308C354.261 308 332.46 302.815 315.976 292.446C299.491 281.812 287.394 266.657 279.684 246.982C272.24 227.042 268.517 203.246 268.517 175.595C268.517 146.881 272.107 122.421 279.285 102.214C286.73 82.0079 298.694 66.5873 315.178 55.9524C331.662 45.3175 353.73 40 381.38 40C409.031 40 430.966 45.3175 447.184 55.9524C463.668 66.5873 475.499 82.0079 482.678 102.214C490.122 122.421 493.845 146.881 493.845 175.595C493.845 203.246 490.122 227.042 482.678 246.982C475.234 266.657 463.269 281.812 446.785 292.446C430.301 302.815 408.499 308 381.38 308ZM381.38 270.911C406.904 270.911 424.718 262.536 434.821 245.786C444.924 228.77 449.976 205.373 449.976 175.595C449.976 143.956 445.057 119.629 435.22 102.613C425.382 85.5972 407.436 77.0893 381.38 77.0893C355.325 77.0893 337.245 85.5972 327.142 102.613C317.305 119.629 312.386 143.956 312.386 175.595C312.386 205.373 317.438 228.77 327.541 245.786C337.644 262.536 355.591 270.911 381.38 270.911Z" fill="white" />
<path d="M649.569 300.821C649.105 300.821 648.729 300.446 648.729 299.982V245.429C648.729 244.965 648.353 244.589 647.89 244.589H521.152C520.688 244.589 520.313 244.213 520.313 243.75V214.172C520.313 213.983 520.376 213.801 520.492 213.653L653.662 44.3087C653.821 44.1063 654.064 43.9881 654.322 43.9881H690.961C691.425 43.9881 691.801 44.364 691.801 44.8277V208.654C691.801 209.118 692.177 209.494 692.64 209.494H717.282C717.746 209.494 718.122 209.87 718.122 210.334V243.75C718.122 244.213 717.746 244.589 717.282 244.589H692.64C692.177 244.589 691.801 244.965 691.801 245.429V299.982C691.801 300.446 691.425 300.821 690.961 300.821H649.569ZM563.665 209.329C563.229 209.88 563.621 210.69 564.323 210.69H654.669C655.133 210.69 655.509 210.315 655.509 209.851V95.8516C655.509 95.0561 654.505 94.7066 654.011 95.3302L563.665 209.329Z" fill="white" />
<path d="M39.2298 209.76L39.2297 209.76C38.2408 211.018 37.703 212.571 37.703 214.172V243.75C37.703 247.691 40.8982 250.886 44.8396 250.886H166.12V299.982C166.12 303.923 169.315 307.118 173.256 307.118H214.648C218.59 307.118 221.785 303.923 221.785 299.982V250.886H240.97C244.911 250.886 248.107 247.691 248.107 243.75V210.334C248.107 206.392 244.911 203.197 240.97 203.197H221.785V44.8277C221.785 40.8863 218.59 37.6911 214.648 37.6911H178.009C175.82 37.6911 173.752 38.6956 172.399 40.4161L172.399 40.4162L39.2298 209.76ZM312.562 297.738L312.592 297.757L312.623 297.777C330.432 308.979 353.522 314.297 381.38 314.297C409.239 314.297 432.329 308.979 450.138 297.777L450.169 297.757L450.199 297.738C467.898 286.319 480.683 270.048 488.568 249.211L488.572 249.198L488.577 249.185C496.35 228.364 500.142 203.785 500.142 175.595C500.142 146.386 496.362 121.156 488.599 100.07C481.002 78.7086 468.36 62.1273 450.618 50.6743C433.026 39.1456 409.749 33.703 381.38 33.703C352.993 33.703 329.602 39.1525 311.764 50.661C294.02 62.1091 281.244 78.6821 273.376 100.037L273.364 100.072L273.351 100.106C265.866 121.175 262.22 146.391 262.22 175.595C262.22 203.785 266.012 228.364 273.785 249.185L273.802 249.232L273.821 249.28C281.974 270.084 294.88 286.33 312.562 297.738ZM515.542 209.76L520.492 213.653L515.542 209.76C514.553 211.018 514.016 212.571 514.016 214.172V243.75C514.016 247.691 517.211 250.886 521.152 250.886H642.432V299.982C642.432 303.923 645.627 307.118 649.569 307.118H690.961C694.902 307.118 698.098 303.923 698.098 299.982V250.886H717.282C721.224 250.886 724.419 247.691 724.419 243.75V210.334C724.419 206.392 721.224 203.197 717.282 203.197H698.098V44.8277C698.098 40.8862 694.902 37.6911 690.961 37.6911H654.322C652.132 37.6911 650.065 38.6959 648.712 40.4154L648.712 40.4162L515.542 209.76ZM172.899 204.393H99.299L172.899 111.524V204.393ZM443.679 175.595C443.679 204.759 438.715 226.881 429.418 242.551C420.799 256.826 405.453 264.614 381.38 264.614C357.011 264.614 341.551 256.806 332.944 242.551C323.647 226.881 318.683 204.759 318.683 175.595C318.683 144.476 323.545 121.437 332.576 105.795C341.192 91.3114 356.765 83.3863 381.38 83.3863C406.023 83.3863 421.42 91.3239 429.768 105.765C438.811 121.407 443.679 144.456 443.679 175.595ZM575.612 204.393L649.212 111.524V204.393H575.612Z" stroke="black" stroke-opacity="0.2" stroke-width="12.594" />
<path d="M39.2298 209.76L39.2297 209.76C38.2408 211.018 37.703 212.571 37.703 214.172V243.75C37.703 247.691 40.8982 250.886 44.8396 250.886H166.12V299.982C166.12 303.923 169.315 307.118 173.256 307.118H214.648C218.59 307.118 221.785 303.923 221.785 299.982V250.886H240.97C244.911 250.886 248.107 247.691 248.107 243.75V210.334C248.107 206.392 244.911 203.197 240.97 203.197H221.785V44.8277C221.785 40.8863 218.59 37.6911 214.648 37.6911H178.009C175.82 37.6911 173.752 38.6956 172.399 40.4161L172.399 40.4162L39.2298 209.76ZM312.562 297.738L312.592 297.757L312.623 297.777C330.432 308.979 353.522 314.297 381.38 314.297C409.239 314.297 432.329 308.979 450.138 297.777L450.169 297.757L450.199 297.738C467.898 286.319 480.683 270.048 488.568 249.211L488.572 249.198L488.577 249.185C496.35 228.364 500.142 203.785 500.142 175.595C500.142 146.386 496.362 121.156 488.599 100.07C481.002 78.7086 468.36 62.1273 450.618 50.6743C433.026 39.1456 409.749 33.703 381.38 33.703C352.993 33.703 329.602 39.1525 311.764 50.661C294.02 62.1091 281.244 78.6821 273.376 100.037L273.364 100.072L273.351 100.106C265.866 121.175 262.22 146.391 262.22 175.595C262.22 203.785 266.012 228.364 273.785 249.185L273.802 249.232L273.821 249.28C281.974 270.084 294.88 286.33 312.562 297.738ZM515.542 209.76L520.492 213.653L515.542 209.76C514.553 211.018 514.016 212.571 514.016 214.172V243.75C514.016 247.691 517.211 250.886 521.152 250.886H642.432V299.982C642.432 303.923 645.627 307.118 649.569 307.118H690.961C694.902 307.118 698.098 303.923 698.098 299.982V250.886H717.282C721.224 250.886 724.419 247.691 724.419 243.75V210.334C724.419 206.392 721.224 203.197 717.282 203.197H698.098V44.8277C698.098 40.8862 694.902 37.6911 690.961 37.6911H654.322C652.132 37.6911 650.065 38.6959 648.712 40.4154L648.712 40.4162L515.542 209.76ZM172.899 204.393H99.299L172.899 111.524V204.393ZM443.679 175.595C443.679 204.759 438.715 226.881 429.418 242.551C420.799 256.826 405.453 264.614 381.38 264.614C357.011 264.614 341.551 256.806 332.944 242.551C323.647 226.881 318.683 204.759 318.683 175.595C318.683 144.476 323.545 121.437 332.576 105.795C341.192 91.3114 356.765 83.3863 381.38 83.3863C406.023 83.3863 421.42 91.3239 429.768 105.765C438.811 121.407 443.679 144.456 443.679 175.595ZM575.612 204.393L649.212 111.524V204.393H575.612Z" stroke="#FCFCFC" stroke-opacity="0.1" stroke-width="12.594" />
</g>
<defs>
<filter id="filter0_d_1823_30841" x="0.928806" y="0.287202" width="760.263" height="354.142" filterUnits="userSpaceOnUse" color-interpolation-filters="sRGB">
<feFlood flood-opacity="0" result="BackgroundImageFix"/>
<feColorMatrix in="SourceAlpha" type="matrix" values="0 0 0 0 0 0 0 0 0 0 0 0 0 0 0 0 0 0 127 0" result="hardAlpha"/>
<feOffset dy="3.3584"/>
<feGaussianBlur stdDeviation="15.2387"/>
<feComposite in2="hardAlpha" operator="out"/>
<feColorMatrix type="matrix" values="0 0 0 0 0 0 0 0 0 0 0 0 0 0 0 0 0 0 0.25 0"/>
<feBlend mode="normal" in2="BackgroundImageFix" result="effect1_dropShadow_1823_30841"/>
<feBlend mode="normal" in="SourceGraphic" in2="effect1_dropShadow_1823_30841" result="shape"/>
</filter>
</defs>
</svg>
