<svg width="209" height="239" viewBox="0 0 209 239" fill="none" xmlns="http://www.w3.org/2000/svg">
<path d="M81.3752 176.045L0.0351562 75.3991L118.811 0.331055L203.973 91.1771L81.3752 176.045ZM1.01516 75.889L81.5711 174.869L202.797 91.0791L118.713 1.80107L1.01516 75.889Z" fill="#423E3C"/>
<path d="M99.1867 238.566L81.4487 175.454L0.304688 75.7881L24.1187 143.31L99.1867 238.566Z" fill="#24282B"/>
<path d="M24.5222 143.115L98.4142 235.823L81.0682 175.651L1.49219 77.9453L24.5222 143.115Z" fill="#1F2224"/>
<path d="M208.175 158.502L203.373 91.0781L81.4609 175.456L99.395 237.784L208.175 158.502Z" fill="#191C1D"/>
<path d="M99.1843 238.568V237.98L81.1523 175.26L203.946 90L208.846 158.6L99.1843 238.568ZM81.9363 175.652L99.6743 237L207.474 158.6L202.77 92.254L81.9363 175.652Z" fill="#24282B"/>
<path d="M99.1966 238.568L93.2186 222.3L90.8666 214.46C90.0826 211.912 89.3966 209.266 88.6126 206.62L79.8906 175.26L140.945 133.414L171.521 112.54L179.067 107.248L186.907 102.25L202.391 92.4502L187.397 103.23L179.851 108.718L172.207 113.912L141.729 134.786L80.6746 176.632V175.946L89.2986 207.306C90.0826 209.854 90.8666 212.5 91.4546 215.146L93.5126 222.986L99.1966 238.568Z" fill="#363C40"/>
<path d="M81.4487 175.458L203.361 91.0799L118.689 0.919922L0.304688 75.7919L81.4487 175.458Z" fill="#232729"/>
<path d="M79.8072 175.649L0.0351562 75.3955L81.2771 174.571L79.8072 175.649Z" fill="#363C40"/>
</svg>
