<svg width="310" height="352" viewBox="0 0 310 352" fill="none" xmlns="http://www.w3.org/2000/svg">
<path d="M121.682 258.214L301.61 133.754L176.66 0.572266L1.82812 111.018L121.682 258.214Z" fill="#6565BE"/>
<path d="M176.662 1.06543L2.51562 111.119L121.782 258.119L301.024 133.659" fill="#7171D8"/>
<path d="M147.946 351.022L121.682 258.216L1.82812 111.02L36.9121 210.784L147.946 351.022Z" fill="#8F8FFE"/>
<path d="M147.915 351.022L36.5874 210.98L0.523438 108.766L122.043 258.118L147.915 351.022ZM37.3714 210.588L147.915 351.022L121.259 258.412L3.07142 113.274L37.3714 210.588Z" fill="#0AB9EB"/>
<path d="M308.766 233.228L301.612 133.758L121.684 258.218L148.144 350.338L308.766 233.228Z" fill="#5F5FB2"/>
<path d="M147.941 351.024V350.436L121.188 258.022L302.095 132.974L309.25 233.522L147.941 351.024ZM122.168 258.414L148.431 349.554L308.367 233.032L301.311 135.032L122.168 258.414Z" fill="#7171D8"/>
<path d="M147.926 351.022L140.772 327.6L136.95 316.33C135.676 312.508 134.696 308.686 133.618 304.962L121.074 259V258.314H121.662L210.548 196.868L254.55 165.998L265.624 158.256C269.348 155.708 272.974 152.866 276.698 150.318L300.806 133.658L277.678 151.984L266.8 159.922L255.628 167.566L211.43 198.338L122.544 259.784V258.706L135.48 304.374C136.558 308.196 137.734 312.018 138.616 315.84L141.556 327.306L147.926 351.022Z" fill="#6060B2"/>
<path d="M120.998 259.785L2.51562 111.119L123.056 258.119L120.998 259.785Z" fill="#7070D6"/>
</svg>
