<svg width="574" height="647" viewBox="0 0 574 647" fill="none" xmlns="http://www.w3.org/2000/svg">
<path d="M223.015 471.29L573.071 264.608L359.333 1.18359L20.6445 182.582L223.015 471.29Z" fill="#60BD02"/>
<path d="M222.915 471.878L19.957 182.484L359.527 0.595703L573.853 264.804L222.915 471.878ZM21.329 182.778L223.209 470.702L572.481 264.902L359.233 1.6737L21.329 182.778Z" fill="#60BD02"/>
<path d="M259.861 645.436L223.013 471.29L19.957 182.484L72.485 372.212L259.861 645.436Z" fill="url(#paint0_linear_2564_46423)"/>
<path d="M72.877 372.016L259.567 646.122L222.621 471.486L19.957 182.484L72.877 372.016Z" fill="#60BD02"/>
<path d="M573.056 449.931L573.742 264.809L223 471.295L259.848 645.441L573.056 449.931Z" fill="#418100"/>
<path d="M259.563 646.127V645.539L222.617 471.099L573.849 264.809V450.225L259.563 646.127ZM223.597 471.491L260.249 644.755L573.163 449.735V265.397L223.597 471.491Z" fill="#418100"/>
<defs>
<linearGradient id="paint0_linear_2564_46423" x1="177.345" y1="394.458" x2="92.379" y2="438.656" gradientUnits="userSpaceOnUse">
<stop stop-color="#FFDFA7"/>
<stop offset="0.2" stop-color="#FFD793"/>
<stop offset="0.47" stop-color="#FECF7E"/>
<stop offset="0.74" stop-color="#FECB71"/>
<stop offset="1" stop-color="#FEC96D"/>
</linearGradient>
</defs>
</svg>
