<svg width="110" height="126" viewBox="0 0 110 126" fill="none" xmlns="http://www.w3.org/2000/svg">
<path d="M43.0366 91.826L107.129 47.53L62.6366 0L0.308594 39.396L43.0366 91.826Z" fill="#60BD02"/>
<path d="M42.924 92.1177L0 39.2957L62.524 0.0957031L107.212 47.7236L42.924 92.1177ZM0.685997 39.3937L43.022 91.5296L106.82 47.4296L62.622 0.29167L0.685997 39.3937Z" fill="#60BD02"/>
<path d="M52.4446 124.657L43.0366 91.8265L0.308594 39.3965L12.8526 74.9705L52.4446 124.657Z" fill="#60BD02"/>
<path d="M13.0501 74.8684L52.2501 123.868L43.1361 92.3123L0.996094 40.5684L13.0501 74.8684Z" fill="#60BD02"/>
<path d="M109.671 83.0024L107.123 47.5264L43.0312 91.8223L52.4392 124.652L109.671 83.0024Z" fill="#418100"/>
<path d="M52.3352 125.046L42.5352 92.02L107.215 47.332L109.763 83.396L52.3352 125.046ZM43.2212 91.922L53.0212 124.262L109.861 82.808L107.313 47.92L43.2212 91.922Z" fill="#418100"/>
</svg>
