<svg width="88" height="100" viewBox="0 0 88 100" fill="none" xmlns="http://www.w3.org/2000/svg">
<path d="M33.9233 72.716L84.7853 37.632L49.5053 0L0.113281 31.164L33.9233 72.716Z" fill="#7171D8"/>
<path d="M33.908 73.01L0 31.262L49 0L84.476 37.73L33.908 73.01ZM0.392 31.262L34.006 72.52L84.476 37.632L49.49 0.294025L0.392 31.262Z" fill="#7171D8"/>
<path d="M41.4693 98.786L33.9233 72.718L0.113281 31.166L10.0113 59.39L41.4693 98.786Z" fill="#8F8FFE"/>
<path d="M10.2035 59.2905L40.9755 97.9025L33.8215 72.8145L1.1875 32.1445L10.2035 59.2905Z" fill="#8F8FFE"/>
<path d="M86.74 65.6608L84.78 37.6328L33.918 72.7168L41.464 98.7848L86.74 65.6608Z" fill="#5F5FB2"/>
<path d="M41.3468 99.0791L33.8008 73.0111L85.0548 37.5352L87.0148 66.0532L41.3468 99.0791ZM34.1928 72.8151L41.5428 98.4911L86.6228 65.6611L84.5648 37.9272L34.1928 72.8151Z" fill="#5F5FB2"/>
</svg>
