<svg width="168" height="191" viewBox="0 0 168 191" fill="none" xmlns="http://www.w3.org/2000/svg">
<path d="M65.3764 140.825L0.402344 61.0526L95.7563 0.68457L163.18 73.4006L65.3764 140.825ZM1.28435 60.9545L65.4744 139.845L162.102 73.4006L95.0703 2.05656L1.28435 60.9545Z" fill="#B8B8B5"/>
<path d="M65.387 140.333L162.603 73.1049L95.179 1.17285L0.707031 60.8549L65.387 140.333Z" fill="#B8B8B5"/>
<path d="M19.99 114.559L78.79 188.451L64.972 140.529L1.66406 62.6191L19.99 114.559Z" fill="#F7F7F7"/>
<path d="M166.401 126.811L162.579 73.1074L65.3633 140.335L79.6713 190.021L166.401 126.811Z" fill="#CCCCC9"/>
<path d="M79.695 190.022L65.387 140.336L0.707031 60.8584L19.7191 114.758L79.695 190.022Z" fill="#F7F7F7"/>
<path d="M79.5779 191L65.1719 141.02L163.172 73.4004L167.092 127.888L79.5779 191ZM66.3479 140.432L80.4599 189.432L166.602 126.712L162.29 73.4004L66.3479 140.432Z" fill="#CCCCC9"/>
</svg>
