<svg width="383" height="375" viewBox="0 0 383 375" fill="none" xmlns="http://www.w3.org/2000/svg">
<path d="M111.054 256.737L301.468 144.233L185.24 0.957031L0.902344 99.643L111.054 256.737Z" fill="#E7EAE9"/>
<path d="M110.98 257.325L0.828125 99.2511L184.97 0.369141L302.57 144.429L110.98 257.325ZM1.61214 99.8391L111.274 256.639L300.904 144.135L184.97 1.54513L1.61214 99.8391Z" fill="#E7EAE9"/>
<path d="M131.144 351.405L111.054 256.737L0.902344 99.6426L29.1263 202.739L131.144 351.405Z" fill="#F7F7F7"/>
<path d="M130.87 352.091L28.7535 202.935L1.01953 99.6426L111.564 256.443L130.87 352.091ZM29.6355 202.641L130.282 349.641L110.682 257.129L1.01953 100.329L29.6355 202.641Z" fill="#F7F7F7"/>
<path d="M301.492 245.076V144.234L111.078 256.738L131.168 351.406L301.492 245.076Z" fill="#CCCCC9"/>
<path d="M130.883 352.09V351.502L110.695 256.442L301.991 143.546V245.27L130.883 352.09ZM111.283 256.932L130.883 350.718L301.109 244.878V145.016L111.283 256.932Z" fill="#CCCCC9"/>
<path d="M130.876 352.094L123.624 322.694L121.076 311.424C120.096 307.7 119.41 303.878 118.626 300.154L109.316 254.878V254.192H109.904L200.456 200.88L245.634 174.126L257.002 167.462C260.726 165.208 264.646 163.15 268.468 160.994L291.4 148.254L269.056 162.17L257.982 169.128L246.614 175.792L201.338 202.448L110.884 255.858V254.878L120.684 300.154C121.468 303.878 122.35 307.602 122.938 311.424L124.996 322.792L130.876 352.094Z" fill="#E1E1E1"/>
<path d="M109.094 255.855L0.902344 99.6426L111.25 254.385L109.094 255.855Z" fill="white"/>
</svg>
