<svg width="1.5em" height="1.5em" viewBox="0 0 24 24" fill="none" xmlns="http://www.w3.org/2000/svg">
<path d="M13.2001 20.4C13.2002 20.6045 13.2526 20.8055 13.3522 20.9841C13.4518 21.1626 13.5954 21.3128 13.7694 21.4202C13.9433 21.5277 14.1418 21.5889 14.3461 21.5981C14.5504 21.6073 14.7536 21.5642 14.9365 21.4728L19.7365 19.0728C19.9358 18.9732 20.1034 18.8201 20.2206 18.6306C20.3378 18.4412 20.4 18.2228 20.4001 18V11.0832C20.4 10.8787 20.3476 10.6777 20.248 10.4991C20.1484 10.3206 20.0048 10.1704 19.8308 10.063C19.6569 9.95549 19.4584 9.89425 19.2541 9.88505C19.0498 9.87585 18.8466 9.919 18.6637 10.0104L13.8637 12.4104C13.6644 12.51 13.4968 12.6631 13.3796 12.8526C13.2624 13.042 13.2002 13.2604 13.2001 13.4832V20.4ZM18.2533 7.53119C18.4524 7.43143 18.6197 7.27825 18.7367 7.08878C18.8537 6.89932 18.9156 6.68105 18.9156 6.45839C18.9156 6.23573 18.8537 6.01747 18.7367 5.828C18.6197 5.63854 18.4524 5.48536 18.2533 5.38559L12.5365 2.52719C12.3699 2.44396 12.1863 2.40063 12.0001 2.40063C11.8139 2.40063 11.6303 2.44396 11.4637 2.52719L5.7469 5.38559C5.54784 5.48536 5.38047 5.63854 5.2635 5.828C5.14653 6.01747 5.08458 6.23573 5.08458 6.45839C5.08458 6.68105 5.14653 6.89932 5.2635 7.08878C5.38047 7.27825 5.54784 7.43143 5.7469 7.53119L11.4637 10.3896C11.6303 10.4728 11.8139 10.5162 12.0001 10.5162C12.1863 10.5162 12.3699 10.4728 12.5365 10.3896L18.2533 7.53119ZM5.3365 10.0104C5.15359 9.919 4.95037 9.87585 4.7461 9.88505C4.54184 9.89425 4.34332 9.95549 4.16937 10.063C3.99542 10.1704 3.85182 10.3206 3.75219 10.4991C3.65256 10.6777 3.60021 10.8787 3.6001 11.0832V18C3.60022 18.2228 3.66236 18.4412 3.77956 18.6306C3.89676 18.8201 4.0644 18.9732 4.2637 19.0728L9.0637 21.4728C9.2466 21.5642 9.44983 21.6073 9.65409 21.5981C9.85835 21.5889 10.0569 21.5277 10.2308 21.4202C10.4048 21.3128 10.5484 21.1626 10.648 20.9841C10.7476 20.8055 10.8 20.6045 10.8001 20.4V13.4832C10.8 13.2604 10.7378 13.042 10.6206 12.8526C10.5034 12.6631 10.3358 12.51 10.1365 12.4104L5.3365 10.0104Z" fill="currentColor"/>
</svg>
