<svg width="1.5em" height="1.5em" viewBox="0 0 24 24" fill="none" xmlns="http://www.w3.org/2000/svg">
<path d="M21.0459 12.796L14.2959 19.546C14.0846 19.7573 13.7979 19.876 13.4991 19.876C13.2002 19.876 12.9135 19.7573 12.7022 19.546C12.4908 19.3346 12.3721 19.048 12.3721 18.7491C12.3721 18.4502 12.4908 18.1635 12.7022 17.9522L17.5312 13.125H3.75C3.45163 13.125 3.16548 13.0065 2.9545 12.7955C2.74353 12.5845 2.625 12.2984 2.625 12C2.625 11.7016 2.74353 11.4155 2.9545 11.2045C3.16548 10.9935 3.45163 10.875 3.75 10.875H17.5312L12.7041 6.04501C12.4927 5.83367 12.374 5.54702 12.374 5.24814C12.374 4.94925 12.4927 4.66261 12.7041 4.45126C12.9154 4.23992 13.2021 4.12119 13.5009 4.12119C13.7998 4.12119 14.0865 4.23992 14.2978 4.45126L21.0478 11.2013C21.1527 11.3059 21.2359 11.4303 21.2926 11.5672C21.3493 11.7041 21.3784 11.8508 21.3782 11.999C21.3781 12.1472 21.3486 12.2939 21.2916 12.4306C21.2346 12.5674 21.1511 12.6915 21.0459 12.796Z" fill="currentColor"/>
</svg>
