<svg width="1.5em" height="1.5em" viewBox="0 0 24 24" fill="none" xmlns="http://www.w3.org/2000/svg">
<path fill-rule="evenodd" clip-rule="evenodd" d="M12 14.122L17.303 19.425C17.5844 19.7064 17.966 19.8645 18.364 19.8645C18.762 19.8645 19.1436 19.7064 19.425 19.425C19.7064 19.1436 19.8645 18.762 19.8645 18.364C19.8645 17.966 19.7064 17.5844 19.425 17.303L14.12 12L19.424 6.697C19.5633 6.55767 19.6737 6.39227 19.7491 6.21025C19.8244 6.02823 19.8632 5.83315 19.8631 5.63615C19.8631 5.43915 19.8242 5.24409 19.7488 5.0621C19.6734 4.88011 19.5628 4.71477 19.4235 4.5755C19.2842 4.43623 19.1188 4.32577 18.9367 4.25043C18.7547 4.17508 18.5596 4.13633 18.3626 4.13637C18.1656 4.13642 17.9706 4.17527 17.7886 4.2507C17.6066 4.32613 17.4413 4.43667 17.302 4.576L12 9.879L6.697 4.576C6.5587 4.43267 6.39323 4.31832 6.21027 4.23962C6.0273 4.16092 5.83049 4.11945 5.63132 4.11763C5.43215 4.1158 5.23462 4.15366 5.05024 4.229C4.86586 4.30433 4.69833 4.41563 4.55742 4.55641C4.41652 4.69718 4.30506 4.8646 4.22955 5.04891C4.15404 5.23322 4.116 5.43072 4.11763 5.62989C4.11927 5.82906 4.16056 6.02591 4.23908 6.20895C4.31761 6.39199 4.4318 6.55756 4.575 6.696L9.88 12L4.576 17.304C4.4328 17.4424 4.31861 17.608 4.24008 17.7911C4.16156 17.9741 4.12027 18.1709 4.11863 18.3701C4.117 18.5693 4.15504 18.7668 4.23055 18.9511C4.30606 19.1354 4.41752 19.3028 4.55842 19.4436C4.69933 19.5844 4.86686 19.6957 5.05124 19.771C5.23562 19.8463 5.43315 19.8842 5.63232 19.8824C5.83149 19.8805 6.0283 19.8391 6.21127 19.7604C6.39423 19.6817 6.5597 19.5673 6.698 19.424L12 14.122Z" fill="currentColor"/>
</svg>
