<svg width="1em" height="1em" viewBox="0 0 27 27" fill="none" xmlns="http://www.w3.org/2000/svg">
<rect x="4.01672" y="3.93326" width="3.3" height="3.3" rx="0.8" fill="currentColor"/>
<rect x="9.23889" y="3.93326" width="3.3" height="3.3" rx="0.8" fill="currentColor"/>
<rect x="14.4612" y="3.93326" width="3.3" height="3.3" rx="0.8" fill="currentColor"/>
<rect x="19.6833" y="3.93326" width="3.3" height="3.3" rx="0.8" fill="currentColor"/>
<rect x="4.01672" y="9.21109" width="3.3" height="3.3" rx="0.8" fill="currentColor"/>
<rect x="9.23889" y="9.21109" width="3.3" height="3.3" rx="0.8" fill="currentColor"/>
<rect x="14.4612" y="9.21109" width="3.3" height="3.3" rx="0.8" fill="currentColor"/>
<rect x="19.6833" y="9.21109" width="3.3" height="3.3" rx="0.8" fill="currentColor"/>
<rect x="4.01672" y="14.4889" width="3.3" height="3.3" rx="0.8" fill="currentColor"/>
<rect x="9.23889" y="14.4889" width="3.3" height="3.3" rx="0.8" fill="currentColor"/>
<rect x="14.4612" y="14.4889" width="3.3" height="3.3" rx="0.8" fill="currentColor"/>
<rect x="19.6833" y="14.4889" width="3.3" height="3.3" rx="0.8" fill="currentColor"/>
<rect x="4.01672" y="19.7668" width="3.3" height="3.3" rx="0.8" fill="currentColor"/>
<rect x="9.23889" y="19.7668" width="3.3" height="3.3" rx="0.8" fill="currentColor"/>
<rect x="14.4612" y="19.7668" width="3.3" height="3.3" rx="0.8" fill="currentColor"/>
<rect x="19.6833" y="19.7668" width="3.3" height="3.3" rx="0.8" fill="currentColor"/>
</svg>
