<svg width="1.5em" height="1.5em" viewBox="0 0 24 24" fill="none" xmlns="http://www.w3.org/2000/svg">
<path d="M22.4592 10.8258L13.6059 5.52891C13.3869 5.39565 13.1361 5.32364 12.8797 5.32043C12.6234 5.31721 12.3709 5.3829 12.1486 5.51063C11.9074 5.65109 11.7076 5.85287 11.5697 6.09549C11.4317 6.33812 11.3604 6.61293 11.3629 6.89204V10.5975L2.8917 5.52751C2.67268 5.39424 2.42189 5.32224 2.16553 5.31902C1.90917 5.31581 1.65665 5.38149 1.43436 5.50922C1.19316 5.64968 0.993422 5.85146 0.855438 6.09409C0.717457 6.33671 0.646139 6.61153 0.648731 6.89063V17.25C0.646008 17.5292 0.717266 17.8041 0.855257 18.0469C0.99325 18.2896 1.19305 18.4914 1.43436 18.6319C1.65665 18.7596 1.90917 18.8253 2.16553 18.8221C2.42189 18.8189 2.67268 18.7469 2.8917 18.6136L11.3629 13.5413V17.2481C11.3599 17.5276 11.431 17.803 11.569 18.046C11.707 18.2891 11.907 18.4913 12.1486 18.6319C12.3709 18.7596 12.6234 18.8253 12.8797 18.8221C13.1361 18.8189 13.3869 18.7469 13.6059 18.6136L22.4592 13.3167C22.6697 13.1849 22.8432 13.0017 22.9635 12.7844C23.0837 12.5672 23.1469 12.3229 23.1469 12.0745C23.1469 11.8262 23.0837 11.5819 22.9635 11.3646C22.8432 11.1473 22.6697 10.9642 22.4592 10.8323V10.8258Z" fill="currentColor"/>
</svg>
