<svg width="1.5em" height="1.5em" viewBox="0 0 24 24" fill="none" xmlns="http://www.w3.org/2000/svg">
<path d="M1.33633 10.8258L10.1896 5.52891C10.4086 5.39565 10.6594 5.32364 10.9158 5.32043C11.1721 5.31721 11.4247 5.3829 11.647 5.51063C11.8882 5.65109 12.0879 5.85287 12.2259 6.09549C12.3639 6.33812 12.4352 6.61293 12.4326 6.89204V10.5975L20.9038 5.52751C21.1229 5.39424 21.3736 5.32224 21.63 5.31902C21.8864 5.31581 22.1389 5.38149 22.3612 5.50922C22.6024 5.64968 22.8021 5.85146 22.9401 6.09409C23.0781 6.33671 23.1494 6.61153 23.1468 6.89063V17.25C23.1495 17.5292 23.0783 17.8041 22.9403 18.0469C22.8023 18.2896 22.6025 18.4914 22.3612 18.6319C22.1389 18.7596 21.8864 18.8253 21.63 18.8221C21.3736 18.8189 21.1229 18.7469 20.9038 18.6136L12.4326 13.5413V17.2481C12.4356 17.5276 12.3645 17.803 12.2265 18.046C12.0885 18.2891 11.8885 18.4913 11.647 18.6319C11.4247 18.7596 11.1721 18.8253 10.9158 18.8221C10.6594 18.8189 10.4086 18.7469 10.1896 18.6136L1.33633 13.3167C1.12587 13.1849 0.952349 13.0017 0.832066 12.7844C0.711784 12.5672 0.648682 12.3229 0.648682 12.0745C0.648682 11.8262 0.711784 11.5819 0.832066 11.3646C0.952349 11.1473 1.12587 10.9642 1.33633 10.8323V10.8258Z" fill="currentColor"/>
</svg>
