<svg width="1.5em" height="1.5em" viewBox="0 0 24 24" fill="none" xmlns="http://www.w3.org/2000/svg">
<path d="M21.1666 11.7505C21.1672 12.0051 21.102 12.2556 20.9771 12.4775C20.8522 12.6995 20.6721 12.8853 20.4541 13.017L6.94663 21.2802C6.71889 21.4196 6.45806 21.4957 6.19107 21.5007C5.92408 21.5056 5.66061 21.4392 5.42788 21.3083C5.19735 21.1794 5.00532 20.9914 4.87153 20.7637C4.73774 20.536 4.66701 20.2768 4.66663 20.0127V3.48828C4.66701 3.22417 4.73774 2.96493 4.87153 2.73722C5.00532 2.50951 5.19735 2.32155 5.42788 2.19266C5.66061 2.06173 5.92408 1.99531 6.19107 2.00026C6.45806 2.0052 6.71889 2.08133 6.94663 2.22078L20.4541 10.4839C20.6721 10.6156 20.8522 10.8015 20.9771 11.0234C21.102 11.2453 21.1672 11.4958 21.1666 11.7505Z" fill="currentColor"/>
</svg>
