<svg width="1.5em" height="1.5em" viewBox="0 0 24 24" fill="none" xmlns="http://www.w3.org/2000/svg">
<path d="M6.29304 4.293C6.48057 4.10553 6.73488 4.00021 7.00004 4.00021C7.26521 4.00021 7.51951 4.10553 7.70704 4.293L11.707 8.293C11.8892 8.4816 11.99 8.7342 11.9877 8.9964C11.9854 9.2586 11.8803 9.50941 11.6949 9.69482C11.5095 9.88023 11.2586 9.9854 10.9964 9.98767C10.7342 9.98995 10.4816 9.88916 10.293 9.707L8.00004 7.414V19C8.00004 19.2652 7.89468 19.5196 7.70715 19.7071C7.51961 19.8946 7.26526 20 7.00004 20C6.73482 20 6.48047 19.8946 6.29293 19.7071C6.1054 19.5196 6.00004 19.2652 6.00004 19V7.414L3.70704 9.707C3.51844 9.88916 3.26584 9.98995 3.00364 9.98767C2.74144 9.9854 2.49063 9.88023 2.30522 9.69482C2.11981 9.50941 2.01465 9.2586 2.01237 8.9964C2.01009 8.7342 2.11088 8.4816 2.29304 8.293L6.29304 4.293ZM16 16.586V5C16 4.73478 16.1054 4.48043 16.2929 4.29289C16.4805 4.10536 16.7348 4 17 4C17.2653 4 17.5196 4.10536 17.7071 4.29289C17.8947 4.48043 18 4.73478 18 5V16.586L20.293 14.293C20.4816 14.1108 20.7342 14.01 20.9964 14.0123C21.2586 14.0146 21.5095 14.1198 21.6949 14.3052C21.8803 14.4906 21.9854 14.7414 21.9877 15.0036C21.99 15.2658 21.8892 15.5184 21.707 15.707L17.707 19.707C17.5195 19.8945 17.2652 19.9998 17 19.9998C16.7349 19.9998 16.4806 19.8945 16.293 19.707L12.293 15.707C12.1109 15.5184 12.0101 15.2658 12.0124 15.0036C12.0146 14.7414 12.1198 14.4906 12.3052 14.3052C12.4906 14.1198 12.7414 14.0146 13.0036 14.0123C13.2658 14.01 13.5184 14.1108 13.707 14.293L16 16.586Z" fill="currentColor"/>
</svg>
