<svg width="44" height="48" viewBox="0 0 44 48" fill="none" xmlns="http://www.w3.org/2000/svg">
<path d="M42.5327 23.3687C42.5327 25.7839 42.5497 28.1992 42.5281 30.614C42.5042 33.3146 41.346 35.4178 39.0744 36.8545C34.9135 39.4862 30.7291 42.0807 26.5595 44.6985C23.789 46.438 21.0463 46.436 18.2714 44.6793C14.0615 42.0143 9.82987 39.3842 5.60394 36.7448C3.2161 35.2535 2.00558 33.1043 2.00295 30.2794C1.99855 25.5701 1.99965 20.8607 2.00251 16.1509C2.00426 13.3015 3.21061 11.1217 5.64681 9.65646C9.93319 7.07867 14.2229 4.50618 18.5231 1.9518C20.9947 0.483704 23.5157 0.477741 25.9816 1.93436C30.3225 4.49846 34.6425 7.09833 38.9535 9.71277C41.3383 11.159 42.5235 13.3221 42.5312 16.1233C42.538 18.5384 42.5327 20.9534 42.5327 23.3687Z" fill="#505B60"/>
<path d="M38.9282 12.9444C38.9436 13.8266 38.6301 14.2941 38.1309 14.5977C36.162 15.7955 34.1756 16.9642 32.1979 18.1472C31.9082 18.3203 31.642 18.308 31.3538 18.1344C29.4315 16.9766 27.4932 15.8452 25.5843 14.6651C24.3424 13.8973 24.2936 12.497 25.5204 11.7194C27.4323 10.507 29.4003 9.38387 31.3455 8.22472C31.6743 8.02861 32.0031 8.08051 32.3129 8.26623C34.1685 9.37923 36.0282 10.4858 37.8713 11.6194C38.4468 11.9731 38.9088 12.4484 38.9282 12.9444Z" fill="#70DF00"/>
<path d="M21.8344 11.9896C21.1437 12.0097 20.2053 11.7589 19.3412 11.2518C17.5647 10.2097 15.7941 9.15678 14.0261 8.1001C13.4687 7.76686 13.4656 7.67808 14.0055 7.35898C15.8994 6.23936 17.7711 5.07755 19.7059 4.03411C21.4167 3.11169 23.2183 3.25479 24.8854 4.14939C26.7512 5.15043 28.5398 6.29699 30.3552 7.39211C30.8722 7.70414 30.8635 7.76863 30.3319 8.0842C28.5259 9.15656 26.7184 10.2261 24.9087 11.2918C24.058 11.7924 23.1264 11.9828 21.8344 11.9896Z" fill="#8F8FFE"/>
<path d="M19.5689 13.309C19.5935 13.888 19.2644 14.3314 18.7914 14.6192C16.8071 15.8256 14.8026 16.9989 12.8047 18.183C12.5346 18.3429 12.2783 18.2971 12.0147 18.1404C10.1226 17.0139 8.21237 15.9172 6.33736 14.7627C5.0743 13.9854 4.87493 12.4983 6.35252 11.6432C8.24139 10.5503 10.0993 9.40375 11.9661 8.27264C12.2943 8.07367 12.5924 8.07389 12.9197 8.27065C14.7897 9.39447 16.6651 10.5092 18.5366 11.6304C19.1554 12.0012 19.584 12.4983 19.5689 13.309Z" fill="#70DF00"/>
<path d="M22.1479 22.7901C21.1796 22.8224 20.1766 22.5298 19.2424 21.973C17.5058 20.9382 15.7711 19.9005 14.0262 18.8798C13.6066 18.6345 13.5356 18.4779 14.0099 18.2025C15.8788 17.1169 17.7046 15.9525 19.6026 14.9223C21.3827 13.9563 23.2467 14.0376 25.0037 15.0055C26.8429 16.0187 28.6179 17.1498 30.4311 18.212C30.8499 18.4571 30.851 18.6305 30.4437 18.8697C28.5456 19.9842 26.6543 21.1109 24.754 22.2217C23.9895 22.6687 23.143 22.8016 22.1479 22.7901Z" fill="#8F8FFE"/>
<path d="M12.4446 38.4498C11.7543 38.1819 11.2332 37.8103 10.6918 37.4795C9.15746 36.5427 7.55237 35.7155 6.12556 34.6117C4.84492 33.6209 4.18438 32.2853 4.17031 30.6557C4.1547 28.846 4.16525 27.036 4.16657 25.2261C4.16679 24.9646 4.13162 24.6097 4.56268 24.8701C6.52958 26.058 8.58352 27.1118 10.4207 28.5019C11.7251 29.4888 12.378 30.8953 12.4298 32.516C12.4923 34.464 12.4446 36.4155 12.4446 38.4498Z" fill="#8F8FFE"/>
<path d="M13.0665 23.7337C13.0665 22.8087 13.0786 21.8832 13.0614 20.9585C13.0531 20.5182 13.1445 20.3296 13.5934 20.6048C15.4361 21.7334 17.3394 22.7656 19.1125 24.0051C20.5745 25.0272 21.3086 26.4802 21.339 28.2621C21.3686 30.0111 21.3491 31.7612 21.3438 33.5107C21.342 34.1182 21.2499 34.1719 20.7332 33.8585C19.0562 32.842 17.3733 31.8343 15.7128 30.7907C13.9266 29.6682 13.0159 28.0464 13.0638 25.9056C13.0801 25.1822 13.0665 24.4576 13.0665 23.7337Z" fill="#8F8FFE"/>
<path d="M31.3664 23.8091C31.3664 24.5734 31.3638 25.3374 31.3671 26.1017C31.3757 28.0442 30.5562 29.5476 28.9656 30.6279C27.2423 31.7984 25.4253 32.8164 23.6465 33.8965C23.2621 34.1299 23.1073 34.063 23.1029 33.6125C23.0829 31.6023 22.9889 29.588 23.1746 27.5842C23.3274 25.9359 24.2198 24.6889 25.5926 23.8201C27.3172 22.7287 29.0797 21.6981 30.8169 20.6268C31.284 20.3389 31.3829 20.4926 31.3724 20.9736C31.3521 21.9183 31.3664 22.8639 31.3664 23.8091Z" fill="#70DF00"/>
<path d="M32.0992 38.4682C31.9536 37.9559 31.9649 37.5513 31.9866 37.1527C32.0763 35.507 31.9121 33.8583 32.0497 32.2138C32.1891 30.5476 32.9582 29.2226 34.3065 28.279C36.0613 27.0513 37.9497 26.0344 39.7746 24.9174C40.1046 24.7156 40.2703 24.7423 40.2736 25.1904C40.2886 27.1997 40.3727 29.2113 40.2307 31.2171C40.1369 32.5424 39.5175 33.6602 38.4841 34.468C36.5093 36.0121 34.2652 37.13 32.0992 38.4682Z" fill="#70DF00"/>
<path d="M31.3432 35.6382C31.3432 36.5427 31.3355 37.4473 31.3465 38.3516C31.3516 38.7489 31.2223 39.0428 30.8711 39.2526C29.1189 40.3 27.3734 41.3582 25.6228 42.4083C25.4351 42.5209 25.2375 42.624 25.0328 42.6998C24.0153 43.0754 23.1099 42.5289 23.0837 41.4474C23.0365 39.4787 23.0624 37.5082 23.0514 35.5386C23.0494 35.1621 23.2761 34.9448 23.5552 34.7756C25.3865 33.6666 27.2068 32.5379 29.0624 31.4715C30.2468 30.7911 31.2806 31.4271 31.3426 32.8042C31.3443 32.8444 31.3432 32.8846 31.3432 32.9248C31.3435 33.8293 31.3432 34.7337 31.3432 35.6382Z" fill="#8F8FFE"/>
<path d="M21.3566 38.523C21.3566 39.4084 21.3247 40.295 21.3634 41.1788C21.4355 42.828 20.0555 43.112 19.0501 42.546C18.3539 42.1538 17.6762 41.7282 16.9915 41.3155C15.8786 40.645 14.7714 39.9646 13.6516 39.3057C13.2643 39.0778 13.0931 38.7799 13.0966 38.3256C13.1105 36.5351 13.0883 34.7439 13.1067 32.9534C13.123 31.3753 14.1442 30.7654 15.5102 31.5535C17.3291 32.6032 19.1098 33.7199 20.9152 34.7943C21.2713 35.0063 21.3902 35.2817 21.3805 35.6862C21.3585 36.6314 21.3735 37.5774 21.3735 38.523H21.3566Z" fill="#70DF00"/>
<path d="M4.15806 20.4015C4.15806 19.476 4.14685 18.55 4.16091 17.6245C4.18004 16.3607 5.00918 15.7923 6.17353 16.2478C6.52524 16.3854 6.86529 16.5643 7.18951 16.7593C8.73195 17.6874 10.2632 18.6342 11.8076 19.5592C12.198 19.7931 12.4538 20.0643 12.4492 20.5554C12.4332 22.2454 12.4354 23.9355 12.4303 25.6255C12.4299 25.726 12.4312 25.8269 12.4233 25.9272C12.2938 27.5991 11.5113 28.0746 10.03 27.329C8.11581 26.3658 6.35224 25.1401 4.50185 24.0647C4.19696 23.8876 4.14047 23.621 4.14355 23.2995C4.15234 22.3336 4.14663 21.3676 4.14663 20.4015H4.15806Z" fill="#70DF00"/>
<path d="M40.3063 20.4383C40.3063 21.3837 40.3028 22.3293 40.3083 23.2745C40.3103 23.619 40.2217 23.9016 39.9045 24.0867C38.1262 25.1253 36.4139 26.2758 34.5923 27.2408C34.5041 27.2877 34.4147 27.3325 34.3241 27.3747C32.9294 28.021 32.0892 27.5416 32.0479 26.0075C31.9982 24.1589 32.0218 22.3085 32.0097 20.4591C32.0072 20.0733 32.2027 19.8228 32.5155 19.634C34.2113 18.6109 35.9048 17.5838 37.602 16.5627C37.7897 16.4498 37.9893 16.3524 38.1933 16.2727C39.4506 15.7816 40.2534 16.3116 40.2797 17.6635C40.2978 18.5882 40.2833 19.5134 40.2833 20.4383H40.3063Z" fill="#8F8FFE"/>
</svg>
