<svg width="483" height="408" viewBox="0 0 483 408" fill="none" xmlns="http://www.w3.org/2000/svg">
<path d="M440.082 279.064L440.206 282.956L433.571 285.463L429.75 282.46V277.923L433.44 277.711L433.552 276.712L434.764 275.906L440.082 279.064Z" fill="#E1CFB5"/>
<path d="M304.469 309.847L305.892 344.118L301.717 402.394L295.467 402.851L287.875 349.924L277.375 305.137L304.469 309.847Z" fill="#505B60"/>
<path d="M295.801 407.208H305.182L305.568 403.992L302.206 401.582L295.453 402.078L295.801 407.208Z" fill="#292949"/>
<path d="M260.232 299.652L258.859 325.558L262.929 402.587L269.185 402.909L278.56 352.392L286.836 296.984L260.232 299.652Z" fill="#505B60"/>
<path d="M268.932 407.452L259.799 407.851L258.867 405.119L262.421 401.787L269.187 402.135L268.932 407.452Z" fill="#292949"/>
<path d="M296.612 221.4L277.085 219.229C277.085 219.229 266.225 220.434 258.851 247.19C254.75 262.076 253.501 285.527 253.203 303.41C253.663 305.988 256.31 317.13 267.673 315.235C287.125 311.981 297.494 308.727 305.95 310.357C313.169 311.981 312.554 301.677 311.765 293.815L308.889 269.481L296.612 221.4Z" fill="#1B1E25"/>
<path d="M292.842 196.191C287.922 195.063 282.852 194.058 277.931 195.07C276.856 195.289 275.695 195.682 275.111 196.649C274.901 197.034 274.746 197.449 274.651 197.88C273.408 202.674 271.83 209.776 274.875 214.196C275.47 215.024 276.217 215.721 277.074 216.246C278.189 216.969 279.423 217.472 280.715 217.728C280.448 218.922 280.078 220.089 279.609 221.214C280.733 222.974 285.989 223.186 286.965 221.498C287.021 220.035 287.07 218.572 287.126 217.109C287.78 216.847 288.404 216.515 288.99 216.117C291.17 214.56 292.784 212.292 293.575 209.673C294.513 206.837 295.83 204.137 296.682 201.25C296.992 200.193 297.241 198.994 296.682 198.028C296.122 197.061 294.886 196.668 293.78 196.41L292.842 196.191Z" fill="#BFA296"/>
<path d="M295 209.496C297.361 206.976 300.132 203.458 300.343 200.261C300.517 197.613 300.169 194.01 298.74 191.723C297.404 189.583 293.981 188.41 291.949 187.173L286.202 183.674C285.826 183.405 285.404 183.211 284.96 183.1C284.413 183.044 283.86 183.107 283.338 183.287L269.732 186.941C268.862 187.173 267.868 187.514 267.552 188.384C267.409 188.935 267.422 189.517 267.589 190.06C268.104 192.502 269.092 194.99 269.335 197.464C269.714 199.398 269.639 201.157 271.012 202.588C272.385 204.018 274.025 204.663 275.063 206.306C275.808 207.492 276.094 208.922 276.684 210.172C279.337 215.972 290.073 214.426 293.788 210.727C294.167 210.366 294.577 209.947 295 209.496Z" fill="#1B1E25"/>
<path d="M292.469 223.133L305.888 208.092L302.726 167.332L308.622 164.645L321.035 205.662L316.649 218.28L298.651 243.368L292.469 223.133Z" fill="#1B1E25"/>
<path d="M307.363 165.217V161.486C307.363 160.126 304.058 156.975 303.219 155.809C302.741 155.164 300.542 158.702 300.517 159.295C300.467 160.294 301.859 162.44 302.244 163.477L301.07 165.217L302.729 167.331L307.363 165.217Z" fill="#C17E72"/>
<path d="M268.458 226.259L253.268 213.158L251.304 172.314L245.117 170.445L237.953 212.784L243.88 224.706L264.861 247.158L268.458 226.259Z" fill="#1B1E25"/>
<path d="M246.442 170.831C246.442 170.831 245.982 167.19 245.976 167.132C245.808 165.785 248.685 162.189 249.374 160.939C249.772 160.23 252.394 163.453 252.481 164.032C252.655 165.018 251.543 167.338 251.294 168.421L252.673 169.987L251.294 172.3L246.442 170.831Z" fill="#C17E72"/>
<path d="M29.958 200.843C27.5118 199.596 25.2176 198.052 23.1239 196.242C22.4405 195.649 21.7074 194.824 21.9497 193.935C22.223 192.917 23.5153 192.697 24.5342 192.794C26.4543 192.97 28.3204 193.546 30.0201 194.489C30.4364 194.347 29.8959 193.651 30.0823 193.239C30.1376 193.152 30.2136 193.082 30.3028 193.034C30.392 192.987 30.4915 192.964 30.5917 192.968C33.3378 192.807 34.4064 196.687 35.3507 198.549C33.4248 199.599 31.4367 199.638 29.7592 201.223L29.958 200.843Z" fill="#BFA296"/>
<path d="M147.747 246.977L151.332 247.518C152.63 247.718 158.309 244.747 159.514 244.051C160.21 243.652 154.972 240.919 154.419 240.829C153.469 240.636 151.22 241.751 150.176 241.995L148.685 240.539L146.43 241.937L147.747 246.977Z" fill="#EFBFA5"/>
<path d="M60.5611 398.992L60.0703 402.981L67.271 408.001L71.6137 404.521L68.2588 400.016L61.0581 394.996L60.5611 398.992Z" fill="#292949"/>
<path d="M60.3198 397.649L65.8741 346.733L59.1953 289.727L60.6988 277.605L90.5514 276.426L91.6263 296.165L86.6125 346.81L67.7628 400.246L60.3198 397.649Z" fill="#363C40"/>
<path d="M95.3047 221.199L108.718 229.377L119.367 244.85L147.722 240.59L148.611 248.69L116.403 259.826L99.896 253.414L95.3047 221.199Z" fill="#1B1E25"/>
<path d="M112.455 282.138L112.536 333.518L102.564 399.662L95.3883 399.591L91.4432 338.422L82.2109 277.195L112.455 282.138Z" fill="#363C40"/>
<path d="M95.3984 402.729L103.121 406.834L107.035 402.845L103.196 398.785L95.4357 398.701L95.3984 402.729Z" fill="#292949"/>
<path d="M56.1023 299.608C56.1706 297.384 56.2949 295.528 56.3073 294.864C56.4626 288.891 56.9783 282.93 57.699 277.001C58.3202 271.684 59.159 258.493 60.035 253.209C60.7619 248.846 63.2843 237.962 65.1046 233.915C69.64 223.855 68.2111 222.927 88.148 219.943C96.8459 218.655 98.9397 224.274 106.072 230.763C106.774 231.408 106.737 235.21 106.904 236.222C107.19 237.994 107.495 239.772 107.849 241.538C108.128 242.924 108.433 244.303 108.775 245.682C108.775 245.682 114.764 273.953 118.715 279.959C122.666 285.965 130.861 294.355 117.168 299.479C114.76 300.345 112.29 301.015 109.781 301.483C109.781 301.483 98.598 300.194 92.8263 300.233C87.5161 300.298 82.2198 300.811 76.9898 301.766C73.5044 302.372 69.9444 303.248 66.8256 304.937C63.8497 306.548 61.7062 308.919 58.6868 310.589C58.4142 310.78 58.0901 310.877 57.7611 310.866C56.0401 310.614 55.9594 304.299 56.1023 299.608Z" fill="#1B1E25"/>
<path d="M86.3655 222.547C85.5454 223.346 83.3337 224.242 80.687 224.036C80.4251 224.018 80.1746 223.918 79.9692 223.749C79.7637 223.58 79.6131 223.349 79.5376 223.089C79.1165 221.592 78.7906 220.067 78.5622 218.526C76.5989 218.442 74.2629 218.127 73.3807 216.303C73.1386 215.711 72.9917 215.082 72.9458 214.44C72.6227 211.803 72.2976 209.167 71.9704 206.533C71.7963 205.629 71.7963 204.698 71.9704 203.794C72.3804 202.241 73.7597 201.178 75.1451 200.45C78.6802 198.587 82.9982 198.13 86.6451 199.747C87.6385 200.135 88.5152 200.789 89.1861 201.642C90.1616 202.995 90.2672 204.793 90.3355 206.482L90.5219 211.154C90.5902 212.939 90.5219 215.02 89.1861 216.129C88.4655 216.722 87.4776 216.934 86.8812 217.656C85.8436 218.932 86.614 220.891 86.3655 222.547Z" fill="#BFA296"/>
<path d="M100.531 190.726C100.706 189.985 100.931 189.257 101.202 188.548C101.823 187.014 102.668 185.59 103.034 183.985C103.401 182.38 103.128 180.454 101.829 179.474C100.941 178.923 99.9085 178.677 98.8781 178.772C95.4763 178.821 92.1492 179.813 89.242 181.646C86.4897 183.386 84.2096 185.512 80.8609 185.332C77.711 185.139 75.8036 186.234 73.1756 188.271C70.3364 190.468 66.1303 192.137 63.7383 194.715C62.763 195.83 62.0637 197.175 61.7005 198.633C61.0535 201.148 61.0982 203.8 61.8295 206.29C62.5607 208.779 63.9494 211.007 65.8383 212.72C66.7066 213.462 67.6359 214.124 68.6154 214.698C70.6222 215.91 73.0451 217.431 75.3004 217.399C74.7785 215.465 71.2993 209.936 72.2561 207.906C73.7721 204.684 79.1399 203.93 82.1221 203.653C85.3776 203.35 88.7698 204.723 91.9383 204.239C94.2247 203.891 96.6787 201.894 98.1884 200.134C100.046 197.982 99.8659 193.432 100.531 190.726Z" fill="#1B1E25"/>
<path d="M70.7356 224.371L55.0731 228.54L36.2047 198.123L28.2461 200.353L41.5167 244.142L72.0589 247.957L70.7356 224.371Z" fill="#1B1E25"/>
<path d="M451.961 393.106C452.238 392.728 452.604 392.43 453.024 392.243C453.445 392.055 453.905 391.984 454.36 392.036C454.793 392.111 455.203 392.294 455.553 392.569C455.904 392.844 456.185 393.203 456.372 393.615C456.588 394.187 456.706 394.793 456.72 395.406C456.969 398.564 456.95 406.052 452.893 407.135C451.191 407.586 449.787 406.329 449.327 404.744C448.644 402.353 449.656 395.735 451.961 393.106Z" fill="#292949"/>
<path d="M450.523 345.471L450.735 364.72C450.486 373.271 451.772 381.868 451.53 390.42C451.468 392.385 450.977 394.46 451.455 396.406C451.934 398.352 453.412 398.655 454.947 397.695C457.003 396.406 456.668 393.377 457.01 391.173C457.954 385.122 459.054 379.097 460.035 373.046C460.514 370.081 459.526 365.925 459.743 362.928L462.738 346.818L450.523 345.471Z" fill="#BFA296"/>
<path d="M471.728 314.39L463.652 351.606L461.931 386.753L449.126 386.456L445.641 288.143L470.473 288.613L471.728 314.39Z" fill="#363C40"/>
<path d="M433.647 392.405C433.94 392.045 434.319 391.771 434.747 391.61C435.174 391.45 435.634 391.408 436.082 391.49C436.514 391.59 436.916 391.796 437.254 392.091C437.593 392.386 437.858 392.761 438.027 393.185C438.215 393.771 438.305 394.385 438.294 395.002C438.418 398.173 438.083 405.674 434.001 406.505C432.286 406.853 430.932 405.513 430.546 403.895C429.962 401.459 431.242 394.899 433.647 392.405Z" fill="#292949"/>
<path d="M440.397 348.195L439.31 367.412C439.216 372.754 438.533 378.058 437.999 383.362C437.502 388.292 438.272 393.421 435.793 397.9C435.01 399.311 433.439 400.246 432.339 398.544C431.494 397.256 431.997 395.032 431.836 393.537C431.171 387.447 430.345 381.37 429.636 375.281C429.288 372.297 430.469 368.192 430.394 365.189L428.133 348.93L440.397 348.195Z" fill="#BFA296"/>
<path d="M424.184 312.117L423.141 348.243L428.608 384.776L441.636 385.182L441.058 345.64L447.955 312.851L450.266 291.392L429.596 288.859L424.184 312.117Z" fill="#363C40"/>
<path d="M440.538 214.921L462.811 214.367L475.721 239.281L471.13 262.615L470.316 290.532L438.544 290.983L428.094 289.224L430.871 259.387L429.274 219.535L440.538 214.921Z" fill="#1B1E25"/>
<path d="M443.459 193.385C447.845 183.719 460.233 188.874 461.973 198.154C463.085 204.192 457.947 211.294 451.933 212.331C451.883 212.563 451.237 214.529 451.218 214.709C451.103 215.645 450.922 216.572 450.678 217.48C450.591 217.828 445.583 216.237 445.024 216.056C444.823 216.019 444.644 215.901 444.527 215.728C444.353 215.373 445.391 212.673 445.465 212.312C445.54 211.951 445.645 211.449 445.739 211.023C443.005 209.238 441.514 205.932 441.334 202.71C441.154 199.488 442.141 196.279 443.459 193.385Z" fill="#BFA296"/>
<path d="M452.762 185.203C453.308 186.043 453.612 187.027 453.638 188.039C453.733 188.625 453.706 189.225 453.558 189.798C452.843 192.028 450.675 191.667 448.904 192.215C446.724 192.924 444.802 194.298 443.387 196.159C441.25 198.968 441.666 202.938 442.064 206.347C442.201 207.552 442.548 209.35 441.561 210.297C440.573 211.245 438.516 210.871 437.51 210.201C436.503 209.531 435.882 208.583 434.832 208.267C433.782 207.952 432.136 208.267 431.726 207.153C431.663 206.821 431.58 206.494 431.477 206.173C430.949 205.174 429.278 206.089 428.464 205.335C427.961 204.871 428.054 204.014 428.309 203.357C428.647 202.739 428.845 202.049 428.886 201.34C428.752 200.751 428.543 200.183 428.265 199.651C428.078 199.08 428.051 198.466 428.187 197.879C428.324 197.293 428.618 196.759 429.036 196.339C430.601 194.825 433.266 195.443 434.925 194.032C435.789 193.304 436.218 192.15 436.621 191.061C437.025 189.972 437.497 188.838 438.411 188.168C439.535 187.349 441.008 187.672 442.138 186.673C442.803 186.086 443.294 185.281 444.002 184.785C444.959 184.14 446.742 183.753 447.879 183.496C448.765 183.274 449.694 183.316 450.558 183.618C451.422 183.92 452.187 184.47 452.762 185.203Z" fill="#1B1E25"/>
<path d="M459.195 202.176C458.91 205.495 456.953 208.897 458.121 211.978C459.289 215.058 462.948 216.031 466.085 216.54C466.601 216.624 473.199 217.964 473.243 217.829C473.982 215.58 474.74 213.279 476.113 211.385C477.486 209.49 479.605 208.027 481.847 208.131C481.226 207.944 480.978 207.093 481.12 206.416C481.337 205.748 481.611 205.1 481.941 204.483C482.26 203.696 482.366 202.833 482.247 201.988C482.128 201.143 481.787 200.347 481.263 199.689C479.139 197.149 474.771 197.62 473.025 194.778C471.944 193.019 472.336 190.679 471.888 188.624C471.012 184.654 467.055 183.404 464.215 181.335C461.221 179.157 458.319 177.817 454.573 178.042C449.932 178.319 446.037 182.759 447.329 187.49C448.982 193.56 458.052 194.063 459.133 200.159C459.244 200.825 459.265 201.504 459.195 202.176Z" fill="#1B1E25"/>
<path d="M456.218 214.786L449.309 224.916L446.06 224.639L440.648 214.367L456.218 214.786Z" fill="#282D30"/>
<path d="M440.655 214.368L428.098 215.077C428.098 215.077 414.002 222.269 413.07 221.74C412.138 221.212 396.916 189.57 396.916 189.57L389.461 192.084L398.78 228.268L407.795 237.935L433.268 233.533L440.655 214.368Z" fill="#1B1E25"/>
<path d="M390.605 191.628L388.604 188.529C387.871 187.401 388.909 182.851 388.996 181.44C389.045 180.621 392.779 182.303 393.115 182.774C393.693 183.579 393.686 186.164 393.929 187.253L395.836 188.02L395.588 190.733L390.605 191.628Z" fill="#BFA296"/>
<path d="M126.834 97.9467L87.5938 79.5548V30.5977L126.834 48.9896V97.9467Z" fill="#44486C"/>
<path d="M126.836 97.9467L166.082 79.5548V30.5977L126.836 48.9896V97.9467Z" fill="#434370"/>
<path d="M87.5938 30.5981L126.834 48.99L166.08 30.5981L126.834 13.8945L87.5938 30.5981Z" fill="#5353A8"/>
<path d="M440.228 70.6229L407.25 55.1631V14.0293L440.228 29.4827V70.6229Z" fill="#414467"/>
<path d="M440.219 70.6229L473.19 55.1631V14.0293L440.219 29.4827V70.6229Z" fill="#4D4D8C"/>
<path d="M407.25 14.0292L440.228 29.4825L473.199 14.0292L440.228 0L407.25 14.0292Z" fill="#5959A0"/>
<path d="M240.719 109.676L236.097 107.505L236.911 105.636L241.533 107.808L240.719 109.676ZM232.494 105.81L227.088 103.271L227.909 101.402L233.308 103.941L232.494 105.81ZM223.491 101.582L218.086 99.0435L218.9 97.1746L224.305 99.7137L223.491 101.582ZM214.483 97.3679L209.115 94.7902L209.929 92.9214L215.334 95.454L214.483 97.3679ZM205.48 93.1405L200.081 90.6015L200.895 88.7326L206.294 91.2717L205.48 93.1405ZM196.478 88.9131L191.073 86.374L191.893 84.5052L197.31 87.0571L196.478 88.9131ZM187.476 84.6792L182.07 82.1401L182.884 80.2777L188.289 82.8103L187.476 84.6792ZM178.467 80.4517L173.08 77.8933L173.894 76.0245L179.299 78.5636L178.467 80.4517ZM169.465 76.2243L164.066 73.6852L164.88 71.8164L170.278 74.3554L169.465 76.2243ZM160.462 71.9904L155.057 69.4513L155.877 67.589L161.276 70.1216L160.462 71.9904ZM151.46 67.7243L146.055 65.1852L146.869 63.3164L152.274 65.8555L151.46 67.7243Z" fill="#70DF00"/>
<path d="M47.3367 109.835L46.1562 108.185L48.5979 106.31L49.7783 107.96L47.3367 109.835ZM52.9282 105.517L51.754 103.868L56.5192 100.207L57.6935 101.851L52.9282 105.517ZM60.8682 99.4147L59.694 97.765L64.4592 94.1046L65.6334 95.7479L60.8682 99.4147ZM68.8144 93.3055L67.634 91.6623L72.3992 87.9955L73.5734 89.6452L68.8144 93.3055ZM76.7792 87.2028L75.5988 85.5531L80.364 81.8927L81.5445 83.5425L76.7792 87.2028ZM84.7192 81.1001L83.5388 79.4504L88.304 75.79L89.4845 77.4333L84.7192 81.1001ZM92.6592 74.9909L91.485 73.3476L96.2502 69.6808L97.4244 71.3306L92.6592 74.9909ZM100.599 68.8882L99.425 67.2449L104.19 63.5781L105.364 65.2279L100.599 68.8882Z" fill="#70DF00"/>
<path d="M33.4754 170.148L0.503906 154.688V113.555L33.4754 129.008V170.148Z" fill="#414467"/>
<path d="M33.4766 170.148L66.4542 154.688V113.555L33.4766 129.008V170.148Z" fill="#4D4D8C"/>
<path d="M0.503906 113.557L33.4754 129.01L66.453 113.557L33.4754 99.5273L0.503906 113.557Z" fill="#5959A0"/>
<path d="M239.155 119.277L238.422 117.343L238.59 117.272L239.317 119.206L239.155 119.277ZM242.995 117.691L242.261 115.758L247.778 113.49L248.505 115.423L242.995 117.691ZM252.177 113.908L251.45 111.975L256.961 109.7L257.694 111.634L252.177 113.908ZM261.366 110.119L260.633 108.186L266.15 105.918L266.877 107.851L261.366 110.119ZM270.548 106.336L269.821 104.403L275.332 102.135L276.065 104.036L270.548 106.336ZM279.737 102.521L279.004 100.62L284.521 98.3455L285.248 100.279L279.737 102.521ZM288.926 98.7386L288.193 96.8053L293.704 94.537L294.437 96.438L288.926 98.7386ZM298.108 94.9494L297.382 93.0483L302.892 90.7735L303.619 92.7068L298.108 94.9494ZM307.272 91.1924L306.539 89.2591L312.05 86.9907L312.783 88.8918L307.272 91.1924ZM316.455 87.4031L315.728 85.5021L321.239 83.2273L321.966 85.1605L316.455 87.4031ZM325.644 83.6204L324.911 81.6871L330.421 79.4187L331.154 81.352L325.644 83.6204ZM334.826 79.8376L334.099 77.9043L339.61 75.6295L340.337 77.5628L334.826 79.8376ZM344.015 76.0483L343.307 74.1666L348.818 71.8982L349.551 73.8315L344.015 76.0483ZM353.247 72.2656L352.52 70.3323L358.031 68.0639L358.758 69.9972L353.247 72.2656ZM362.436 68.4763L361.703 66.5753L367.214 64.3004L367.947 66.2337L362.436 68.4763ZM371.619 64.6935L370.892 62.7603L376.402 60.4919L377.129 62.4252L371.619 64.6935ZM380.807 60.9043L380.074 59.0032L385.585 56.7284L386.318 58.6617L380.807 60.9043ZM389.99 57.1215L389.263 55.1882L394.774 52.9198L395.501 54.8531L389.99 57.1215ZM399.179 53.3387L398.446 51.4054L403.963 49.1306L404.689 51.0639L399.179 53.3387ZM408.361 49.5495L407.634 47.6162L413.145 45.3478L413.878 47.2811L408.361 49.5495ZM417.55 45.7667L416.817 43.8334L422.334 41.5586L423.061 43.4919L417.55 45.7667Z" fill="#70DF00"/>
<path d="M272.216 175.691L205.359 144.359V60.957L272.216 92.2891V175.691Z" fill="#414467"/>
<path d="M272.211 175.691L339.067 144.359V60.957L272.211 92.2891V175.691Z" fill="#4D4D8C"/>
<path d="M205.359 60.9554L272.216 92.2874L339.072 60.9554L272.216 32.5039L205.359 60.9554Z" fill="#5959A0"/>
<path d="M382.82 155.287L377.409 152.774L378.217 150.905L383.628 153.419L382.82 155.287ZM373.799 151.099L368.388 148.585L369.196 146.717L374.607 149.23L373.799 151.099ZM364.778 146.91L359.367 144.397L360.175 142.528L365.586 145.041L364.778 146.91ZM355.732 142.721L350.321 140.208L351.129 138.333L356.54 140.852L355.732 142.721ZM346.711 138.532L341.3 136.019L342.108 134.144L347.519 136.657L346.711 138.532ZM337.715 134.344L332.304 131.83L333.111 129.955L338.523 132.468L337.715 134.344ZM328.694 130.148L323.283 127.635L324.09 125.766L329.502 128.279L328.694 130.148ZM319.698 125.96L314.287 123.446L315.094 121.577L320.506 124.091L319.698 125.96ZM310.677 121.771L305.266 119.258L306.073 117.389L311.485 119.902L310.677 121.771Z" fill="#70DF00"/>
<path d="M184.59 156.01L183.516 154.289L188.486 150.945L189.561 152.665L184.59 156.01ZM192.885 150.436L191.81 148.715L196.78 145.364L197.855 147.084L192.885 150.436ZM201.179 144.855L200.104 143.121L205.074 139.777L206.149 141.497L201.179 144.855ZM209.473 139.255L208.398 137.534L213.368 134.183L214.443 135.904L209.473 139.255ZM217.767 133.674L216.692 131.953L221.662 128.609L222.737 130.329L217.767 133.674ZM226.061 128.093L224.98 126.366L229.95 123.022L231.025 124.742L226.061 128.093ZM234.349 122.519L233.274 120.798L238.244 117.447L239.319 119.168L234.349 122.519Z" fill="#70DF00"/>
<path d="M161.734 244.018L116.008 222.585V165.553L161.734 186.98V244.018Z" fill="#414467"/>
<path d="M161.734 244.018L207.455 222.585V165.553L161.734 186.98V244.018Z" fill="#4D4D8C"/>
<path d="M116.008 165.554L161.734 186.981L207.454 165.554L161.734 146.092L116.008 165.554Z" fill="#5959A0"/>
<path d="M408.376 194.649L362.656 173.222V116.184L408.376 137.611V194.649Z" fill="#44486C"/>
<path d="M408.375 194.649L454.101 173.222V116.184L408.375 137.611V194.649Z" fill="#434370"/>
<path d="M362.656 116.182L408.376 137.609L454.103 116.182L408.376 96.7266L362.656 116.182Z" fill="#5353A8"/>
<path d="M449.068 281.523C447.72 282.948 445.856 284.178 443.942 283.921C443.178 283.824 442.42 283.682 441.669 283.508C441.068 283.405 440.499 283.16 440.003 282.793C439.757 282.596 439.572 282.329 439.47 282.025C439.369 281.72 439.355 281.391 439.432 281.079C439.711 280.215 440.724 279.983 441.47 279.519C442.389 278.933 442.955 277.889 443.681 277.045C445.34 275.111 447.571 274.937 449.683 273.906C450.171 274.348 450.622 274.83 451.031 275.35C451.795 276.239 451.864 276.432 451.429 277.56C450.897 279.027 450.095 280.374 449.068 281.523Z" fill="#BFA296"/>
<path d="M463.552 216.09L481.631 244.651L478.91 260.562L450.909 280.687L445.641 275.906L464.36 251.359L463.633 235.848L463.552 216.09Z" fill="#1B1E25"/>
</svg>
