<svg width="99" height="99" viewBox="0 0 99 99" fill="none" xmlns="http://www.w3.org/2000/svg">
<path d="M61.9278 32.8738L71.4146 27.5745C71.4561 27.5513 71.5065 27.5506 71.5487 27.5727L80.5314 32.2755M61.9278 32.8738L71.5452 37.7026M61.9278 32.8738L61.9278 36.9981M80.5314 32.2755L71.5452 37.7026M80.5314 32.2755L80.5314 44.6625C80.5314 44.715 80.5023 44.7631 80.4558 44.7874L71.5452 49.4399M71.5452 37.7026L71.5452 49.4399M71.5452 49.4399L67.8003 47.4792" stroke="#81FC05" stroke-width="1.19769" stroke-linejoin="round"/>
<path d="M49.0332 40.7449L58.5201 35.4456C58.5616 35.4224 58.612 35.4217 58.6541 35.4438L67.6369 40.1466M49.0332 40.7449L58.3956 45.6465M49.0332 40.7449L49.2684 52.4313C49.2695 52.4832 49.299 52.5303 49.3452 52.5539L58.6507 57.311M67.6369 40.1466L58.3956 45.6465M67.6369 40.1466L67.6369 52.4311C67.6369 52.4831 67.6082 52.5309 67.5623 52.5554L58.6507 57.311M58.3956 45.6465L58.6507 57.311" stroke="#81FC05" stroke-width="1.19769" stroke-linejoin="round"/>
<path d="M49.6887 57.607L49.3561 57.109C49.1859 57.2227 49.0855 57.4154 49.09 57.6201L49.6887 57.607ZM53.8283 55.5622L54.3263 55.2296L53.6611 54.2336L53.1631 54.5662L53.8283 55.5622ZM68.6044 57.172L69.2033 57.1674C69.2016 56.9529 69.0854 56.7557 68.8985 56.6504L68.6044 57.172ZM59.3062 74.173L59.3062 74.7719C59.4047 74.7719 59.5018 74.7475 59.5887 74.701L59.3062 74.173ZM64.358 54.0906C64.0699 53.9282 63.7046 54.0301 63.5422 54.3182C63.3798 54.6063 63.4817 54.9715 63.7698 55.134L64.358 54.0906ZM41.1672 73.5742C40.8365 73.5742 40.5684 73.8423 40.5684 74.173C40.5684 74.5038 40.8365 74.7719 41.1672 74.7719L41.1672 73.5742ZM68.6955 69.0634L68.0967 69.068L68.6955 69.0634ZM68.6211 69.1888L68.9036 69.7168L68.6211 69.1888ZM49.9419 69.1883L50.5407 69.1752L49.9419 69.1883ZM50.0213 58.105L53.8283 55.5622L53.1631 54.5662L49.3561 57.109L50.0213 58.105ZM68.3124 56.6492L58.759 61.9857L59.3431 63.0313L68.8965 57.6948L68.3124 56.6492ZM59.3288 61.978L49.9664 57.0764L49.4109 58.1375L58.7733 63.0391L59.3288 61.978ZM49.09 57.6201L49.3432 69.2014L50.5407 69.1752L50.2874 57.5939L49.09 57.6201ZM68.0056 57.1766L68.0967 69.068L69.2943 69.0589L69.2033 57.1674L68.0056 57.1766ZM68.3385 68.6607L59.0236 73.645L59.5887 74.701L68.9036 69.7168L68.3385 68.6607ZM59.9049 74.1599L59.6498 62.4954L58.4524 62.5216L58.7075 74.1861L59.9049 74.1599ZM49.7397 69.8406L59.0284 74.7036L59.5839 73.6425L50.2952 68.7795L49.7397 69.8406ZM68.8985 56.6504L64.358 54.0906L63.7698 55.134L68.3104 57.6937L68.8985 56.6504ZM59.3062 73.5742L41.1672 73.5742L41.1672 74.7719L59.3062 74.7719L59.3062 73.5742ZM68.0967 69.068C68.0954 68.8979 68.1885 68.741 68.3385 68.6607L68.9036 69.7168C69.146 69.5871 69.2964 69.3337 69.2943 69.0589L68.0967 69.068ZM49.3432 69.2014C49.3491 69.4707 49.501 69.7156 49.7397 69.8406L50.2952 68.7795C50.443 68.8569 50.537 69.0084 50.5407 69.1752L49.3432 69.2014Z" fill="#81FC05"/>
<path d="M81.354 49.8392L71.8006 55.1757M81.354 49.8392L81.445 61.7306C81.4454 61.783 81.4168 61.8312 81.3706 61.8559L72.0557 66.8402M81.354 49.8392L76.7476 46.8635M71.8006 55.1757L72.0557 66.8402M71.8006 55.1757L67.5887 52.4998M68.6228 65.0429L72.0557 66.8402" stroke="#81FC05" stroke-width="1.19769" stroke-linejoin="round"/>
<path d="M58.3732 20.6757L49.3486 26.0467C49.2539 26.103 49.2577 26.2415 49.3553 26.2926L58.4943 31.0772M58.3732 20.6757L67.7356 25.5773M58.3732 20.6757L41.5186 20.6757M67.7356 25.5773L58.4943 31.0772M67.7356 25.5773L67.6622 29.515M58.4943 31.0772L58.4943 35.238" stroke="#81FC05" stroke-width="1.19769" stroke-linecap="round" stroke-linejoin="round"/>
<path d="M46.7384 27.6668C46.4476 27.5093 46.0842 27.6173 45.9266 27.9081C45.769 28.1989 45.877 28.5623 46.1678 28.7199L46.7384 27.6668ZM55.1544 32.9079L55.7532 32.9079C55.7532 32.6882 55.6328 32.4861 55.4396 32.3814L55.1544 32.9079ZM37.9343 45.2812C37.6442 45.1224 37.2802 45.2287 37.1214 45.5188C36.9625 45.8089 37.0688 46.1728 37.3589 46.3317L37.9343 45.2812ZM46.0048 50.3844L45.7171 50.9096C45.9093 51.0149 46.1437 51.0068 46.3281 50.8884L46.0048 50.3844ZM54.5555 37.3526C54.5555 37.6833 54.8236 37.9515 55.1544 37.9515C55.4851 37.9515 55.7532 37.6833 55.7532 37.3526L54.5555 37.3526ZM49.242 49.0189L49.746 48.6956L49.0993 47.6875L48.5952 48.0109L49.242 49.0189ZM45.9825 38.3665L45.6763 37.8519L45.9825 38.3665ZM45.9137 38.4887L45.3149 38.4933L45.9137 38.4887ZM46.1678 28.7199L54.8691 33.4345L55.4396 32.3814L46.7384 27.6668L46.1678 28.7199ZM54.8481 32.3933L45.6763 37.8519L46.2888 38.8811L55.4606 33.4226L54.8481 32.3933ZM45.3149 38.4933L45.4059 50.389L46.6036 50.3798L46.5125 38.4841L45.3149 38.4933ZM54.5555 32.9079L54.5555 37.3526L55.7532 37.3526L55.7532 32.9079L54.5555 32.9079ZM46.3281 50.8884L49.242 49.0189L48.5952 48.0109L45.6814 49.8804L46.3281 50.8884ZM37.3589 46.3317L45.7171 50.9096L46.2924 49.8592L37.9343 45.2812L37.3589 46.3317ZM45.6763 37.8519C45.4504 37.9863 45.3128 38.2305 45.3149 38.4933L46.5125 38.4841C46.5138 38.6468 46.4286 38.7979 46.2888 38.8811L45.6763 37.8519Z" fill="#81FC05"/>
<path d="M45.9467 54.921L46.0388 66.8975M45.9467 54.921L49.2724 52.4967M45.9467 54.921L39.057 51.088M36.5912 62.0077L46.0388 66.8975M46.0388 66.8975L49.6248 64.6971" stroke="#81FC05" stroke-width="1.19769" stroke-linecap="round" stroke-linejoin="round"/>
<path d="M43.6339 28.082L21.4414 27.8398" stroke="#81FC05" stroke-width="1.19769" stroke-linecap="round" stroke-linejoin="round"/>
<path d="M32.7119 62.0098H16.5078" stroke="#81FC05" stroke-width="1.19769" stroke-linecap="round" stroke-linejoin="round"/>
<path d="M22.1482 37.7031H14.3984" stroke="#81FC05" stroke-width="1.19769" stroke-linecap="round" stroke-linejoin="round"/>
<path d="M29.8976 37.7031H26.375" stroke="#81FC05" stroke-width="1.19769" stroke-linecap="round" stroke-linejoin="round"/>
<path d="M36.2375 20.7949H32.7148" stroke="#81FC05" stroke-width="1.19769" stroke-linecap="round" stroke-linejoin="round"/>
<path d="M36.9406 74.3398H33.418" stroke="#81FC05" stroke-width="1.19769" stroke-linecap="round" stroke-linejoin="round"/>
<path d="M29.1906 20.7949H25.668" stroke="#81FC05" stroke-width="1.19769" stroke-linecap="round" stroke-linejoin="round"/>
<path d="M42.5793 37.7031H34.125" stroke="#81FC05" stroke-width="1.19769" stroke-linecap="round" stroke-linejoin="round"/>
<path d="M36.235 51.0898H22.1445" stroke="#81FC05" stroke-width="1.19769" stroke-linecap="round" stroke-linejoin="round"/>
<path d="M19.3279 51.0898H11.5781" stroke="#81FC05" stroke-width="1.19769" stroke-linecap="round" stroke-linejoin="round"/>
</svg>
