<svg width="147" height="44" viewBox="0 0 147 44" fill="none" xmlns="http://www.w3.org/2000/svg">
<path d="M132.47 26.4688C130.828 29.3081 128.106 30.9375 125 30.9375C121.894 30.9375 119.172 29.3081 117.53 26.4688C117.448 26.3116 117.43 26.1288 117.479 25.9585C117.529 25.7882 117.642 25.6436 117.795 25.5549C117.949 25.4661 118.131 25.4401 118.303 25.4823C118.475 25.5245 118.625 25.6316 118.72 25.7812C120.131 28.2202 122.362 29.5625 125 29.5625C127.638 29.5625 129.869 28.2202 131.28 25.7812C131.323 25.6991 131.382 25.6265 131.454 25.5678C131.526 25.5091 131.609 25.4655 131.698 25.4396C131.787 25.4138 131.88 25.4063 131.972 25.4174C132.064 25.4286 132.153 25.4583 132.234 25.5047C132.314 25.5511 132.384 25.6133 132.44 25.6875C132.495 25.7616 132.535 25.8463 132.557 25.9364C132.579 26.0264 132.583 26.12 132.568 26.2115C132.553 26.303 132.519 26.3905 132.47 26.4688ZM142.188 22C142.188 25.3994 141.179 28.7224 139.291 31.5489C137.402 34.3753 134.718 36.5783 131.577 37.8792C128.437 39.1801 124.981 39.5204 121.647 38.8572C118.313 38.1941 115.25 36.5571 112.847 34.1534C110.443 31.7497 108.806 28.6872 108.143 25.3531C107.48 22.0191 107.82 18.5632 109.121 15.4226C110.422 12.282 112.625 9.5977 115.451 7.70912C118.278 5.82053 121.601 4.8125 125 4.8125C129.557 4.8175 133.926 6.62993 137.148 9.85213C140.37 13.0743 142.183 17.4431 142.188 22ZM140.813 22C140.813 18.8726 139.885 15.8154 138.148 13.215C136.41 10.6147 133.941 8.58797 131.051 7.39115C128.162 6.19434 124.982 5.8812 121.915 6.49133C118.848 7.10146 116.03 8.60746 113.819 10.8189C111.607 13.0303 110.101 15.8478 109.491 18.9151C108.881 21.9825 109.194 25.1618 110.391 28.0512C111.588 30.9405 113.615 33.4101 116.215 35.1476C118.815 36.8851 121.873 37.8125 125 37.8125C129.192 37.808 133.212 36.1405 136.176 33.1761C139.141 30.2117 140.808 26.1923 140.813 22ZM118.813 19.9375C119.084 19.9375 119.35 19.8569 119.576 19.7058C119.803 19.5547 119.979 19.3399 120.083 19.0887C120.187 18.8374 120.214 18.561 120.161 18.2943C120.108 18.0275 119.977 17.7825 119.785 17.5902C119.592 17.3979 119.347 17.267 119.081 17.2139C118.814 17.1609 118.538 17.1881 118.286 17.2922C118.035 17.3962 117.82 17.5725 117.669 17.7986C117.518 18.0247 117.438 18.2906 117.438 18.5625C117.438 18.9272 117.582 19.2769 117.84 19.5348C118.098 19.7926 118.448 19.9375 118.813 19.9375ZM131.188 17.1875C130.916 17.1875 130.65 17.2681 130.424 17.4192C130.197 17.5703 130.021 17.7851 129.917 18.0363C129.813 18.2876 129.786 18.564 129.839 18.8307C129.892 19.0975 130.023 19.3425 130.215 19.5348C130.408 19.7271 130.653 19.858 130.919 19.9111C131.186 19.9641 131.462 19.9369 131.714 19.8328C131.965 19.7288 132.18 19.5525 132.331 19.3264C132.482 19.1003 132.563 18.8344 132.563 18.5625C132.563 18.1978 132.418 17.8481 132.16 17.5902C131.902 17.3324 131.552 17.1875 131.188 17.1875Z" fill="#F9F9F9"/>
<path d="M1 21C0.447715 21 0 21.4477 0 22C0 22.5523 0.447715 23 1 23V21ZM96.7124 22.7071C97.1029 22.3166 97.1029 21.6834 96.7124 21.2929L90.3484 14.9289C89.9579 14.5384 89.3247 14.5384 88.9342 14.9289C88.5437 15.3195 88.5437 15.9526 88.9342 16.3431L94.5911 22L88.9342 27.6569C88.5437 28.0474 88.5437 28.6805 88.9342 29.0711C89.3247 29.4616 89.9579 29.4616 90.3484 29.0711L96.7124 22.7071ZM1 23H2.97928V21H1V23ZM6.93783 23H10.8964V21H6.93783V23ZM14.8549 23H18.8135V21H14.8549V23ZM22.772 23H26.7306V21H22.772V23ZM30.6891 23H34.6477V21H30.6891V23ZM38.6063 23H42.5648V21H38.6063V23ZM46.5234 23H50.4819V21H46.5234V23ZM54.4405 23H58.399V21H54.4405V23ZM62.3576 23H66.3161V21H62.3576V23ZM70.2747 23H74.2332V21H70.2747V23ZM78.1918 23H82.1503V21H78.1918V23ZM86.1089 23H90.0674V21H86.1089V23ZM94.026 23H96.0053V21H94.026V23ZM1 21C0.447715 21 0 21.4477 0 22C0 22.5523 0.447715 23 1 23V21ZM96.7124 22.7071C97.1029 22.3166 97.1029 21.6834 96.7124 21.2929L90.3484 14.9289C89.9579 14.5384 89.3247 14.5384 88.9342 14.9289C88.5437 15.3195 88.5437 15.9526 88.9342 16.3431L94.5911 22L88.9342 27.6569C88.5437 28.0474 88.5437 28.6805 88.9342 29.0711C89.3247 29.4616 89.9579 29.4616 90.3484 29.0711L96.7124 22.7071ZM1 23H2.97928V21H1V23ZM6.93783 23H10.8964V21H6.93783V23ZM14.8549 23H18.8135V21H14.8549V23ZM22.772 23H26.7306V21H22.772V23ZM30.6891 23H34.6477V21H30.6891V23ZM38.6063 23H42.5648V21H38.6063V23ZM46.5234 23H50.4819V21H46.5234V23ZM54.4405 23H58.399V21H54.4405V23ZM62.3576 23H66.3161V21H62.3576V23ZM70.2747 23H74.2332V21H70.2747V23ZM78.1918 23H82.1503V21H78.1918V23ZM86.1089 23H90.0674V21H86.1089V23ZM94.026 23H96.0053V21H94.026V23Z" fill="white"/>
</svg>
