<svg width="99" height="99" viewBox="0 0 99 99" fill="none" xmlns="http://www.w3.org/2000/svg">
<path fill-rule="evenodd" clip-rule="evenodd" d="M58.8636 22.2999C59.1545 22.4586 59.2617 22.8231 59.1031 23.114C58.2983 24.5894 57.3056 25.4912 56.2071 26.0491C55.1242 26.5991 53.9739 26.7957 52.8957 26.9226C52.6175 26.9553 52.3471 26.9833 52.0834 27.0106C51.2935 27.0924 50.5635 27.168 49.8639 27.3457C48.963 27.5745 48.1796 27.961 47.5319 28.717C46.9245 29.4261 46.859 30.0909 47.0465 30.7781C47.2496 31.5224 47.7486 32.2841 48.3204 33.1102L48.4486 33.2949C48.955 34.0234 49.5104 34.8223 49.7577 35.5975C49.8979 36.037 49.9554 36.5117 49.8313 36.9938C49.811 37.0729 49.7862 37.1505 49.7569 37.2267H52.3766C52.8184 37.2267 53.1766 37.5848 53.1766 38.0267V41.7267H82.5766C84.0125 41.7267 85.1766 42.8907 85.1766 44.3267V73.3267C85.1766 74.7626 84.0125 75.9267 82.5766 75.9267H15.5766C14.1406 75.9267 12.9766 74.7626 12.9766 73.3267V44.3267C12.9766 42.8907 14.1406 41.7267 15.5766 41.7267H44.4766V38.0267C44.4766 37.5848 44.8347 37.2267 45.2766 37.2267H48.3443C48.5365 37.0324 48.6282 36.8541 48.6692 36.6947C48.7211 36.4932 48.7084 36.257 48.6144 35.9621C48.4248 35.3675 47.9718 34.7139 47.4252 33.9252L47.3337 33.7932C46.7807 32.9942 46.1547 32.0684 45.8888 31.094C45.6073 30.0625 45.7288 28.9773 46.6206 27.9363C47.4721 26.9424 48.5007 26.4538 49.5685 26.1826C50.3611 25.9813 51.214 25.8933 52.0251 25.8096C52.2735 25.784 52.5179 25.7587 52.7555 25.7308C53.8026 25.6076 54.7776 25.4292 55.6638 24.9792C56.5343 24.5371 57.3544 23.8139 58.0496 22.5394C58.2083 22.2485 58.5727 22.1413 58.8636 22.2999ZM45.6766 41.7267V38.4267H51.9766V41.7267H45.6766ZM14.1766 44.3267C14.1766 43.5535 14.8034 42.9267 15.5766 42.9267H82.5766C83.3498 42.9267 83.9766 43.5535 83.9766 44.3267V73.3267C83.9766 74.0999 83.3498 74.7267 82.5766 74.7267H15.5766C14.8034 74.7267 14.1766 74.0999 14.1766 73.3267V44.3267ZM19.1766 52.7267V47.9267H23.4766V52.7267H19.1766ZM18.7766 46.7267C18.3347 46.7267 17.9766 47.0848 17.9766 47.5267V53.1267C17.9766 53.5685 18.3347 53.9267 18.7766 53.9267H23.8766C24.3184 53.9267 24.6766 53.5685 24.6766 53.1267V47.5267C24.6766 47.0848 24.3184 46.7267 23.8766 46.7267H18.7766ZM19.1766 56.9267V61.7267H23.4766V56.9267H19.1766ZM17.9766 56.5267C17.9766 56.0848 18.3347 55.7267 18.7766 55.7267H23.8766C24.3184 55.7267 24.6766 56.0848 24.6766 56.5267V62.1267C24.6766 62.5685 24.3184 62.9267 23.8766 62.9267H18.7766C18.3347 62.9267 17.9766 62.5685 17.9766 62.1267V56.5267ZM19.1766 70.7267V65.9267H23.4766V70.7267H19.1766ZM18.7766 64.7267C18.3347 64.7267 17.9766 65.0848 17.9766 65.5267V71.1267C17.9766 71.5685 18.3347 71.9267 18.7766 71.9267H23.8766C24.3184 71.9267 24.6766 71.5685 24.6766 71.1267V65.5267C24.6766 65.0848 24.3184 64.7267 23.8766 64.7267H18.7766ZM55.1766 65.9267V70.7267H59.4766V65.9267H55.1766ZM53.9766 65.5267C53.9766 65.0848 54.3347 64.7267 54.7766 64.7267H59.8766C60.3184 64.7267 60.6766 65.0848 60.6766 65.5267V71.1267C60.6766 71.5685 60.3184 71.9267 59.8766 71.9267H54.7766C54.3347 71.9267 53.9766 71.5685 53.9766 71.1267V65.5267ZM64.1766 70.7267V65.9267H68.4766V70.7267H64.1766ZM63.7766 64.7267C63.3347 64.7267 62.9766 65.0848 62.9766 65.5267V71.1267C62.9766 71.5685 63.3347 71.9267 63.7766 71.9267H68.8766C69.3184 71.9267 69.6766 71.5685 69.6766 71.1267V65.5267C69.6766 65.0848 69.3184 64.7267 68.8766 64.7267H63.7766ZM74.1766 56.9267V70.7267H78.9766V56.9267H74.1766ZM72.9766 56.5267C72.9766 56.0848 73.3347 55.7267 73.7766 55.7267H79.3766C79.8184 55.7267 80.1766 56.0848 80.1766 56.5267V71.1267C80.1766 71.5685 79.8184 71.9267 79.3766 71.9267H73.7766C73.3347 71.9267 72.9766 71.5685 72.9766 71.1267V56.5267ZM28.1766 61.7267V56.9267H32.4766V61.7267H28.1766ZM27.7766 55.7267C27.3347 55.7267 26.9766 56.0848 26.9766 56.5267V62.1267C26.9766 62.5685 27.3347 62.9267 27.7766 62.9267H32.8766C33.3184 62.9267 33.6766 62.5685 33.6766 62.1267V56.5267C33.6766 56.0848 33.3184 55.7267 32.8766 55.7267H27.7766ZM37.1766 56.9267V61.7267H41.4766V56.9267H37.1766ZM35.9766 56.5267C35.9766 56.0848 36.3347 55.7267 36.7766 55.7267H41.8766C42.3184 55.7267 42.6766 56.0848 42.6766 56.5267V62.1267C42.6766 62.5685 42.3184 62.9267 41.8766 62.9267H36.7766C36.3347 62.9267 35.9766 62.5685 35.9766 62.1267V56.5267ZM46.1766 61.7267V56.9267H50.4766V61.7267H46.1766ZM45.7766 55.7267C45.3347 55.7267 44.9766 56.0848 44.9766 56.5267V62.1267C44.9766 62.5685 45.3347 62.9267 45.7766 62.9267H50.8766C51.3184 62.9267 51.6766 62.5685 51.6766 62.1267V56.5267C51.6766 56.0848 51.3184 55.7267 50.8766 55.7267H45.7766ZM55.1766 56.9267V61.7267H59.4766V56.9267H55.1766ZM53.9766 56.5267C53.9766 56.0848 54.3347 55.7267 54.7766 55.7267H59.8766C60.3184 55.7267 60.6766 56.0848 60.6766 56.5267V62.1267C60.6766 62.5685 60.3184 62.9267 59.8766 62.9267H54.7766C54.3347 62.9267 53.9766 62.5685 53.9766 62.1267V56.5267ZM64.1766 61.7267V56.9267H68.4766V61.7267H64.1766ZM63.7766 55.7267C63.3347 55.7267 62.9766 56.0848 62.9766 56.5267V62.1267C62.9766 62.5685 63.3347 62.9267 63.7766 62.9267H68.8766C69.3184 62.9267 69.6766 62.5685 69.6766 62.1267V56.5267C69.6766 56.0848 69.3184 55.7267 68.8766 55.7267H63.7766ZM28.1766 47.9267V52.7267H32.4766V47.9267H28.1766ZM26.9766 47.5267C26.9766 47.0848 27.3347 46.7267 27.7766 46.7267H32.8766C33.3184 46.7267 33.6766 47.0848 33.6766 47.5267V53.1267C33.6766 53.5685 33.3184 53.9267 32.8766 53.9267H27.7766C27.3347 53.9267 26.9766 53.5685 26.9766 53.1267V47.5267ZM37.1766 52.7267V47.9267H41.4766V52.7267H37.1766ZM36.7766 46.7267C36.3347 46.7267 35.9766 47.0848 35.9766 47.5267V53.1267C35.9766 53.5685 36.3347 53.9267 36.7766 53.9267H41.8766C42.3184 53.9267 42.6766 53.5685 42.6766 53.1267V47.5267C42.6766 47.0848 42.3184 46.7267 41.8766 46.7267H36.7766ZM46.1766 47.9267V52.7267H50.4766V47.9267H46.1766ZM44.9766 47.5267C44.9766 47.0848 45.3347 46.7267 45.7766 46.7267H50.8766C51.3184 46.7267 51.6766 47.0848 51.6766 47.5267V53.1267C51.6766 53.5685 51.3184 53.9267 50.8766 53.9267H45.7766C45.3347 53.9267 44.9766 53.5685 44.9766 53.1267V47.5267ZM55.1766 52.7267V47.9267H59.4766V52.7267H55.1766ZM54.7766 46.7267C54.3347 46.7267 53.9766 47.0848 53.9766 47.5267V53.1267C53.9766 53.5685 54.3347 53.9267 54.7766 53.9267H59.8766C60.3184 53.9267 60.6766 53.5685 60.6766 53.1267V47.5267C60.6766 47.0848 60.3184 46.7267 59.8766 46.7267H54.7766ZM64.1766 47.9267V52.7267H78.9766V47.9267H64.1766ZM62.9766 47.5267C62.9766 47.0848 63.3347 46.7267 63.7766 46.7267H79.3766C79.8184 46.7267 80.1766 47.0848 80.1766 47.5267V53.1267C80.1766 53.5685 79.8184 53.9267 79.3766 53.9267H63.7766C63.3347 53.9267 62.9766 53.5685 62.9766 53.1267V47.5267ZM28.1766 70.7267V65.9267H50.9766V70.7267H28.1766ZM27.7766 64.7267C27.3347 64.7267 26.9766 65.0848 26.9766 65.5267V71.1267C26.9766 71.5685 27.3347 71.9267 27.7766 71.9267H51.3766C51.8184 71.9267 52.1766 71.5685 52.1766 71.1267V65.5267C52.1766 65.0848 51.8184 64.7267 51.3766 64.7267H27.7766Z" fill="#81FC05"/>
</svg>
