<svg width="67" height="60" viewBox="0 0 67 60" fill="none" xmlns="http://www.w3.org/2000/svg">
<path d="M33.4105 30.6704V24.0616L32.1562 24.2786V23.1812L34.713 22.7832V30.6704H33.4105Z" fill="#81FC05"/>
<path d="M13.3984 40.7193V40.068C13.6075 39.5776 13.8969 39.1354 14.2668 38.7414C14.6446 38.3475 15.0466 37.9656 15.4728 37.5957C15.7944 37.3143 16.0597 37.0772 16.2687 36.8842C16.4858 36.6832 16.6546 36.5023 16.7752 36.3415C16.8958 36.1807 16.9803 36.0159 17.0285 35.847C17.0767 35.6702 17.1009 35.4651 17.1009 35.232C17.1009 34.8139 16.9803 34.4963 16.7391 34.2792C16.4979 34.0622 16.0959 33.9536 15.5331 33.9536C15.2275 33.9536 14.914 33.9858 14.5924 34.0501C14.2788 34.1144 13.9773 34.2029 13.6879 34.3154V33.1577C13.9693 33.0612 14.3029 32.9848 14.6889 32.9285C15.0748 32.8642 15.4406 32.832 15.7863 32.832C16.6546 32.832 17.3099 33.0451 17.7521 33.4712C18.1943 33.8973 18.4154 34.4802 18.4154 35.2199C18.4154 35.5898 18.3511 35.9194 18.2224 36.2088C18.0938 36.4902 17.9169 36.7596 17.6918 37.0169C17.4667 37.2661 17.2054 37.5234 16.9079 37.7887C16.5381 38.1103 16.1883 38.4239 15.8587 38.7294C15.5371 39.0269 15.2758 39.3525 15.0748 39.7062H18.4998V40.7193H13.3984Z" fill="#81FC05"/>
<path d="M24.4545 50.5884H42.8795M24.4545 50.5884H7.36953M24.4545 50.5884V23.1184M42.8795 50.5884V30.4884M42.8795 50.5884H59.9645M7.36953 50.5884H5.35953C4.61947 50.5884 4.01953 51.1883 4.01953 51.9284V54.6084C4.01953 55.3484 4.61947 55.9484 5.35953 55.9484H61.9745C62.7146 55.9484 63.3145 55.3484 63.3145 54.6084V51.9284C63.3145 51.1883 62.7146 50.5884 61.9745 50.5884H59.9645M7.36953 50.5884V24.4584C7.36953 23.7183 7.96947 23.1184 8.70953 23.1184H24.4545M24.4545 23.1184V6.03336C24.4545 5.2933 25.0545 4.69336 25.7945 4.69336H41.5395C42.2796 4.69336 42.8795 5.2933 42.8795 6.03336V30.4884M42.8795 30.4884H58.6245C59.3646 30.4884 59.9645 31.0883 59.9645 31.8284V50.5884" stroke="#81FC05" stroke-width="1.206"/>
<path d="M51.1132 44.8614C50.8801 44.8614 50.6228 44.8453 50.3414 44.8131C50.06 44.789 49.7907 44.7488 49.5334 44.6925C49.2841 44.6362 49.0751 44.5759 48.9062 44.5116V43.3659C49.2279 43.4946 49.5575 43.591 49.8952 43.6554C50.2409 43.7116 50.5866 43.7398 50.9323 43.7398C51.5595 43.7398 52.0258 43.6473 52.3313 43.4624C52.6368 43.2775 52.7896 42.9519 52.7896 42.4855C52.7896 42.0675 52.6489 41.766 52.3675 41.581C52.0941 41.3961 51.7002 41.3037 51.1856 41.3037H50.0158L50.1243 40.3268H51.1012C52.1223 40.3268 52.6328 39.9248 52.6328 39.1208C52.6328 38.7268 52.4961 38.4374 52.2228 38.2525C51.9574 38.0676 51.5273 37.9751 50.9323 37.9751C50.6027 37.9751 50.269 38.0073 49.9314 38.0716C49.6017 38.1359 49.3083 38.2243 49.051 38.3369V37.2153C49.2922 37.1188 49.6057 37.0344 49.9916 36.9621C50.3776 36.8897 50.7595 36.8535 51.1374 36.8535C52.0861 36.8535 52.7896 37.0545 53.2479 37.4565C53.7142 37.8585 53.9473 38.3731 53.9473 39.0002C53.9473 39.3861 53.8509 39.7479 53.6579 40.0856C53.473 40.4233 53.1795 40.6645 52.7775 40.8092C53.2438 40.9298 53.5815 41.1469 53.7906 41.4604C54.0076 41.774 54.1162 42.1438 54.1162 42.57C54.1162 43.3498 53.8428 43.9287 53.2961 44.3066C52.7494 44.6764 52.0218 44.8614 51.1132 44.8614Z" fill="#81FC05"/>
</svg>
