<svg width="67" height="60" viewBox="0 0 67 60" fill="none" xmlns="http://www.w3.org/2000/svg">
<path d="M8.71094 55.9459V26.1309C8.71094 25.7609 9.01091 25.4609 9.38094 25.4609H16.0809C16.451 25.4609 16.7509 25.7609 16.7509 26.1309V55.9459C16.7509 56.316 16.451 56.6159 16.0809 56.6159H9.38094C9.01091 56.6159 8.71094 56.316 8.71094 55.9459Z" stroke="#81FC05" stroke-width="1.2"/>
<path d="M50.9219 55.6098V18.7598C50.9219 18.3898 51.2218 18.0898 51.5919 18.0898H58.2919C58.6619 18.0898 58.9619 18.3898 58.9619 18.7598V55.6098C58.9619 55.9799 58.6619 56.2798 58.2919 56.2798H51.5919C51.2218 56.2798 50.9219 55.9799 50.9219 55.6098Z" stroke="#81FC05" stroke-width="1.2"/>
<path d="M36.8516 55.6107V28.1407C36.8516 27.7707 37.1515 27.4707 37.5216 27.4707H44.2216C44.5916 27.4707 44.8916 27.7707 44.8916 28.1407V55.6107C44.8916 55.9807 44.5916 56.2807 44.2216 56.2807H37.5216C37.1515 56.2807 36.8516 55.9807 36.8516 55.6107Z" stroke="#81FC05" stroke-width="1.2"/>
<path d="M22.7812 55.6095V38.8595C22.7812 38.4894 23.0812 38.1895 23.4513 38.1895H30.1513C30.5213 38.1895 30.8212 38.4894 30.8212 38.8595V55.6095C30.8212 55.9795 30.5213 56.2795 30.1512 56.2795H23.4512C23.0812 56.2795 22.7812 55.9795 22.7812 55.6095Z" stroke="#81FC05" stroke-width="1.2"/>
<path fill-rule="evenodd" clip-rule="evenodd" d="M54.9437 8.84361C56.1278 8.84361 57.0877 7.88371 57.0877 6.69961C57.0877 5.51551 56.1278 4.55561 54.9437 4.55561C53.7597 4.55561 52.7998 5.51551 52.7998 6.69961C52.7998 7.88371 53.7597 8.84361 54.9437 8.84361ZM54.9437 10.0496C56.7939 10.0496 58.2938 8.54976 58.2938 6.69961C58.2938 4.84946 56.7939 3.34961 54.9437 3.34961C53.0936 3.34961 51.5938 4.84946 51.5938 6.69961C51.5938 7.38386 51.7989 8.0202 52.151 8.55047L43.0416 15.5344C42.4572 15.0379 41.7003 14.7383 40.8734 14.7383C39.0233 14.7383 37.5234 16.2381 37.5234 18.0883C37.5234 18.7517 37.7163 19.37 38.0489 19.8903L28.9658 26.9224C28.3822 26.4286 27.6274 26.1309 26.8031 26.1309C26.1013 26.1309 25.4498 26.3467 24.9115 26.7156L15.4804 16.6558C15.8601 16.1126 16.0828 15.4517 16.0828 14.7387C16.0828 12.8885 14.583 11.3887 12.7328 11.3887C10.8827 11.3887 9.38281 12.8885 9.38281 14.7387C9.38281 16.5888 10.8827 18.0887 12.7328 18.0887C13.4341 18.0887 14.0851 17.8732 14.6232 17.5047L24.0547 27.565C23.6755 28.1079 23.4531 28.7684 23.4531 29.4809C23.4531 31.331 24.953 32.8309 26.8031 32.8309C28.6533 32.8309 30.1531 31.331 30.1531 29.4809C30.1531 28.8905 30.0004 28.3358 29.7323 27.8541L38.8742 20.7766C39.4322 21.1923 40.1241 21.4383 40.8734 21.4383C42.7236 21.4383 44.2234 19.9384 44.2234 18.0883C44.2234 17.5005 44.0721 16.9481 43.8062 16.4679L52.9939 9.42396C53.5431 9.81777 54.2164 10.0496 54.9437 10.0496ZM40.8734 20.2323C42.0575 20.2323 43.0174 19.2724 43.0174 18.0883C43.0174 16.9042 42.0575 15.9443 40.8734 15.9443C39.6893 15.9443 38.7294 16.9042 38.7294 18.0883C38.7294 19.2724 39.6893 20.2323 40.8734 20.2323ZM28.9471 29.4809C28.9471 30.665 27.9872 31.6249 26.8031 31.6249C25.619 31.6249 24.6591 30.665 24.6591 29.4809C24.6591 28.2968 25.619 27.3369 26.8031 27.3369C27.9872 27.3369 28.9471 28.2968 28.9471 29.4809ZM12.7328 16.8827C13.9169 16.8827 14.8768 15.9228 14.8768 14.7387C14.8768 13.5546 13.9169 12.5947 12.7328 12.5947C11.5487 12.5947 10.5888 13.5546 10.5888 14.7387C10.5888 15.9228 11.5487 16.8827 12.7328 16.8827Z" fill="#81FC05"/>
</svg>
