<svg width="67" height="60" viewBox="0 0 67 60" fill="none" xmlns="http://www.w3.org/2000/svg">
<path d="M20.8358 9.15584V12.1265H12.0588C11.7257 12.1265 11.4558 12.3965 11.4558 12.7295V42.9465H8.48508C8.80341 43.2895 9.05077 43.6993 9.2038 44.1525H12.0588C12.3918 44.1525 12.6618 43.8826 12.6618 43.5495V35.1075H20.8358V37.8545C20.8358 37.8881 20.8385 37.9209 20.8438 37.9529C21.1854 37.6395 21.5923 37.3961 22.0418 37.2454V34.5045C22.0418 34.1715 21.7718 33.9015 21.4388 33.9015H12.6618V13.3325H21.4388C21.7718 13.3325 22.0418 13.0626 22.0418 12.7295V9.87456C21.5886 9.72153 21.1788 9.47417 20.8358 9.15584Z" fill="#81FC05"/>
<path fill-rule="evenodd" clip-rule="evenodd" d="M24.1858 37.2496C24.635 37.4022 25.0413 37.6476 25.3821 37.9628C25.3884 37.9277 25.3918 37.8915 25.3918 37.8545V35.1075H33.2308V43.5495C33.2308 43.8826 33.5007 44.1525 33.8338 44.1525H37.0122C37.1585 43.693 37.3979 43.2853 37.7076 42.9465H34.4368V35.1075H55.0058V55.3415H34.4368V47.5025H37.707C37.3974 47.1637 37.1582 46.7561 37.012 46.2965H33.8338C33.5007 46.2965 33.2308 46.5665 33.2308 46.8995V55.3415H12.6618V47.2345C12.6618 46.9015 12.3918 46.6315 12.0588 46.6315H9.07034C8.8518 47.1032 8.52675 47.5155 8.12605 47.8375H11.4558V55.9445C11.4558 56.2776 11.7257 56.5475 12.0588 56.5475H55.6088C55.9418 56.5475 56.2118 56.2776 56.2118 55.9445V26.0625H58.5125C58.1943 25.7195 57.9471 25.3097 57.7942 24.8565H55.6088C55.2757 24.8565 55.0058 25.1265 55.0058 25.4595V33.9015H34.4368V25.4595C34.4368 25.1265 34.1668 24.8565 33.8338 24.8565H30.5108C30.7091 24.4288 30.8197 23.9521 30.8197 23.4496C30.8197 23.1717 30.7859 22.9018 30.7221 22.6436H33.8338C34.1668 22.6436 34.4368 22.3736 34.4368 22.0406V13.3325H42.2758V16.9742C41.6169 17.5859 41.2047 18.4596 41.2047 19.4296C41.2047 21.2798 42.7045 22.7796 44.5547 22.7796C46.4048 22.7796 47.9047 21.2798 47.9047 19.4296C47.9047 18.4587 47.4917 17.5843 46.8318 16.9725V13.3325H55.0058V22.1095C55.0058 22.4426 55.2757 22.7125 55.6088 22.7125H57.7944C57.9474 22.2593 58.1948 21.8495 58.5131 21.5065H56.2118V12.7295C56.2118 12.3965 55.9418 12.1265 55.6088 12.1265H46.2288C45.8957 12.1265 45.6258 12.3965 45.6258 12.7295V16.2545C45.2895 16.1411 44.9293 16.0796 44.5547 16.0796C44.1794 16.0796 43.8186 16.1413 43.4818 16.2551V12.7295C43.4818 12.3965 43.2118 12.1265 42.8788 12.1265H25.3918V9.15645C25.0487 9.47464 24.639 9.72187 24.1858 9.87478V12.7295C24.1858 13.0626 24.4557 13.3325 24.7888 13.3325H33.2308V21.4376H30.1484C29.5372 20.6251 28.5648 20.0996 27.4697 20.0996C25.6195 20.0996 24.1197 21.5995 24.1197 23.4496C24.1197 25.2998 25.6195 26.7996 27.4697 26.7996C28.2834 26.7996 29.0293 26.5095 29.6097 26.0271C29.6734 26.05 29.7421 26.0625 29.8138 26.0625H33.2308V33.9015H24.7888C24.4557 33.9015 24.1858 34.1715 24.1858 34.5045V37.2496ZM44.5547 21.5736C45.7388 21.5736 46.6987 20.6137 46.6987 19.4296C46.6987 18.2455 45.7388 17.2856 44.5547 17.2856C43.3706 17.2856 42.4107 18.2455 42.4107 19.4296C42.4107 20.6137 43.3706 21.5736 44.5547 21.5736ZM29.6137 23.4496C29.6137 24.6337 28.6538 25.5936 27.4697 25.5936C26.2856 25.5936 25.3257 24.6337 25.3257 23.4496C25.3257 22.2655 26.2856 21.3056 27.4697 21.3056C28.6538 21.3056 29.6137 22.2655 29.6137 23.4496Z" fill="#81FC05"/>
<path fill-rule="evenodd" clip-rule="evenodd" d="M23.1147 10.0496C24.9648 10.0496 26.4647 8.54976 26.4647 6.69961C26.4647 4.84946 24.9648 3.34961 23.1147 3.34961C21.2645 3.34961 19.7647 4.84946 19.7647 6.69961C19.7647 8.54976 21.2645 10.0496 23.1147 10.0496ZM23.1147 8.84361C24.2988 8.84361 25.2587 7.88371 25.2587 6.69961C25.2587 5.51551 24.2988 4.55561 23.1147 4.55561C21.9306 4.55561 20.9707 5.51551 20.9707 6.69961C20.9707 7.88371 21.9306 8.84361 23.1147 8.84361Z" fill="#81FC05"/>
<path fill-rule="evenodd" clip-rule="evenodd" d="M60.9697 27.1346C62.8198 27.1346 64.3197 25.6348 64.3197 23.7846C64.3197 21.9345 62.8198 20.4346 60.9697 20.4346C59.1195 20.4346 57.6197 21.9345 57.6197 23.7846C57.6197 25.6348 59.1195 27.1346 60.9697 27.1346ZM60.9697 25.9286C62.1538 25.9286 63.1137 24.9687 63.1137 23.7846C63.1137 22.6005 62.1538 21.6406 60.9697 21.6406C59.7856 21.6406 58.8257 22.6005 58.8257 23.7846C58.8257 24.9687 59.7856 25.9286 60.9697 25.9286Z" fill="#81FC05"/>
<path fill-rule="evenodd" clip-rule="evenodd" d="M26.4647 40.1996C26.4647 42.0498 24.9648 43.5496 23.1147 43.5496C21.2645 43.5496 19.7647 42.0498 19.7647 40.1996C19.7647 38.3495 21.2645 36.8496 23.1147 36.8496C24.9648 36.8496 26.4647 38.3495 26.4647 40.1996ZM25.2587 40.1996C25.2587 41.3837 24.2988 42.3436 23.1147 42.3436C21.9306 42.3436 20.9707 41.3837 20.9707 40.1996C20.9707 39.0155 21.9306 38.0556 23.1147 38.0556C24.2988 38.0556 25.2587 39.0155 25.2587 40.1996Z" fill="#81FC05"/>
<path fill-rule="evenodd" clip-rule="evenodd" d="M40.1997 48.5746C42.0498 48.5746 43.5497 47.0748 43.5497 45.2246C43.5497 43.3745 42.0498 41.8746 40.1997 41.8746C38.3495 41.8746 36.8497 43.3745 36.8497 45.2246C36.8497 47.0748 38.3495 48.5746 40.1997 48.5746ZM40.1997 47.3686C41.3838 47.3686 42.3437 46.4087 42.3437 45.2246C42.3437 44.0405 41.3838 43.0806 40.1997 43.0806C39.0156 43.0806 38.0557 44.0405 38.0557 45.2246C38.0557 46.4087 39.0156 47.3686 40.1997 47.3686Z" fill="#81FC05"/>
<path fill-rule="evenodd" clip-rule="evenodd" d="M9.37969 45.2246C9.37969 47.0748 7.87984 48.5746 6.02969 48.5746C4.17953 48.5746 2.67969 47.0748 2.67969 45.2246C2.67969 43.3745 4.17953 41.8746 6.02969 41.8746C7.87984 41.8746 9.37969 43.3745 9.37969 45.2246ZM8.17369 45.2246C8.17369 46.4087 7.21379 47.3686 6.02969 47.3686C4.84559 47.3686 3.88569 46.4087 3.88569 45.2246C3.88569 44.0405 4.84559 43.0806 6.02969 43.0806C7.21379 43.0806 8.17369 44.0405 8.17369 45.2246Z" fill="#81FC05"/>
</svg>
