<svg width="67" height="60" viewBox="0 0 67 60" fill="none" xmlns="http://www.w3.org/2000/svg">
<path d="M27.1328 25.4591V17.0841C27.1328 16.3441 27.7328 15.7441 28.4728 15.7441H30.1C30.3502 15.7441 30.5942 15.8141 30.8125 15.9364C31.4745 16.307 33.0017 17.0841 34.1678 17.0841C35.334 17.0841 36.8611 16.307 37.5231 15.9364C37.7414 15.8141 37.9854 15.7441 38.2356 15.7441H39.8628C40.6029 15.7441 41.2028 16.3441 41.2028 17.0841V25.4591C41.2028 26.1992 40.6029 26.7991 39.8628 26.7991H28.4728C27.7328 26.7991 27.1328 26.1992 27.1328 25.4591Z" stroke="#81FC05" stroke-width="1.206"/>
<path d="M8.03906 55.2755V46.9005C8.03906 46.1605 8.639 45.5605 9.37906 45.5605H11.0062C11.2564 45.5605 11.5005 45.6306 11.7188 45.7528C12.3808 46.1234 13.9079 46.9005 15.0741 46.9005C16.2402 46.9005 17.7673 46.1234 18.4293 45.7528C18.6477 45.6306 18.8917 45.5605 19.1419 45.5605H20.7691C21.5091 45.5605 22.1091 46.1605 22.1091 46.9005V55.2755C22.1091 56.0156 21.5091 56.6155 20.7691 56.6155H9.37906C8.639 56.6155 8.03906 56.0156 8.03906 55.2755Z" stroke="#81FC05" stroke-width="1.206"/>
<path d="M45.5586 55.2755V46.9005C45.5586 46.1605 46.1585 45.5605 46.8986 45.5605H48.5258C48.776 45.5605 49.02 45.6306 49.2383 45.7528C49.9003 46.1234 51.4275 46.9005 52.5936 46.9005C53.7597 46.9005 55.2869 46.1234 55.9489 45.7528C56.1672 45.6306 56.4112 45.5605 56.6614 45.5605H58.2886C59.0287 45.5605 59.6286 46.1605 59.6286 46.9005V55.2755C59.6286 56.0156 59.0287 56.6155 58.2886 56.6155H46.8986C46.1585 56.6155 45.5586 56.0156 45.5586 55.2755Z" stroke="#81FC05" stroke-width="1.206"/>
<circle cx="34.1686" cy="8.70961" r="4.757" stroke="#81FC05" stroke-width="1.206"/>
<circle cx="15.4108" cy="38.1901" r="4.757" stroke="#81FC05" stroke-width="1.206"/>
<circle cx="52.9303" cy="38.1901" r="4.757" stroke="#81FC05" stroke-width="1.206"/>
<path d="M12.7947 31.4552C12.7844 31.7881 13.0459 32.0663 13.3788 32.0765C13.7117 32.0868 13.9898 31.8253 14.0001 31.4924L12.7947 31.4552ZM16.4134 19.7493L16.9247 20.0689L16.4134 19.7493ZM27.0068 12.3064C27.1513 12.0063 27.0251 11.6459 26.7251 11.5015L21.8353 9.14713C21.5353 9.00265 21.1749 9.12878 21.0304 9.42884C20.886 9.72889 21.0121 10.0893 21.3122 10.2337L25.6586 12.3265L23.5658 16.6729C23.4214 16.973 23.5475 17.3333 23.8475 17.4778C24.1476 17.6223 24.508 17.4961 24.6524 17.1961L27.0068 12.3064ZM13.3974 31.4738C14.0001 31.4924 14.0001 31.4925 14.0001 31.4926C14.0001 31.4926 14.0001 31.4926 14.0001 31.4925C14.0001 31.4925 14.0001 31.4923 14.0001 31.492C14.0002 31.4914 14.0002 31.4904 14.0002 31.4889C14.0003 31.486 14.0005 31.4813 14.0007 31.475C14.0012 31.4623 14.002 31.4429 14.0031 31.417C14.0053 31.3653 14.0089 31.2877 14.0146 31.1869C14.0258 30.9851 14.0451 30.6902 14.0768 30.3217C14.1404 29.5842 14.2538 28.5544 14.4529 27.3879C14.8538 25.0391 15.5918 22.2012 16.9247 20.0689L15.902 19.4296C14.4431 21.7637 13.6732 24.7881 13.2641 27.185C13.0582 28.3913 12.941 29.4552 12.8753 30.2182C12.8424 30.5999 12.8223 30.9069 12.8104 31.1196C12.8045 31.2259 12.8006 31.3087 12.7982 31.3654C12.797 31.3938 12.7961 31.4157 12.7955 31.4307C12.7953 31.4383 12.7951 31.4441 12.7949 31.4482C12.7949 31.4502 12.7948 31.4519 12.7948 31.453C12.7948 31.4536 12.7947 31.4541 12.7947 31.4545C12.7947 31.4546 12.7947 31.4548 12.7947 31.4549C12.7947 31.4551 12.7947 31.4552 13.3974 31.4738ZM16.9247 20.0689C18.5291 17.5021 20.9525 15.6357 23.0049 14.4043C24.0271 13.791 24.947 13.3414 25.6099 13.0456C25.9412 12.8978 26.2076 12.7888 26.3896 12.7172C26.4807 12.6814 26.5506 12.655 26.5969 12.6379C26.6201 12.6293 26.6373 12.623 26.6484 12.619C26.6539 12.617 26.6579 12.6156 26.6603 12.6148C26.6615 12.6143 26.6623 12.614 26.6627 12.6139C26.6629 12.6138 26.663 12.6138 26.663 12.6138C26.663 12.6138 26.6629 12.6138 26.6629 12.6138C26.6628 12.6139 26.6627 12.6139 26.4635 12.0448C26.2643 11.4756 26.2641 11.4757 26.2639 11.4758C26.2638 11.4758 26.2636 11.4759 26.2634 11.4759C26.2629 11.4761 26.2624 11.4763 26.2618 11.4765C26.2606 11.4769 26.2589 11.4775 26.2569 11.4782C26.2528 11.4797 26.2472 11.4817 26.2399 11.4843C26.2254 11.4895 26.2047 11.4971 26.1779 11.507C26.1245 11.5268 26.0472 11.556 25.9484 11.5948C25.751 11.6724 25.4678 11.7884 25.1186 11.9442C24.4206 12.2556 23.4561 12.7272 22.3845 13.3701C20.2494 14.6511 17.6477 16.6369 15.902 19.4296L16.9247 20.0689Z" fill="#81FC05"/>
<path d="M42.7624 10.9166C42.4617 10.7733 42.1019 10.9009 41.9586 11.2015C41.8153 11.5021 41.9429 11.862 42.2435 12.0053L42.7624 10.9166ZM52.0248 18.9373L51.5266 19.2769L52.0248 18.9373ZM54.5792 31.6295C54.7959 31.8824 55.1765 31.9119 55.4295 31.6952L59.5514 28.1651C59.8044 27.9485 59.8338 27.5678 59.6172 27.3149C59.4006 27.0619 59.0199 27.0325 58.767 27.2491L55.103 30.387L51.9651 26.723C51.7485 26.4701 51.3678 26.4407 51.1149 26.6573C50.8619 26.8739 50.8325 27.2546 51.0491 27.5075L54.5792 31.6295ZM42.503 11.4609C42.2435 12.0053 42.2435 12.0052 42.2434 12.0052C42.2434 12.0052 42.2434 12.0052 42.2434 12.0052C42.2435 12.0053 42.2437 12.0053 42.2439 12.0055C42.2445 12.0057 42.2454 12.0062 42.2467 12.0068C42.2494 12.0081 42.2535 12.0101 42.2593 12.0128C42.2707 12.0184 42.2882 12.0269 42.3114 12.0383C42.3579 12.0611 42.4274 12.0956 42.5175 12.1414C42.6977 12.2328 42.9599 12.369 43.2846 12.5463C43.9343 12.9011 44.8316 13.419 45.8195 14.0704C47.8088 15.3821 50.1102 17.199 51.5266 19.2769L52.5231 18.5976C50.9728 16.3233 48.5133 14.4021 46.4833 13.0636C45.4616 12.3899 44.5347 11.8548 43.8626 11.4878C43.5263 11.3042 43.2532 11.1624 43.0634 11.066C42.9684 11.0178 42.8942 10.9809 42.8432 10.9559C42.8177 10.9433 42.798 10.9338 42.7844 10.9272C42.7777 10.9239 42.7724 10.9214 42.7687 10.9196C42.7669 10.9187 42.7654 10.918 42.7644 10.9175C42.7638 10.9173 42.7634 10.9171 42.7631 10.9169C42.7629 10.9168 42.7627 10.9168 42.7626 10.9167C42.7625 10.9166 42.7624 10.9166 42.503 11.4609ZM51.5266 19.2769C53.2314 21.7781 53.9657 24.7474 54.2678 27.1218C54.4182 28.3042 54.46 29.3274 54.4642 30.0533C54.4663 30.416 54.459 30.7037 54.4513 30.8992C54.4474 30.997 54.4435 31.0716 54.4406 31.1209C54.4391 31.1455 54.4379 31.1639 54.4371 31.1756C54.4367 31.1815 54.4364 31.1857 54.4362 31.1882C54.4361 31.1895 54.4361 31.1903 54.436 31.1908C54.436 31.191 54.436 31.1911 54.436 31.1911C54.436 31.1911 54.436 31.191 54.436 31.191C54.436 31.1909 54.436 31.1907 55.0372 31.2372C55.6384 31.2837 55.6385 31.2835 55.6385 31.2833C55.6385 31.2832 55.6385 31.283 55.6385 31.2828C55.6386 31.2823 55.6386 31.2818 55.6386 31.2811C55.6387 31.2798 55.6389 31.2781 55.639 31.2759C55.6393 31.2716 55.6398 31.2656 55.6403 31.2579C55.6413 31.2426 55.6428 31.2205 55.6445 31.1921C55.6478 31.1352 55.6522 31.0526 55.6563 30.9466C55.6647 30.7347 55.6723 30.4287 55.6701 30.0463C55.6657 29.282 55.6218 28.2093 55.4641 26.9696C55.1499 24.4996 54.378 21.319 52.5231 18.5976L51.5266 19.2769Z" fill="#81FC05"/>
<path d="M43.6011 50.0458C43.8569 49.8324 43.8912 49.4522 43.6779 49.1964C43.4645 48.9407 43.0843 48.9064 42.8286 49.1197L43.6011 50.0458ZM35.1748 51.9274L35.1713 51.3244L35.1748 51.9274ZM24.7057 48.3124C24.3759 48.3591 24.1465 48.6643 24.1932 48.9941L24.9547 54.3674C25.0014 54.6971 25.3066 54.9265 25.6363 54.8798C25.9661 54.8331 26.1955 54.5279 26.1488 54.1982L25.4719 49.4219L30.2482 48.745C30.5779 48.6983 30.8074 48.3931 30.7606 48.0634C30.7139 47.7337 30.4087 47.5042 30.079 47.551L24.7057 48.3124ZM43.2148 49.5827C42.8286 49.1197 42.8288 49.1195 42.8289 49.1194C42.829 49.1194 42.8292 49.1192 42.8293 49.1191C42.8295 49.119 42.8296 49.1188 42.8297 49.1187C42.83 49.1185 42.83 49.1185 42.8299 49.1186C42.8297 49.1188 42.8288 49.1195 42.8273 49.1207C42.8242 49.1232 42.8185 49.1278 42.8101 49.1344C42.7933 49.1476 42.766 49.1686 42.7282 49.1964C42.6525 49.252 42.5349 49.3347 42.376 49.4357C42.058 49.6376 41.575 49.9123 40.9314 50.1896C39.6453 50.7436 37.7149 51.3093 35.1713 51.3244L35.1784 52.5304C37.9018 52.5143 39.9914 51.9077 41.4085 51.2972C42.1165 50.9922 42.656 50.6865 43.0225 50.4537C43.2059 50.3373 43.3461 50.239 43.4426 50.168C43.4909 50.1325 43.5283 50.1038 43.5547 50.083C43.568 50.0727 43.5784 50.0643 43.5862 50.058C43.59 50.0549 43.5932 50.0523 43.5957 50.0502C43.597 50.0492 43.598 50.0483 43.5989 50.0476C43.5994 50.0472 43.5998 50.0469 43.6002 50.0466C43.6004 50.0464 43.6006 50.0462 43.6007 50.0461C43.6009 50.0459 43.6011 50.0458 43.2148 49.5827ZM35.1713 51.3244C32.1096 51.3425 29.5946 50.6115 27.8461 49.8766C26.9722 49.5092 26.2917 49.1417 25.8327 48.8682C25.6033 48.7316 25.4296 48.6186 25.315 48.5411C25.2577 48.5024 25.2152 48.4725 25.188 48.4531C25.1744 48.4434 25.1646 48.4363 25.1587 48.4319C25.1557 48.4298 25.1537 48.4283 25.1527 48.4275C25.1522 48.4272 25.152 48.427 25.1519 48.4269C25.1519 48.4269 25.152 48.427 25.1521 48.4271C25.1522 48.4271 25.1523 48.4272 25.1523 48.4272C25.1525 48.4273 25.1526 48.4275 24.7903 48.9094C24.4279 49.3914 24.4281 49.3916 24.4283 49.3917C24.4284 49.3918 24.4287 49.392 24.4288 49.3921C24.4292 49.3924 24.4296 49.3927 24.4301 49.3931C24.4311 49.3938 24.4323 49.3947 24.4338 49.3958C24.4367 49.398 24.4407 49.4009 24.4456 49.4045C24.4554 49.4117 24.4692 49.4218 24.4869 49.4344C24.5223 49.4597 24.5734 49.4955 24.6396 49.5402C24.7719 49.6297 24.9651 49.7551 25.2154 49.9043C25.716 50.2025 26.4466 50.5965 27.3788 50.9883C29.2425 51.7717 31.9198 52.5497 35.1784 52.5304L35.1713 51.3244Z" fill="#81FC05"/>
</svg>
