<svg width="55" height="65" viewBox="0 0 55 65" fill="none" xmlns="http://www.w3.org/2000/svg">
<circle opacity="0.94" cx="27.2871" cy="36.7285" r="25.8871" stroke="#8F8FFE" stroke-width="2.8"/>
<path fill-rule="evenodd" clip-rule="evenodd" d="M22.6259 0.212891C22.3152 0.212891 22.0633 0.464785 22.0633 0.775511V3.58862C22.0633 3.89934 22.3152 4.15124 22.6259 4.15124H31.7404C32.0511 4.15124 32.303 3.89934 32.303 3.58862V0.775511C32.303 0.464785 32.0511 0.212891 31.7404 0.212891H22.6259ZM25.3276 5.5C24.8925 5.5 24.5399 5.85265 24.5399 6.28767V8.20785C25.4095 8.12975 26.2902 8.08984 27.1804 8.08984C28.1886 8.08984 29.1847 8.14103 30.1661 8.2409V6.28767C30.1661 5.85265 29.8134 5.5 29.3784 5.5H25.3276ZM11.2252 9.04865L13.1652 11.6816C11.5939 12.5485 10.1135 13.5567 8.74184 14.6887L6.92221 12.2192C6.73789 11.969 6.79126 11.6168 7.04142 11.4325L10.4385 8.92944C10.6887 8.74512 11.0409 8.79849 11.2252 9.04865ZM47.6185 12.2192L45.7307 14.7813C44.3648 13.6425 42.8898 12.627 41.3233 11.7524L43.3155 9.04865C43.4998 8.79849 43.8521 8.74512 44.1022 8.92944L47.4993 11.4325C47.7495 11.6168 47.8028 11.969 47.6185 12.2192Z" fill="#8F8FFE"/>
<path d="M22.2262 34.9165L23.2091 33.6337L24.2153 34.902L23.2129 36.1652L22.2262 34.9165Z" fill="#81FC05"/>
<path d="M22.2262 38.854L23.2091 37.5712L24.2153 38.8395L23.2129 40.1027L22.2262 38.854Z" fill="#81FC05"/>
<path d="M26.6648 36.4077L26.1311 36.9414L25.5938 36.4077V32.5708L26.1311 32.0371L26.6648 32.5708V36.4077Z" fill="#81FC05"/>
<path d="M26.7643 32.4557L26.2344 31.9183L26.7643 31.3809H30.605L31.1386 31.9183L30.605 32.4557H26.7643Z" fill="#81FC05"/>
<path d="M26.7643 42.45L26.2344 41.9125L26.7643 41.3789H30.605L31.1386 41.9125L30.605 42.45H26.7643Z" fill="#81FC05"/>
<path d="M26.6648 41.3159L26.1311 41.8496L25.5938 41.3159V37.4789L26.1311 36.9453L26.6648 37.4789V41.3159Z" fill="#81FC05"/>
<path d="M31.7898 36.4077L31.2561 36.9414L30.7188 36.4077V32.5708L31.2561 32.0371L31.7898 32.5708V36.4077Z" fill="#81FC05"/>
<path d="M31.7898 41.3159L31.2561 41.8496L30.7188 41.3159V37.4789L31.2561 36.9453L31.7898 37.4789V41.3159Z" fill="#81FC05"/>
<path d="M35.1101 36.4077L34.5765 36.9414L34.0391 36.4077V32.5708L34.5765 32.0371L35.1101 32.5708V36.4077Z" fill="#81FC05"/>
<path d="M35.2018 32.4557L34.6719 31.9183L35.2018 31.3809H39.0425L39.5761 31.9183L39.0425 32.4557H35.2018Z" fill="#81FC05"/>
<path d="M35.2018 42.45L34.6719 41.9125L35.2018 41.3789H39.0425L39.5761 41.9125L39.0425 42.45H35.2018Z" fill="#81FC05"/>
<path d="M35.1101 41.3159L34.5765 41.8496L34.0391 41.3159V37.4789L34.5765 36.9453L35.1101 37.4789V41.3159Z" fill="#81FC05"/>
<path d="M40.2273 36.4077L39.6936 36.9414L39.1562 36.4077V32.5708L39.6936 32.0371L40.2273 32.5708V36.4077Z" fill="#81FC05"/>
<path d="M40.2273 41.3159L39.6936 41.8496L39.1562 41.3159V37.4789L39.6936 36.9453L40.2273 37.4789V41.3159Z" fill="#81FC05"/>
<path d="M15.7039 36.4077L15.1702 36.9414L14.6328 36.4077V32.5708L15.1702 32.0371L15.7039 32.5708V36.4077Z" fill="#81FC05"/>
<path d="M15.7955 32.4557L15.2656 31.9183L15.7955 31.3809H19.6362L20.1699 31.9183L19.6362 32.4557H15.7955Z" fill="#81FC05"/>
<path d="M15.7955 42.45L15.2656 41.9125L15.7955 41.3789H19.6362L20.1699 41.9125L19.6362 42.45H15.7955Z" fill="#81FC05"/>
<path d="M15.7039 41.3159L15.1702 41.8496L14.6328 41.3159V37.4789L15.1702 36.9453L15.7039 37.4789V41.3159Z" fill="#81FC05"/>
<path d="M20.821 36.4077L20.2874 36.9414L19.75 36.4077V32.5708L20.2874 32.0371L20.821 32.5708V36.4077Z" fill="#81FC05"/>
<path d="M20.821 41.3159L20.2874 41.8496L19.75 41.3159V37.4789L20.2874 36.9453L20.821 37.4789V41.3159Z" fill="#81FC05"/>
</svg>
