<svg width="25" height="24" viewBox="0 0 25 24" fill="none" xmlns="http://www.w3.org/2000/svg">
<path fill-rule="evenodd" clip-rule="evenodd" d="M5.0568 12C5.0568 11.2206 5.18997 10.4733 5.42764 9.77238L1.26757 6.68402C0.456798 8.28438 0 10.0877 0 12C0 13.9107 0.456236 15.7129 1.26589 17.3122L5.4237 14.2178C5.18828 13.5202 5.0568 12.7757 5.0568 12Z" fill="#FBBC05"/>
<path fill-rule="evenodd" clip-rule="evenodd" d="M12.361 4.90909C14.1027 4.90909 15.676 5.50909 16.9121 6.49091L20.508 3C18.3167 1.14545 15.5074 0 12.361 0C7.47609 0 3.27782 2.71582 1.26746 6.684L5.42752 9.77236C6.38606 6.94364 9.11842 4.90909 12.361 4.90909Z" fill="#EB4335"/>
<path fill-rule="evenodd" clip-rule="evenodd" d="M12.361 19.0909C9.11842 19.0909 6.38606 17.0564 5.42752 14.2277L1.26746 17.3155C3.27782 21.2842 7.47609 24 12.361 24C15.3759 24 18.2544 22.9593 20.4148 21.0093L16.466 18.0415C15.3518 18.7238 13.9488 19.0909 12.361 19.0909Z" fill="#34A853"/>
<path fill-rule="evenodd" clip-rule="evenodd" d="M24.1602 12C24.1602 11.2909 24.0478 10.5273 23.8792 9.81818H12.361V14.4545H18.991C18.6595 16.0353 17.7571 17.2505 16.466 18.0414L20.4148 21.0093C22.6841 18.9616 24.1602 15.9114 24.1602 12Z" fill="#4285F4"/>
</svg>
